SplineFontDB: 3.2
FontName: Inconsolata-UltraCondensedBold
FullName: Inconsolata Ultra Condensed Bold
FamilyName: Inconsolata Ultra Condensed Bold
Weight: Bold
Copyright: Copyright 2006 The Inconsolata Project Authors (https://github.com/cyrealtype/Inconsolata)
Version: 3.000; ttfautohint (v1.8.3)
ItalicAngle: 0
UnderlinePosition: -297
UnderlineWidth: 102
Ascent: 1802
Descent: 246
InvalidEm: 0
sfntRevision: 0x00030000
LayerCount: 2
Layer: 0 1 "Back" 1
Layer: 1 1 "Fore" 0
XUID: [1021 29 -327391364 25656]
StyleMap: 0x0040
FSType: 0
OS2Version: 4
OS2_WeightWidthSlopeOnly: 0
OS2_UseTypoMetrics: 1
CreationTime: 1576097233
ModificationTime: 1732392374
PfmFamily: 81
TTFWeight: 700
TTFWidth: 1
LineGap: 0
VLineGap: 0
Panose: 0 0 0 0 0 0 0 0 0 0
OS2TypoAscent: 1759
OS2TypoAOffset: 0
OS2TypoDescent: -389
OS2TypoDOffset: 0
OS2TypoLinegap: 0
OS2WinAscent: 2056
OS2WinAOffset: 0
OS2WinDescent: 930
OS2WinDOffset: 0
HheadAscent: 1759
HheadAOffset: 0
HheadDescent: -389
HheadDOffset: 0
OS2SubXSize: 1331
OS2SubYSize: 1229
OS2SubXOff: 0
OS2SubYOff: 154
OS2SupXSize: 1331
OS2SupYSize: 1229
OS2SupXOff: 0
OS2SupYOff: 717
OS2StrikeYSize: 102
OS2StrikeYPos: 571
OS2CapHeight: 1276
OS2XHeight: 952
OS2Vendor: 'CYRE'
OS2CodePages: 60000193.cdd40000
OS2UnicodeRanges: a00000ff.0000f9eb.00000020.00000000
Lookup: 1 0 0 "'aalt' Access All Alternates in Latin lookup 0" { "'aalt' Access All Alternates in Latin lookup 0 subtable"  } ['aalt' ('DFLT' <'dflt' > 'latn' <'AZE ' 'CAT ' 'CRT ' 'KAZ ' 'MOL ' 'ROM ' 'TAT ' 'TRK ' 'dflt' > ) ]
Lookup: 3 0 0 "'aalt' Access All Alternates in Latin lookup 1" { "'aalt' Access All Alternates in Latin lookup 1 subtable"  } ['aalt' ('DFLT' <'dflt' > 'latn' <'AZE ' 'CAT ' 'CRT ' 'KAZ ' 'MOL ' 'ROM ' 'TAT ' 'TRK ' 'dflt' > ) ]

StartChar: A
Encoding: 65 65 1
Width: 512
VWidth: 2441
GlyphClass: 2
Flags: HW
AnchorPoint: "Anchor-3" 358 0 basechar 0
AnchorPoint: "Anchor-2" 247 0 basechar 0
AnchorPoint: "Anchor-0" 247 1521 basechar 0
LayerCount: 2
Fore
SplineSet
247 988 m 1,0,-1
 205 532 l 1,1,-1
 289 532 l 1,2,-1
 247 988 l 1,0,-1
337 0 m 1,3,-1
 303 371 l 1,4,-1
 191 371 l 1,5,-1
 155 0 l 1,6,-1
 7 0 l 1,7,-1
 199 1547 l 1,8,-1
 295 1547 l 1,9,-1
 487 0 l 1,10,-1
 337 0 l 1,3,-1
EndSplineSet
Substitution2: "Single Substitution lookup 29 subtable" ordfeminine
Substitution2: "'aalt' Access All Alternates in Latin lookup 0 subtable" ordfeminine
EndChar

StartChar: AE
Encoding: 198 198 26
Width: 512
VWidth: 2441
GlyphClass: 1
Flags: HW
LayerCount: 2
Fore
SplineSet
191 573 m 1,0,-1
 245 573 l 1,1,-1
 263 1225 l 1,2,-1
 191 573 l 1,0,-1
3 0 m 1,3,-1
 199 1523 l 1,4,-1
 483 1523 l 1,5,-1
 483 1330 l 1,6,-1
 369 1330 l 1,7,-1
 369 892 l 1,8,-1
 457 892 l 1,9,-1
 457 696 l 1,10,-1
 369 696 l 1,11,-1
 369 193 l 1,12,-1
 481 193 l 1,13,-1
 481 0 l 1,14,-1
 245 0 l 1,15,-1
 245 393 l 1,16,-1
 173 393 l 1,17,-1
 123 0 l 1,18,-1
 3 0 l 1,3,-1
EndSplineSet
EndChar

StartChar: B
Encoding: 66 66 28
Width: 512
VWidth: 2441
GlyphClass: 2
Flags: HW
AnchorPoint: "Anchor-2" 282 0 basechar 0
AnchorPoint: "Anchor-0" 282 1521 basechar 0
LayerCount: 2
Fore
SplineSet
203 193 m 1,0,-1
 273 193 l 2,1,2
 316 193 316 193 342 246.5 c 128,-1,3
 368 300 368 300 368 437 c 128,-1,4
 368 574 368 574 338.5 648 c 128,-1,5
 309 722 309 722 254 722 c 2,6,-1
 203 722 l 1,7,-1
 203 193 l 1,0,-1
203 916 m 1,8,-1
 250 916 l 2,9,10
 306 916 306 916 326.5 972 c 128,-1,11
 347 1028 347 1028 347 1132 c 0,12,13
 347 1223 347 1223 327 1275.5 c 128,-1,14
 307 1328 307 1328 262 1328 c 2,15,-1
 203 1328 l 1,16,-1
 203 916 l 1,8,-1
45 0 m 1,17,-1
 45 1521 l 1,18,-1
 254 1521 l 2,19,20
 315 1521 315 1521 371.5 1488.5 c 128,-1,21
 428 1456 428 1456 464.5 1376 c 128,-1,22
 501 1296 501 1296 501 1153 c 0,23,24
 501 990 501 990 475 916.5 c 128,-1,25
 449 843 449 843 396 815 c 1,26,27
 448 780 448 780 486.5 685.5 c 128,-1,28
 525 591 525 591 525 427 c 0,29,30
 525 210 525 210 457.5 105 c 128,-1,31
 390 0 390 0 252 0 c 2,32,-1
 45 0 l 1,17,-1
EndSplineSet
EndChar

StartChar: C
Encoding: 67 67 29
Width: 512
VWidth: 2441
GlyphClass: 2
Flags: HW
AnchorPoint: "Anchor-2" 304 0 basechar 0
AnchorPoint: "Anchor-0" 294 1521 basechar 0
LayerCount: 2
Fore
SplineSet
308 -24 m 0,0,1
 236 -24 236 -24 174 43 c 128,-1,2
 112 110 112 110 74.5 278.5 c 128,-1,3
 37 447 37 447 35 752 c 0,4,5
 35 1001 35 1001 61.5 1155 c 128,-1,6
 88 1309 88 1309 132.5 1390.5 c 128,-1,7
 177 1472 177 1472 227.5 1501.5 c 128,-1,8
 278 1531 278 1531 323 1531 c 0,9,10
 397 1531 397 1531 444.5 1481 c 128,-1,11
 492 1431 492 1431 515 1351 c 1,12,-1
 461 1162 l 1,13,-1
 453 1140 l 1,14,-1
 440 1148 l 1,15,16
 434 1167 434 1167 436 1195 c 0,17,18
 436.222222222 1198.11111111 436.222222222 1198.11111111 436.222222222 1201.33333333 c 0,19,20
 436.222222222 1227.11111111 436.222222222 1227.11111111 422 1260 c 0,21,22
 401 1299 401 1299 377.5 1314.5 c 128,-1,23
 354 1330 354 1330 329 1330 c 0,24,25
 292 1330 292 1330 260 1280 c 128,-1,26
 228 1230 228 1230 208.5 1105.5 c 128,-1,27
 189 981 189 981 189 759 c 0,28,29
 189 542 189 542 210 413 c 128,-1,30
 231 284 231 284 264.5 227 c 128,-1,31
 298 170 298 170 334 170 c 0,32,33
 373 170 373 170 404.5 213 c 128,-1,34
 436 256 436 256 459 319 c 1,35,-1
 498 135 l 1,36,37
 463 54 463 54 418.5 15 c 128,-1,38
 374 -24 374 -24 308 -24 c 0,0,1
EndSplineSet
EndChar

StartChar: D
Encoding: 68 68 36
Width: 512
VWidth: 2441
GlyphClass: 2
Flags: HW
AnchorPoint: "Anchor-4" 274 762 basechar 0
AnchorPoint: "Anchor-2" 274 0 basechar 0
AnchorPoint: "Anchor-0" 241 1521 basechar 0
LayerCount: 2
Fore
SplineSet
201 191 m 1,0,-1
 228 191 l 2,1,2
 293 191 293 191 328.5 327.5 c 128,-1,3
 364 464 364 464 364 743 c 0,4,5
 364 1024 364 1024 337 1176 c 128,-1,6
 310 1328 310 1328 241 1328 c 2,7,-1
 201 1328 l 1,8,-1
 201 191 l 1,0,-1
42 -2 m 1,9,-1
 42 1521 l 1,10,-1
 220 1521 l 2,11,12
 308 1521 308 1521 365.5 1479.5 c 128,-1,13
 423 1438 423 1438 456 1338 c 128,-1,14
 489 1238 489 1238 505.5 1106 c 128,-1,15
 522 974 522 974 522 752 c 0,16,17
 522 -2.00132275132 522 -2.00132275132 207.832782187 -2.00132275132 c 0,18,19
 207.416666667 -2.00132275132 207.416666667 -2.00132275132 207 -2 c 2,20,-1
 42 -2 l 1,9,-1
EndSplineSet
EndChar

StartChar: Eth
Encoding: 208 208 37
Width: 512
VWidth: 2441
GlyphClass: 1
Flags: HW
LayerCount: 2
Fore
SplineSet
192 193 m 1,0,-1
 212 193 l 2,1,2
 289 193 289 193 317.5 326 c 128,-1,3
 346 459 346 459 346 747 c 0,4,5
 346 1040 346 1040 316 1181.5 c 128,-1,6
 286 1323 286 1323 210 1323 c 2,7,-1
 192 1323 l 1,8,-1
 192 896 l 1,9,-1
 257 896 l 1,10,-1
 257 715 l 1,11,-1
 192 715 l 1,12,-1
 192 193 l 1,0,-1
46 -2 m 1,13,-1
 46 715 l 1,14,-1
 11 715 l 1,15,-1
 11 896 l 1,16,-1
 46 896 l 1,17,-1
 46 1521 l 1,18,-1
 214 1521 l 2,19,20
 276 1521 276 1521 324.5 1479.5 c 128,-1,21
 373 1438 373 1438 404 1373.5 c 128,-1,22
 435 1309 435 1309 452 1237 c 0,23,24
 464 1179 464 1179 477.5 1064.5 c 128,-1,25
 491 950 491 950 491 755 c 0,26,27
 491 459 491 459 456.5 294.5 c 128,-1,28
 422 130 422 130 357 64 c 128,-1,29
 292 -2 292 -2 202 -2 c 2,30,-1
 46 -2 l 1,13,-1
EndSplineSet
EndChar

StartChar: E
Encoding: 69 69 42
Width: 512
VWidth: 2441
GlyphClass: 2
Flags: HW
AnchorPoint: "Anchor-3" 542 24 basechar 0
AnchorPoint: "Anchor-2" 301 0 basechar 0
AnchorPoint: "Anchor-0" 313 1521 basechar 0
LayerCount: 2
Fore
SplineSet
60 0 m 1,0,-1
 60 1523 l 1,1,-1
 540 1523 l 1,2,-1
 540 1330 l 1,3,-1
 234 1330 l 1,4,-1
 234 888 l 1,5,-1
 480 888 l 1,6,-1
 480 699 l 1,7,-1
 234 699 l 1,8,-1
 234 193 l 1,9,-1
 538 193 l 1,10,-1
 538 0 l 1,11,-1
 60 0 l 1,0,-1
EndSplineSet
EndChar

StartChar: uni01B8
Encoding: 440 440 65
Width: 512
VWidth: 2441
GlyphClass: 1
Flags: HW
LayerCount: 2
Fore
SplineSet
327 -27 m 0,0,1
 208 -27 208 -27 137 89 c 128,-1,2
 66 205 66 205 66 420 c 0,3,4
 66 613 66 613 120.5 743.5 c 128,-1,5
 175 874 175 874 259 918 c 1,6,-1
 98 1335 l 1,7,-1
 98 1521 l 1,8,-1
 491 1521 l 1,9,-1
 491 1328 l 1,10,-1
 271 1328 l 1,11,-1
 412 937 l 1,12,-1
 412 752 l 1,13,14
 399.664670659 753.19760479 399.664670659 753.19760479 388.240094661 753.19760479 c 0,15,16
 304.269461078 753.19760479 304.269461078 753.19760479 269.5 688.5 c 0,17,18
 230 615 230 615 230 432 c 0,19,20
 230 281 230 281 264 223.5 c 128,-1,21
 298 166 298 166 349 166 c 0,22,23
 407 166 407 166 447 210 c 1,24,25
 461 237 461 237 464.5 252.5 c 128,-1,26
 468 268 468 268 464 286 c 1,27,-1
 471 300 l 1,28,-1
 491 286 l 1,29,-1
 527 100 l 1,30,31
 485 27 485 27 435 0 c 128,-1,32
 385 -27 385 -27 327 -27 c 0,0,1
EndSplineSet
EndChar

StartChar: F
Encoding: 70 70 66
Width: 512
VWidth: 2441
GlyphClass: 2
Flags: HW
AnchorPoint: "Anchor-2" 305 0 basechar 0
AnchorPoint: "Anchor-0" 305 1521 basechar 0
LayerCount: 2
Fore
SplineSet
81 0 m 1,0,-1
 81 1523 l 1,1,-1
 550 1523 l 1,2,-1
 550 1330 l 1,3,-1
 254 1330 l 1,4,-1
 254 916 l 1,5,-1
 491 916 l 1,6,-1
 491 725 l 1,7,-1
 254 725 l 1,8,-1
 254 0 l 1,9,-1
 81 0 l 1,0,-1
EndSplineSet
EndChar

StartChar: G
Encoding: 71 71 67
Width: 512
VWidth: 2441
GlyphClass: 2
Flags: HW
AnchorPoint: "Anchor-2" 295 0 basechar 0
AnchorPoint: "Anchor-0" 305 1521 basechar 0
LayerCount: 2
Fore
SplineSet
307 -24 m 0,0,1
 174 -24 174 -24 105 164 c 128,-1,2
 36 352 36 352 36 743 c 1,3,4
 35.3846153846 780.538461538 35.3846153846 780.538461538 35.3846153846 815.99408284 c 0,5,6
 35.3846153846 1011 35.3846153846 1011 54 1143 c 0,7,8
 76 1299 76 1299 116.5 1384.5 c 128,-1,9
 157 1470 157 1470 207.5 1504 c 128,-1,10
 258 1538 258 1538 309 1538 c 0,11,12
 389 1538 389 1538 440 1486.5 c 128,-1,13
 491 1435 491 1435 513 1351 c 1,14,-1
 449 1202 l 1,15,-1
 437 1179 l 1,16,-1
 424 1189 l 1,17,18
 420 1208 420 1208 418.5 1233 c 128,-1,19
 417 1258 417 1258 400 1291 c 0,20,21
 366 1345 366 1345 320 1345 c 0,22,23
 280 1345 280 1345 252 1295 c 128,-1,24
 224 1245 224 1245 208.5 1122 c 128,-1,25
 193 999 193 999 193 778 c 0,26,27
 193 461 193 461 223 313.5 c 128,-1,28
 253 166 253 166 303 166 c 0,29,30
 345 166 345 166 371 212 c 1,31,-1
 371 573 l 1,32,-1
 291 573 l 1,33,-1
 291 764 l 1,34,-1
 515 764 l 1,35,-1
 515 122 l 1,36,37
 466 43 466 43 413 9.5 c 128,-1,38
 360 -24 360 -24 307 -24 c 0,0,1
EndSplineSet
EndChar

StartChar: H
Encoding: 72 72 74
Width: 512
VWidth: 2441
GlyphClass: 2
Flags: HW
AnchorPoint: "Anchor-4" 566 762 basechar 0
AnchorPoint: "Anchor-2" 566 0 basechar 0
AnchorPoint: "Anchor-0" 396 1521 basechar 0
LayerCount: 2
Fore
SplineSet
43 1521 m 1,0,-1
 218 1521 l 1,1,-1
 218 1504 l 1,2,3
 211 1490 211 1490 208.5 1473 c 128,-1,4
 206 1456 206 1456 206 1414 c 2,5,-1
 206 896 l 1,6,-1
 346 896 l 1,7,-1
 346 1521 l 1,8,-1
 523 1521 l 1,9,-1
 523 1504 l 1,10,11
 516 1490 516 1490 514 1473 c 128,-1,12
 512 1456 512 1456 512 1414 c 2,13,-1
 512 0 l 1,14,-1
 346 0 l 1,15,-1
 346 701 l 1,16,-1
 206 701 l 1,17,-1
 206 0 l 1,18,-1
 43 0 l 1,19,-1
 43 1521 l 1,0,-1
EndSplineSet
EndChar

StartChar: Hbar
Encoding: 294 294 75
Width: 512
VWidth: 2441
GlyphClass: 2
Flags: HW
AnchorPoint: "Anchor-4" 495 762 basechar 0
AnchorPoint: "Anchor-2" 495 0 basechar 0
AnchorPoint: "Anchor-0" 345 1521 basechar 0
LayerCount: 2
Fore
SplineSet
178 896 m 1,0,-1
 301 896 l 1,1,-1
 301 1193 l 1,2,-1
 178 1193 l 1,3,-1
 178 896 l 1,0,-1
1 1193 m 1,4,-1
 1 1384 l 1,5,-1
 35 1384 l 1,6,-1
 35 1521 l 1,7,-1
 189 1521 l 1,8,-1
 189 1504 l 1,9,10
 183 1490 183 1490 180.5 1473 c 128,-1,11
 178 1456 178 1456 178 1414 c 2,12,-1
 178 1384 l 1,13,-1
 301 1384 l 1,14,-1
 301 1521 l 1,15,-1
 457 1521 l 1,16,-1
 457 1504 l 1,17,18
 451 1490 451 1490 449 1473 c 128,-1,19
 447 1456 447 1456 447 1414 c 2,20,-1
 447 1384 l 1,21,-1
 481 1384 l 1,22,-1
 481 1193 l 1,23,-1
 447 1193 l 1,24,-1
 447 0 l 1,25,-1
 301 0 l 1,26,-1
 301 701 l 1,27,-1
 178 701 l 1,28,-1
 178 0 l 1,29,-1
 35 0 l 1,30,-1
 35 1193 l 1,31,-1
 1 1193 l 1,4,-1
EndSplineSet
EndChar

StartChar: I
Encoding: 73 73 79
Width: 512
VWidth: 2441
GlyphClass: 2
Flags: HW
AnchorPoint: "Anchor-3" 432 0 basechar 0
AnchorPoint: "Anchor-2" 308 0 basechar 0
AnchorPoint: "Anchor-0" 293 1521 basechar 0
LayerCount: 2
Fore
SplineSet
75 0 m 1,0,-1
 75 193 l 1,1,-1
 207 193 l 1,2,-1
 207 1323 l 1,3,-1
 79 1323 l 1,4,-1
 79 1521 l 1,5,-1
 510 1521 l 1,6,-1
 510 1323 l 1,7,-1
 380 1323 l 1,8,-1
 380 191 l 1,9,-1
 517 191 l 1,10,-1
 517 0 l 1,11,-1
 75 0 l 1,0,-1
EndSplineSet
EndChar

StartChar: J
Encoding: 74 74 94
Width: 512
VWidth: 2441
GlyphClass: 2
Flags: HW
AnchorPoint: "Anchor-2" 266 0 basechar 0
AnchorPoint: "Anchor-0" 355 1521 basechar 0
LayerCount: 2
Fore
SplineSet
205 -27 m 0,0,1
 156 -27 156 -27 111 4 c 128,-1,2
 66 35 66 35 36 98 c 1,3,-1
 80 300 l 1,4,-1
 86 324 l 1,5,-1
 99 319 l 1,6,7
 110 302 110 302 110 273 c 128,-1,8
 110 244 110 244 131 210 c 1,9,10
 160 173 160 173 197 173 c 0,11,12
 228 173 228 173 249 244 c 128,-1,13
 270 315 270 315 270 508 c 2,14,-1
 270 1328 l 1,15,-1
 139 1328 l 1,16,-1
 139 1521 l 1,17,-1
 516 1521 l 1,18,-1
 516 1328 l 1,19,-1
 427 1328 l 1,20,-1
 427 510 l 2,21,22
 427 303 427 303 401.5 185.5 c 128,-1,23
 376 68 376 68 326 20.5 c 128,-1,24
 276 -27 276 -27 205 -27 c 0,0,1
EndSplineSet
EndChar

StartChar: K
Encoding: 75 75 96
Width: 512
VWidth: 2441
GlyphClass: 1
Flags: HW
LayerCount: 2
Fore
SplineSet
218 643 m 1,0,-1
 194 564 l 1,1,-1
 198 0 l 1,2,-1
 43 0 l 1,3,-1
 43 1521 l 1,4,-1
 218 1521 l 1,5,-1
 218 1504 l 1,6,7
 205 1490 205 1490 201.5 1473 c 128,-1,8
 198 1456 198 1456 198 1414 c 2,9,-1
 198 939 l 1,10,-1
 354 1533 l 1,11,12
 380 1528 380 1528 417.5 1524.5 c 128,-1,13
 455 1521 455 1521 478 1521 c 2,14,-1
 505 1521 l 1,15,-1
 313 832 l 1,16,-1
 523 0 l 1,17,-1
 363 -12 l 1,18,-1
 218 643 l 1,0,-1
EndSplineSet
EndChar

StartChar: uni0198
Encoding: 408 408 98
Width: 512
VWidth: 2441
GlyphClass: 1
Flags: HW
LayerCount: 2
Fore
SplineSet
44 1521 m 1,0,-1
 220 1521 l 1,1,-1
 220 1504 l 1,2,3
 207 1490 207 1490 203.5 1473 c 128,-1,4
 200 1456 200 1456 200 1414 c 2,5,-1
 200 976 l 1,6,7
 250 1208 250 1208 291.5 1327.5 c 128,-1,8
 333 1447 333 1447 374.5 1489 c 128,-1,9
 416 1531 416 1531 466 1531 c 0,10,11
 477 1531 477 1531 492.5 1528.5 c 128,-1,12
 508 1526 508 1526 516 1521 c 1,13,-1
 516 1284 l 1,14,-1
 510 1284 l 1,15,16
 504 1298 504 1298 496.5 1308 c 128,-1,17
 489 1318 489 1318 470 1321 c 2,18,-1
 464 1321 l 2,19,20
 451 1321 451 1321 432.5 1287 c 128,-1,21
 414 1253 414 1253 382.5 1153 c 128,-1,22
 351 1053 351 1053 299 857 c 1,23,-1
 524 0 l 1,24,-1
 364 -12 l 1,25,-1
 227 587 l 1,26,27
 214 541 214 541 200 489 c 1,28,-1
 200 0 l 1,29,-1
 44 0 l 1,30,-1
 44 1521 l 1,0,-1
EndSplineSet
EndChar

StartChar: L
Encoding: 76 76 99
Width: 512
VWidth: 2441
GlyphClass: 2
Flags: HW
AnchorPoint: "Anchor-4" 128 762 basechar 0
AnchorPoint: "Anchor-2" 295 0 basechar 0
AnchorPoint: "Anchor-1" 212 1116 basechar 0
AnchorPoint: "Anchor-0" 237 1521 basechar 0
LayerCount: 2
Fore
SplineSet
59 1521 m 1,0,-1
 250 1521 l 1,1,-1
 250 1504 l 1,2,3
 236 1490 236 1490 233 1473 c 128,-1,4
 230 1456 230 1456 230 1414 c 2,5,-1
 230 198 l 1,6,-1
 539 198 l 1,7,-1
 539 0 l 1,8,-1
 59 0 l 1,9,-1
 59 1521 l 1,0,-1
EndSplineSet
EndChar

StartChar: uni01C7
Encoding: 455 455 100
Width: 512
VWidth: 2367
GlyphClass: 1
Flags: HW
LayerCount: 2
Fore
SplineSet
51 121 m 1,0,-1
 51 1521 l 1,1,-1
 222 1521 l 1,2,3
 222 1506 222 1506 218 1502 c 128,-1,4
 214 1498 214 1498 210 1489 c 128,-1,5
 206 1480 206 1480 206 1444 c 2,6,-1
 206 298 l 1,7,-1
 310 298 l 1,8,-1
 310 121 l 1,9,-1
 51 121 l 1,0,-1
332 -246 m 0,10,11
 218 -246 218 -246 141 -154 c 1,12,-1
 216 1 l 1,13,14
 229 -14 229 -14 225.5 -22 c 128,-1,15
 222 -30 222 -30 240 -53 c 0,16,17
 251 -64 251 -64 265.5 -71.5 c 128,-1,18
 280 -79 280 -79 306 -79 c 0,19,20
 331 -79 331 -79 346.5 -51 c 128,-1,21
 362 -23 362 -23 369.5 53 c 128,-1,22
 377 129 377 129 377 273 c 2,23,-1
 377 1343 l 1,24,-1
 300 1343 l 1,25,-1
 300 1521 l 1,26,-1
 531 1521 l 1,27,-1
 531 275 l 2,28,29
 531.156862745 259.31372549 531.156862745 259.31372549 531.156862745 244.159554018 c 0,0,0
 531.156862745 66.0980392157 531.156862745 66.0980392157 509.5 -38.5 c 128,-1,30
 486 -152 486 -152 440 -199 c 128,-1,31
 394 -246 394 -246 332 -246 c 0,10,11
EndSplineSet
EndChar

StartChar: Lcaron
Encoding: 317 317 102
Width: 512
VWidth: 2441
GlyphClass: 2
Flags: HW
AnchorPoint: "Anchor-4" 128 762 basechar 0
AnchorPoint: "Anchor-2" 295 0 basechar 0
AnchorPoint: "Anchor-1" 212 1116 basechar 0
AnchorPoint: "Anchor-0" 237 1521 basechar 0
LayerCount: 2
Fore
SplineSet
59 1521 m 1,0,-1
 250 1521 l 1,1,-1
 250 1504 l 1,2,3
 236 1490 236 1490 233 1473 c 128,-1,4
 230 1456 230 1456 230 1414 c 2,5,-1
 230 198 l 1,6,-1
 539 198 l 1,7,-1
 539 0 l 1,8,-1
 59 0 l 1,9,-1
 59 1521 l 1,0,-1
408 1011 m 1,10,-1
 324 1074 l 1,11,12
 360 1125 360 1125 381 1176.5 c 128,-1,13
 402 1228 402 1228 402 1270 c 0,14,15
 402 1309 402 1309 378 1338 c 128,-1,16
 354 1367 354 1367 354 1421 c 0,17,18
 354 1472 354 1472 382.5 1502.5 c 128,-1,19
 411 1533 411 1533 447 1533 c 128,-1,20
 483 1533 483 1533 511 1501.5 c 128,-1,21
 539 1470 539 1470 539 1400 c 0,22,23
 539 1305 539 1305 505 1207 c 128,-1,24
 471 1109 471 1109 408 1011 c 1,10,-1
EndSplineSet
EndChar

StartChar: uni01C8
Encoding: 456 456 106
Width: 512
VWidth: 2362
GlyphClass: 1
Flags: HW
LayerCount: 2
Fore
SplineSet
292 -246 m 0,0,1
 250 -246 250 -246 207.5 -217.5 c 128,-1,2
 165 -189 165 -189 138 -142 c 1,3,-1
 204 38 l 1,4,5
 217 27 217 27 213 5.5 c 128,-1,6
 209 -16 209 -16 239 -47 c 0,7,8
 252 -58 252 -58 261.5 -60.5 c 128,-1,9
 271 -63 271 -63 288 -63 c 0,10,11
 328 -63 328 -63 352.5 -7 c 128,-1,12
 377 49 377 49 377 188 c 2,13,-1
 377 1009 l 1,14,-1
 262 1009 l 1,15,-1
 262 1177 l 1,16,-1
 510 1177 l 1,17,-1
 508 197 l 2,18,19
 508 -40 508 -40 451 -143 c 128,-1,20
 394 -246 394 -246 292 -246 c 0,0,1
55 146 m 1,21,-1
 55 1528 l 1,22,-1
 213 1528 l 1,23,24
 213 1506 213 1506 209.5 1492.5 c 128,-1,25
 206 1479 206 1479 206 1450 c 2,26,-1
 206 326 l 1,27,-1
 311 326 l 1,28,-1
 311 146 l 1,29,-1
 55 146 l 1,21,-1
430 1373 m 0,30,31
 386 1373 386 1373 355 1406 c 128,-1,32
 324 1439 324 1439 324 1483 c 0,33,34
 324 1530 324 1530 355 1562 c 128,-1,35
 386 1594 386 1594 430 1594 c 0,36,37
 472 1594 472 1594 503.5 1562 c 128,-1,38
 535 1530 535 1530 535 1483 c 0,39,40
 535 1439 535 1439 503.5 1406 c 128,-1,41
 472 1373 472 1373 430 1373 c 0,30,31
EndSplineSet
EndChar

StartChar: Lslash
Encoding: 321 321 108
Width: 512
VWidth: 2441
GlyphClass: 1
Flags: HW
LayerCount: 2
Fore
SplineSet
62 0 m 1,0,-1
 62 547 l 1,1,-1
 17 510 l 1,2,-1
 17 732 l 1,3,-1
 62 771 l 1,4,-1
 62 1521 l 1,5,-1
 232 1521 l 2,6,7
 241 1521 241 1521 241 1516 c 0,8,9
 241 1506 241 1506 232 1489 c 128,-1,10
 223 1472 223 1472 221 1438 c 2,11,-1
 221 876 l 1,12,-1
 364 983 l 2,13,14
 381 995 381 995 392 1009 c 1,15,-1
 392 767 l 1,16,-1
 225 647 l 1,17,-1
 223 198 l 1,18,-1
 497 198 l 1,19,-1
 497 0 l 1,20,-1
 62 0 l 1,0,-1
EndSplineSet
EndChar

StartChar: M
Encoding: 77 77 109
Width: 512
VWidth: 2441
GlyphClass: 2
Flags: HW
AnchorPoint: "Anchor-2" 273 0 basechar 0
AnchorPoint: "Anchor-0" 273 1521 basechar 0
LayerCount: 2
Fore
SplineSet
33 0 m 1,0,-1
 33 1521 l 1,1,-1
 153 1521 l 1,2,-1
 273 967 l 1,3,-1
 394 1523 l 1,4,-1
 513 1523 l 1,5,-1
 513 0 l 1,6,-1
 381 0 l 1,7,-1
 386 1030 l 1,8,-1
 281 564 l 1,9,-1
 254 564 l 1,10,-1
 161 1023 l 1,11,-1
 165 0 l 1,12,-1
 33 0 l 1,0,-1
EndSplineSet
EndChar

StartChar: N
Encoding: 78 78 111
Width: 512
VWidth: 2441
GlyphClass: 2
Flags: HW
AnchorPoint: "Anchor-2" 273 0 basechar 0
AnchorPoint: "Anchor-0" 273 1521 basechar 0
LayerCount: 2
Fore
SplineSet
42 1521 m 1,0,-1
 179 1521 l 1,1,-1
 367 627 l 1,2,-1
 367 1521 l 1,3,-1
 522 1521 l 1,4,-1
 522 1504 l 1,5,6
 509 1490 509 1490 505.5 1473 c 128,-1,7
 502 1456 502 1456 502 1414 c 2,8,-1
 502 0 l 1,9,-1
 386 0 l 1,10,-1
 179 962 l 1,11,-1
 179 0 l 1,12,-1
 42 0 l 1,13,-1
 42 1521 l 1,0,-1
EndSplineSet
EndChar

StartChar: Eng
Encoding: 330 330 117
Width: 512
VWidth: 2344
GlyphClass: 2
Flags: HW
AnchorPoint: "Anchor-2" 273 159 basechar 0
AnchorPoint: "Anchor-0" 273 1521 basechar 0
LayerCount: 2
Fore
SplineSet
374 1521 m 1,0,-1
 514 1521 l 1,1,2
 514 1508 514 1508 510.5 1497 c 128,-1,3
 507 1486 507 1486 507 1462 c 2,4,-1
 507 159 l 2,5,6
 507 -3 507 -3 482 -91.5 c 128,-1,7
 457 -180 457 -180 411 -213 c 128,-1,8
 365 -246 365 -246 311 -246 c 0,9,10
 284 -246 284 -246 258 -236 c 128,-1,11
 232 -226 232 -226 208 -200 c 1,12,-1
 254 -29 l 1,13,14
 269 -38 269 -38 273.5 -60 c 128,-1,15
 278 -82 278 -82 313 -82 c 0,16,17
 350 -82 350 -82 361 -18.5 c 128,-1,18
 372 45 372 45 374 207 c 1,19,-1
 184 1020 l 1,20,-1
 184 159 l 1,21,-1
 46 159 l 1,22,-1
 46 1521 l 1,23,-1
 157 1521 l 1,24,-1
 374 720 l 1,25,-1
 374 1521 l 1,0,-1
EndSplineSet
EndChar

StartChar: O
Encoding: 79 79 120
Width: 512
VWidth: 2441
GlyphClass: 2
Flags: HW
AnchorPoint: "Anchor-4" 265 762 basechar 0
AnchorPoint: "Anchor-3" 301 24 basechar 0
AnchorPoint: "Anchor-2" 265 0 basechar 0
AnchorPoint: "Anchor-1" 400 1426 basechar 0
AnchorPoint: "Anchor-0" 265 1521 basechar 0
LayerCount: 2
Fore
SplineSet
265 163 m 128,-1,1
 295 163 295 163 315 209.5 c 128,-1,2
 335 256 335 256 344.5 383 c 128,-1,3
 354 510 354 510 354 752 c 0,4,5
 354 984 354 984 344.5 1110.5 c 128,-1,6
 335 1237 335 1237 315 1288.5 c 128,-1,7
 295 1340 295 1340 265 1340 c 128,-1,8
 235 1340 235 1340 213.5 1288.5 c 128,-1,9
 192 1237 192 1237 183 1110 c 128,-1,10
 174 983 174 983 174 752 c 0,11,12
 174 510 174 510 183 383 c 128,-1,13
 192 256 192 256 213.5 209.5 c 128,-1,0
 235 163 235 163 265 163 c 128,-1,1
265 -27 m 128,-1,15
 182 -27 182 -27 128 40 c 128,-1,16
 74 107 74 107 49 277 c 128,-1,17
 24 447 24 447 24 752 c 0,18,19
 24 1050 24 1050 49 1219.5 c 128,-1,20
 74 1389 74 1389 128 1460 c 128,-1,21
 182 1531 182 1531 265 1531 c 128,-1,22
 348 1531 348 1531 401.5 1460 c 128,-1,23
 455 1389 455 1389 479.5 1219.5 c 128,-1,24
 504 1050 504 1050 504 752 c 0,25,26
 504 447 504 447 479.5 277 c 128,-1,27
 455 107 455 107 401.5 40 c 128,-1,14
 348 -27 348 -27 265 -27 c 128,-1,15
EndSplineSet
Substitution2: "Single Substitution lookup 29 subtable" ordmasculine
Substitution2: "'aalt' Access All Alternates in Latin lookup 0 subtable" ordmasculine
EndChar

StartChar: Oslash
Encoding: 216 216 148
Width: 512
VWidth: 2441
GlyphClass: 2
Flags: HW
AnchorPoint: "Anchor-4" 265 762 basechar 0
AnchorPoint: "Anchor-3" 301 24 basechar 0
AnchorPoint: "Anchor-2" 265 0 basechar 0
AnchorPoint: "Anchor-1" 400 1426 basechar 0
AnchorPoint: "Anchor-0" 265 1521 basechar 0
LayerCount: 2
Fore
SplineSet
265 163 m 0,0,1
 295 163 295 163 315 209.5 c 128,-1,2
 335 256 335 256 344.5 383 c 128,-1,3
 354 510 354 510 354 752 c 0,4,5
 354 882 354 882 352 976 c 1,6,-1
 202 252 l 1,7,8
 212 201 212 201 228 182 c 128,-1,9
 244 163 244 163 265 163 c 0,0,1
174 752 m 0,10,11
 174 645 174 645 176 564 c 1,12,-1
 322 1270 l 1,13,14
 303 1340 303 1340 265 1340 c 0,15,16
 235 1340 235 1340 213.5 1288.5 c 128,-1,17
 192 1237 192 1237 183 1110.5 c 128,-1,18
 174 984 174 984 174 752 c 0,10,11
127 -103 m 1,19,-1
 44 -63 l 1,20,-1
 85 126 l 1,21,22
 53 214 53 214 38.5 365.5 c 128,-1,23
 24 517 24 517 24 752 c 0,24,25
 24 1050 24 1050 49 1219.5 c 128,-1,26
 74 1389 74 1389 128 1460 c 128,-1,27
 182 1531 182 1531 265 1531 c 0,28,29
 326 1531 326 1531 368 1496 c 1,30,-1
 404 1665 l 1,31,-1
 485 1621 l 1,32,-1
 439 1391 l 1,33,34
 473 1303 473 1303 488.5 1148.5 c 128,-1,35
 504 994 504 994 504 752 c 0,36,37
 504 447 504 447 479.5 277 c 128,-1,38
 455 107 455 107 401.5 40 c 128,-1,39
 348 -27 348 -27 265 -27 c 0,40,41
 197 -27 197 -27 152 14 c 1,42,-1
 127 -103 l 1,19,-1
EndSplineSet
EndChar

StartChar: OE
Encoding: 338 338 154
Width: 512
VWidth: 2441
GlyphClass: 1
Flags: HW
LayerCount: 2
Fore
SplineSet
198 170 m 0,0,1
 231 170 231 170 238 329 c 1,2,-1
 238 1169 l 2,3,4
 236 1272 236 1272 224.5 1317.5 c 128,-1,5
 213 1363 213 1363 194 1363 c 0,6,7
 178 1363 178 1363 167.5 1316.5 c 128,-1,8
 157 1270 157 1270 150.5 1140.5 c 128,-1,9
 146.052631579 1051.89473684 146.052631579 1051.89473684 146.052631579 908.282548476 c 0,0,0
 146.052631579 842 146.052631579 842 147 764 c 0,10,11
 147 442 147 442 157 306 c 128,-1,12
 167 170 167 170 198 170 c 0,0,1
161 -17 m 0,13,14
 128 -17 128 -17 101 17 c 128,-1,15
 74 51 74 51 53 136.5 c 128,-1,16
 32 222 32 222 20.5 374.5 c 128,-1,17
 9 527 9 527 9 762 c 0,18,19
 9 1060 9 1060 27.5 1230 c 128,-1,20
 46 1400 46 1400 80.5 1471.5 c 128,-1,21
 115 1543 115 1543 161 1543 c 0,22,23
 211 1543 211 1543 240 1463 c 1,24,-1
 240 1523 l 1,25,-1
 489 1523 l 1,26,-1
 489 1330 l 1,27,-1
 375 1330 l 1,28,-1
 375 892 l 1,29,-1
 472 892 l 1,30,-1
 472 696 l 1,31,-1
 375 696 l 1,32,-1
 375 191 l 1,33,-1
 487 191 l 1,34,-1
 487 0 l 1,35,-1
 238 0 l 1,36,-1
 238 54 l 1,37,38
 228 15 228 15 207 -1 c 128,-1,39
 186 -17 186 -17 161 -17 c 0,13,14
EndSplineSet
EndChar

StartChar: P
Encoding: 80 80 155
Width: 512
VWidth: 2441
GlyphClass: 2
Flags: HW
AnchorPoint: "Anchor-2" 127 0 basechar 0
AnchorPoint: "Anchor-0" 283 1521 basechar 0
LayerCount: 2
Fore
SplineSet
213 825 m 1,0,-1
 272 825 l 2,1,2
 313 825 313 825 341 891 c 128,-1,3
 369 957 369 957 369 1074 c 0,4,5
 369 1209 369 1209 341 1268.5 c 128,-1,6
 313 1328 313 1328 272 1328 c 2,7,-1
 213 1328 l 1,8,-1
 213 825 l 1,0,-1
50 0 m 1,9,-1
 50 1521 l 1,10,-1
 279 1521 l 2,11,12
 402 1521 402 1521 466 1415 c 128,-1,13
 530 1309 530 1309 530 1079 c 0,14,15
 530 869 530 869 458.5 750.5 c 128,-1,16
 387 632 387 632 285 632 c 2,17,-1
 213 632 l 1,18,-1
 213 0 l 1,19,-1
 50 0 l 1,9,-1
EndSplineSet
EndChar

StartChar: Thorn
Encoding: 222 222 156
Width: 512
VWidth: 2441
GlyphClass: 1
Flags: HW
LayerCount: 2
Fore
SplineSet
201 554 m 1,0,-1
 273 554 l 2,1,2
 327 554 327 554 349 621.5 c 128,-1,3
 371 689 371 689 371 801 c 128,-1,4
 371 913 371 913 347 984 c 128,-1,5
 323 1055 323 1055 265 1055 c 2,6,-1
 201 1055 l 1,7,-1
 201 554 l 1,0,-1
46 0 m 1,8,-1
 46 1521 l 1,9,-1
 213 1521 l 2,10,11
 215 1519 215 1519 215 1514 c 0,12,13
 215 1507 215 1507 208 1491 c 128,-1,14
 201 1475 201 1475 201 1453 c 2,15,-1
 201 1255 l 1,16,-1
 288 1255 l 2,17,18
 400 1255 400 1255 463 1132 c 128,-1,19
 526 1009 526 1009 526 806 c 0,20,21
 526 594 526 594 460.5 480 c 128,-1,22
 395 366 395 366 273 366 c 2,23,-1
 201 366 l 1,24,-1
 201 0 l 1,25,-1
 46 0 l 1,8,-1
EndSplineSet
EndChar

StartChar: Q
Encoding: 81 81 157
Width: 512
VWidth: 2391
GlyphClass: 2
Flags: HW
AnchorPoint: "Anchor-2" 265 83 basechar 0
AnchorPoint: "Anchor-0" 265 1522 basechar 0
LayerCount: 2
Fore
SplineSet
269 242 m 0,0,1
 313 242 313 242 333.5 360 c 128,-1,2
 354 478 354 478 354 762 c 0,3,4
 354 995 354 995 343.5 1124.5 c 128,-1,5
 333 1254 333 1254 313 1304.5 c 128,-1,6
 293 1355 293 1355 265 1355 c 128,-1,7
 237 1355 237 1355 217 1306.5 c 128,-1,8
 197 1258 197 1258 186.5 1143 c 128,-1,9
 176 1028 176 1028 176 830 c 0,10,11
 176 608 176 608 186.5 478.5 c 128,-1,12
 197 349 197 349 217 295.5 c 128,-1,13
 237 242 237 242 269 242 c 0,0,1
424 -245 m 1,14,15
 412.48447205 -246.00621118 412.48447205 -246.00621118 401.537672158 -246.00621118 c 0,16,17
 314.571428571 -246.00621118 314.571428571 -246.00621118 263.5 -182.5 c 0,18,19
 206 -111 206 -111 206 67 c 1,20,21
 147 95 147 95 106 171 c 128,-1,22
 65 247 65 247 44.5 396 c 128,-1,23
 24 545 24 545 24 795 c 0,24,25
 24 1026 24 1026 43.5 1171.5 c 128,-1,26
 63 1317 63 1317 97 1396.5 c 128,-1,27
 131 1476 131 1476 174.5 1507 c 128,-1,28
 218 1538 218 1538 265 1538 c 0,29,30
 314 1538 314 1538 357 1507 c 128,-1,31
 400 1476 400 1476 433.5 1396.5 c 128,-1,32
 467 1317 467 1317 485.5 1172.5 c 128,-1,33
 504 1028 504 1028 504 801 c 0,34,35
 504 550 504 550 486.5 395 c 128,-1,36
 469 240 469 240 431.5 164 c 128,-1,37
 394 88 394 88 337 67 c 1,38,39
 341 -10 341 -10 355.5 -46.5 c 128,-1,40
 370 -83 370 -83 407 -83 c 2,41,-1
 469 -78 l 1,42,-1
 467 -245 l 1,43,-1
 424 -245 l 1,14,15
EndSplineSet
EndChar

StartChar: R
Encoding: 82 82 158
Width: 512
VWidth: 2441
GlyphClass: 2
Flags: HW
AnchorPoint: "Anchor-2" 288 0 basechar 0
AnchorPoint: "Anchor-0" 288 1521 basechar 0
LayerCount: 2
Fore
SplineSet
222 830 m 1,0,-1
 277 830 l 2,1,2
 312 830 312 830 335.5 886.5 c 128,-1,3
 359 943 359 943 359 1084 c 0,4,5
 359 1226 359 1226 335 1277 c 128,-1,6
 311 1328 311 1328 277 1328 c 2,7,-1
 222 1328 l 1,8,-1
 222 830 l 1,0,-1
60 0 m 1,9,-1
 60 1521 l 1,10,-1
 263 1521 l 2,11,12
 519 1521 519 1521 519 1084 c 0,13,14
 519 898 519 898 489.5 806.5 c 128,-1,15
 460 715 460 715 397 674 c 1,16,-1
 540 0 l 1,17,-1
 388 0 l 1,18,-1
 254 650 l 1,19,-1
 222 650 l 1,20,-1
 222 0 l 1,21,-1
 60 0 l 1,9,-1
EndSplineSet
EndChar

StartChar: S
Encoding: 83 83 166
Width: 512
VWidth: 2441
GlyphClass: 2
Flags: HW
AnchorPoint: "Anchor-2" 279 0 basechar 0
AnchorPoint: "Anchor-0" 294 1521 basechar 0
LayerCount: 2
Fore
SplineSet
270 -24 m 0,0,1
 190 -24 190 -24 137 9 c 128,-1,2
 84 42 84 42 43 107 c 1,3,-1
 97 333 l 1,4,-1
 102 356 l 1,5,-1
 117 352 l 1,6,7
 125.486486486 335.96996997 125.486486486 335.96996997 125.486486486 303.374726077 c 0,8,9
 125.486486486 274.054054054 125.486486486 274.054054054 143 240 c 1,10,11
 191 167 191 167 255 166 c 0,12,13
 307 166 307 166 334 228.5 c 128,-1,14
 361 291 361 291 361 405 c 0,15,16
 361 491 361 491 347 558 c 128,-1,17
 333 625 333 625 251 706 c 1,18,19
 156 792 156 792 114.5 898 c 128,-1,20
 73 1004 73 1004 73 1150 c 0,21,22
 73 1346 73 1346 135 1443 c 128,-1,23
 197 1540 197 1540 296 1540 c 0,24,25
 439 1540 439 1540 508 1404 c 1,26,-1
 467 1204 l 1,27,-1
 462 1179 l 1,28,-1
 449 1181 l 1,29,30
 438 1198 438 1198 437.5 1229 c 128,-1,31
 437 1260 437 1260 417 1293 c 0,32,33
 395 1325 395 1325 370.5 1336 c 128,-1,34
 346 1347 346 1347 322 1347 c 0,35,36
 234 1347 234 1347 233 1162 c 0,37,38
 233 1067 233 1067 257 995 c 128,-1,39
 281 923 281 923 367 845 c 0,40,41
 453 764 453 764 488 658 c 128,-1,42
 523 552 523 552 523 429 c 0,43,44
 523 210 523 210 447.5 93 c 128,-1,45
 372 -24 372 -24 270 -24 c 0,0,1
EndSplineSet
EndChar

StartChar: uni1E9E
Encoding: 7838 7838 177
Width: 512
VWidth: 2441
GlyphClass: 1
Flags: HW
LayerCount: 2
Fore
SplineSet
331 -19 m 0,0,1
 270 -19 270 -19 225 27 c 1,2,-1
 246 212 l 1,3,4
 270 173 270 173 299 173 c 0,5,6
 336 173 336 173 351 244 c 128,-1,7
 366 315 366 315 366 464 c 0,8,9
 366 611 366 611 347.5 687.5 c 128,-1,10
 329 764 329 764 270 764 c 2,11,-1
 248 764 l 1,12,-1
 248 967 l 1,13,-1
 345 1223 l 1,14,15
 345 1316 345 1316 329.5 1377 c 128,-1,16
 314 1438 314 1438 268 1438 c 0,17,18
 229 1438 229 1438 211.5 1376 c 128,-1,19
 194 1314 194 1314 194 1160 c 2,20,-1
 194 0 l 1,21,-1
 44 0 l 1,22,-1
 44 1128 l 2,23,24
 44 1338 44 1338 75 1447 c 128,-1,25
 106 1556 106 1556 159 1594.5 c 128,-1,26
 212 1633 212 1633 270 1633 c 0,27,28
 370 1633 370 1633 428 1528 c 128,-1,29
 486 1423 486 1423 486 1189 c 1,30,-1
 370 932 l 1,31,32
 453 888 453 888 488.5 763 c 128,-1,33
 524 638 524 638 524 442 c 0,34,35
 524 195 524 195 474.5 88 c 128,-1,36
 425 -19 425 -19 331 -19 c 0,0,1
EndSplineSet
EndChar

StartChar: T
Encoding: 84 84 179
Width: 512
VWidth: 2441
GlyphClass: 2
Flags: HW
AnchorPoint: "Anchor-4" 262 762 basechar 0
AnchorPoint: "Anchor-2" 268 0 basechar 0
AnchorPoint: "Anchor-0" 268 1521 basechar 0
LayerCount: 2
Fore
SplineSet
184 0 m 1,0,-1
 184 1330 l 1,1,-1
 26 1330 l 1,2,-1
 26 1523 l 1,3,-1
 506 1523 l 1,4,-1
 506 1330 l 1,5,-1
 342 1330 l 1,6,-1
 342 0 l 1,7,-1
 184 0 l 1,0,-1
EndSplineSet
EndChar

StartChar: Tbar
Encoding: 358 358 180
Width: 512
VWidth: 2441
GlyphClass: 2
Flags: HW
AnchorPoint: "Anchor-4" 262 762 basechar 0
AnchorPoint: "Anchor-2" 268 0 basechar 0
AnchorPoint: "Anchor-0" 268 1521 basechar 0
LayerCount: 2
Fore
SplineSet
184 0 m 1,0,-1
 184 678 l 1,1,-1
 86 678 l 1,2,-1
 86 871 l 1,3,-1
 184 871 l 1,4,-1
 184 1330 l 1,5,-1
 26 1330 l 1,6,-1
 26 1523 l 1,7,-1
 506 1523 l 1,8,-1
 506 1330 l 1,9,-1
 342 1330 l 1,10,-1
 342 871 l 1,11,-1
 440 871 l 1,12,-1
 440 678 l 1,13,-1
 342 678 l 1,14,-1
 342 0 l 1,15,-1
 184 0 l 1,0,-1
EndSplineSet
EndChar

StartChar: U
Encoding: 85 85 186
Width: 512
VWidth: 2441
GlyphClass: 2
Flags: HW
AnchorPoint: "Anchor-3" 345 24 basechar 0
AnchorPoint: "Anchor-2" 286 0 basechar 0
AnchorPoint: "Anchor-1" 519 1521 basechar 0
AnchorPoint: "Anchor-0" 286 1521 basechar 0
LayerCount: 2
Fore
SplineSet
288 -27 m 0,0,1
 142 -27 142 -27 95 96 c 128,-1,2
 48 219 48 219 48 476 c 2,3,-1
 48 1521 l 1,4,-1
 233 1521 l 1,5,-1
 233 1504 l 1,6,7
 220 1490 220 1490 216 1473 c 128,-1,8
 212 1456 212 1456 212 1414 c 2,9,-1
 212 473 l 2,10,11
 212 307 212 307 228 235 c 128,-1,12
 244 163 244 163 288 163 c 0,13,14
 334 163 334 163 349 245 c 128,-1,15
 364 327 364 327 364 480 c 2,16,-1
 364 1521 l 1,17,-1
 528 1521 l 1,18,-1
 528 484 l 2,19,20
 528 203 528 203 475.5 88 c 128,-1,21
 423 -27 423 -27 288 -27 c 0,0,1
EndSplineSet
EndChar

StartChar: V
Encoding: 86 86 209
Width: 512
VWidth: 2441
GlyphClass: 2
Flags: HW
AnchorPoint: "Anchor-2" 261 0 basechar 0
AnchorPoint: "Anchor-0" 261 1521 basechar 0
LayerCount: 2
Fore
SplineSet
206 -10 m 1,0,-1
 23 1523 l 1,1,-1
 170 1523 l 1,2,-1
 270 525 l 1,3,-1
 359 1521 l 1,4,-1
 503 1521 l 1,5,-1
 323 -10 l 1,6,-1
 206 -10 l 1,0,-1
EndSplineSet
EndChar

StartChar: W
Encoding: 87 87 210
Width: 512
VWidth: 2441
GlyphClass: 2
Flags: HW
AnchorPoint: "Anchor-2" 245 0 basechar 0
AnchorPoint: "Anchor-0" 251 1521 basechar 0
LayerCount: 2
Fore
SplineSet
93 0 m 1,0,-1
 3 1521 l 1,1,-1
 121 1521 l 1,2,-1
 157 676 l 1,3,-1
 217 1321 l 1,4,-1
 283 1321 l 1,5,-1
 345 674 l 1,6,-1
 371 1521 l 1,7,-1
 483 1521 l 1,8,-1
 393 0 l 1,9,-1
 319 0 l 1,10,-1
 247 778 l 1,11,-1
 171 0 l 1,12,-1
 93 0 l 1,0,-1
EndSplineSet
EndChar

StartChar: X
Encoding: 88 88 215
Width: 512
VWidth: 2441
GlyphClass: 2
Flags: HW
AnchorPoint: "Anchor-2" 278 0 basechar 0
AnchorPoint: "Anchor-0" 278 1521 basechar 0
LayerCount: 2
Fore
SplineSet
42 0 m 1,0,-1
 189 776 l 1,1,-1
 46 1523 l 1,2,-1
 189 1523 l 1,3,-1
 278 1028 l 1,4,-1
 368 1523 l 1,5,-1
 500 1523 l 1,6,-1
 366 778 l 1,7,-1
 522 0 l 1,8,-1
 381 0 l 1,9,-1
 278 520 l 1,10,-1
 179 0 l 1,11,-1
 42 0 l 1,0,-1
EndSplineSet
EndChar

StartChar: Y
Encoding: 89 89 216
Width: 512
VWidth: 2441
GlyphClass: 2
Flags: HW
AnchorPoint: "Anchor-2" 273 0 basechar 0
AnchorPoint: "Anchor-0" 265 1521 basechar 0
LayerCount: 2
Fore
SplineSet
200 0 m 1,0,-1
 200 547 l 1,1,-1
 26 1521 l 1,2,-1
 174 1521 l 1,3,-1
 273 874 l 1,4,-1
 364 1521 l 1,5,-1
 506 1521 l 1,6,-1
 346 547 l 1,7,-1
 346 0 l 1,8,-1
 200 0 l 1,0,-1
EndSplineSet
EndChar

StartChar: Z
Encoding: 90 90 226
Width: 512
VWidth: 2441
GlyphClass: 2
Flags: HW
AnchorPoint: "Anchor-2" 301 0 basechar 0
AnchorPoint: "Anchor-0" 290 1521 basechar 0
LayerCount: 2
Fore
SplineSet
47 110 m 1,0,-1
 331 1328 l 1,1,-1
 60 1328 l 1,2,-1
 60 1521 l 1,3,-1
 514 1521 l 1,4,-1
 514 1411 l 1,5,-1
 230 193 l 1,6,-1
 429 193 l 2,7,8
 465 193 465 193 482 198 c 128,-1,9
 499 203 499 203 512 217 c 1,10,-1
 527 217 l 1,11,-1
 527 0 l 1,12,-1
 47 0 l 1,13,-1
 47 110 l 1,0,-1
EndSplineSet
EndChar

StartChar: a
Encoding: 97 97 232
Width: 512
VWidth: 2441
GlyphClass: 2
Flags: HW
AnchorPoint: "Anchor-3" 471 0 basechar 0
AnchorPoint: "Anchor-2" 247 0 basechar 0
AnchorPoint: "Anchor-0" 292 1097 basechar 0
LayerCount: 2
Fore
SplineSet
192 337 m 0,0,1
 192 262 192 262 211.5 209 c 128,-1,2
 231 156 231 156 266 156 c 0,3,4
 316 156 316 156 339 241.5 c 128,-1,5
 362 327 362 327 364 525 c 1,6,7
 346 527 346 527 323 527 c 0,8,9
 262 527 262 527 227 484.5 c 128,-1,10
 192 442 192 442 192 337 c 0,0,1
224 -27 m 0,11,12
 135 -27 135 -27 87 71.5 c 128,-1,13
 39 170 39 170 39 312 c 0,14,15
 39 534 39 534 117.5 624.5 c 128,-1,16
 196 715 196 715 316 715 c 0,17,18
 336 715 336 715 362 710 c 1,19,20
 360 824 360 824 350 883.5 c 128,-1,21
 340 943 340 943 319.5 963 c 128,-1,22
 299 983 299 983 266 983 c 0,23,24
 227 983 227 983 200.5 963 c 128,-1,25
 174 943 174 943 146 899 c 1,26,-1
 70 1025 l 1,27,28
 102 1081 102 1081 153.5 1121.5 c 128,-1,29
 205 1162 205 1162 290 1162 c 128,-1,30
 375 1162 375 1162 424 1118 c 128,-1,31
 473 1074 473 1074 496 952 c 128,-1,32
 519 830 519 830 519 594 c 2,33,-1
 519 0 l 1,34,-1
 366 0 l 1,35,-1
 366 114 l 1,36,37
 344 31 344 31 307 2 c 128,-1,38
 270 -27 270 -27 224 -27 c 0,11,12
EndSplineSet
Substitution2: "Single Substitution lookup 29 subtable" ordfeminine
Substitution2: "'aalt' Access All Alternates in Latin lookup 0 subtable" ordfeminine
EndChar

StartChar: ae
Encoding: 230 230 257
Width: 512
VWidth: 2441
GlyphClass: 1
Flags: HW
LayerCount: 2
Fore
SplineSet
144 137 m 0,0,1
 180 137 180 137 181 243 c 128,-1,2
 182 349 182 349 182 517 c 1,3,4
 142 512 142 512 128 461 c 128,-1,5
 114 410 114 410 114 298 c 0,6,7
 114 217 114 217 120.5 177 c 128,-1,8
 127 137 127 137 144 137 c 0,0,1
292 696 m 1,9,-1
 364 703 l 1,10,11
 364 847 364 847 357 910.5 c 128,-1,12
 350 974 350 974 332 974 c 0,13,14
 310 974 310 974 301 907 c 128,-1,15
 292 840 292 840 292 696 c 1,9,-1
130 -27 m 0,16,17
 60 -27 60 -27 29.5 68 c 128,-1,18
 -1 163 -1 163 -1 300 c 0,19,20
 -1 432 -1 432 14 510.5 c 128,-1,21
 29 589 29 589 68.5 629 c 128,-1,22
 108 669 108 669 182 683 c 1,23,24
 182 842 182 842 171 908 c 128,-1,25
 160 974 160 974 128 974 c 0,26,27
 88 974 88 974 63 913 c 1,28,-1
 23 1042 l 1,29,30
 63 1140 63 1140 134 1140 c 0,31,32
 172 1140 172 1140 200.5 1103.5 c 128,-1,33
 229 1067 229 1067 243 1016 c 1,34,35
 253 1072 253 1072 285.5 1106 c 128,-1,36
 318 1140 318 1140 348 1140 c 0,37,38
 416 1140 416 1140 445.5 1019.5 c 128,-1,39
 475 899 475 899 475 640 c 2,40,-1
 475 552 l 1,41,-1
 292 538 l 1,42,-1
 292 427 l 2,43,44
 292 285 292 285 312 210 c 128,-1,45
 332 135 332 135 372 135 c 0,46,47
 396 135 396 135 412 151.5 c 128,-1,48
 428 168 428 168 437 193 c 1,49,-1
 479 63 l 1,50,51
 439.434782609 -27.0108695652 439.434782609 -27.0108695652 367.583057656 -27.0108695652 c 0,52,53
 366.793478261 -27.0108695652 366.793478261 -27.0108695652 366 -27 c 0,54,55
 334 -27 334 -27 294 4 c 128,-1,56
 254 35 254 35 237 91 c 1,57,58
 202 -27 202 -27 130 -27 c 0,16,17
EndSplineSet
EndChar

StartChar: b
Encoding: 98 98 259
Width: 512
VWidth: 2441
GlyphClass: 2
Flags: HW
AnchorPoint: "Anchor-2" 534 0 basechar 0
AnchorPoint: "Anchor-0" 534 1116 basechar 0
LayerCount: 2
Fore
SplineSet
284 161 m 0,0,1
 315 161 315 161 334.5 184 c 128,-1,2
 354 207 354 207 363.5 292.5 c 128,-1,3
 373 378 373 378 373 559 c 0,4,5
 373 729 373 729 363.5 820 c 128,-1,6
 354 911 354 911 334.5 946 c 128,-1,7
 315 981 315 981 284 981 c 0,8,9
 247 981 247 981 218 883.5 c 128,-1,10
 189 786 189 786 189 554 c 0,11,12
 189 330 189 330 212.5 245.5 c 128,-1,13
 236 161 236 161 284 161 c 0,0,1
313 -27 m 0,14,15
 267 -27 267 -27 231 11 c 128,-1,16
 195 49 195 49 182 132 c 1,17,-1
 172 0 l 1,18,-1
 41 0 l 1,19,-1
 41 1624 l 1,20,-1
 207 1624 l 1,21,-1
 207 1607 l 1,22,23
 196 1593 196 1593 192.5 1575.5 c 128,-1,24
 189 1558 189 1558 189 1516 c 2,25,-1
 189 988 l 1,26,27
 208 1083 208 1083 253 1122.5 c 128,-1,28
 298 1162 298 1162 332 1162 c 0,29,30
 392 1162 392 1162 434 1118 c 128,-1,31
 476 1074 476 1074 498.5 946 c 128,-1,32
 521 818 521 818 521 569 c 0,33,34
 521 378 521 378 504.5 261 c 128,-1,35
 488 144 488 144 460 81.5 c 128,-1,36
 432 19 432 19 394 -4 c 128,-1,37
 356 -27 356 -27 313 -27 c 0,14,15
EndSplineSet
EndChar

StartChar: c
Encoding: 99 99 261
Width: 512
VWidth: 2441
GlyphClass: 2
Flags: HW
AnchorPoint: "Anchor-2" 331 0 basechar 0
AnchorPoint: "Anchor-0" 331 1140 basechar 0
LayerCount: 2
Fore
SplineSet
347 -27 m 0,0,1
 203 -27 203 -27 130.5 112.5 c 128,-1,2
 58 252 58 252 58 566 c 0,3,4
 58 790 58 790 96.5 920 c 128,-1,5
 135 1050 135 1050 197.5 1106 c 128,-1,6
 260 1162 260 1162 333 1162 c 0,7,8
 482 1162 482 1162 538 1009 c 1,9,-1
 487 848 l 1,10,-1
 480 823 l 1,11,-1
 466 830 l 1,12,13
 459 847 459 847 457.5 870.5 c 128,-1,14
 456 894 456 894 436 923 c 1,15,16
 401 962 401 962 356 962 c 0,17,18
 323 962 323 962 291.5 931.5 c 128,-1,19
 260 901 260 901 240 816.5 c 128,-1,20
 220 732 220 732 220 566 c 0,21,22
 220 407 220 407 237 318.5 c 128,-1,23
 254 230 254 230 285.5 193 c 128,-1,24
 317 156 317 156 356 156 c 0,25,26
 428 156 428 156 475 254 c 1,27,-1
 524 81 l 1,28,29
 461 -27 461 -27 347 -27 c 0,0,1
EndSplineSet
EndChar

StartChar: d
Encoding: 100 100 268
Width: 512
VWidth: 2441
GlyphClass: 2
Flags: HW
AnchorPoint: "Anchor-4" 393 1340 basechar 0
AnchorPoint: "Anchor-2" 274 0 basechar 0
AnchorPoint: "Anchor-1" 511 1116 basechar 0
AnchorPoint: "Anchor-0" 274 1116 basechar 0
LayerCount: 2
Fore
SplineSet
255 163 m 0,0,1
 347.010638298 163 347.010638298 163 347.010638298 555.513467632 c 0,2,3
 347.010638298 559.734042553 347.010638298 559.734042553 347 564 c 0,4,5
 347 786 347 786 324.5 883.5 c 128,-1,6
 302 981 302 981 265 981 c 0,7,8
 239 981 239 981 219.5 949.5 c 128,-1,9
 200 918 200 918 190.5 835 c 128,-1,10
 181 752 181 752 181 596 c 0,11,12
 181 423 181 423 190.5 329 c 128,-1,13
 200 235 200 235 218 199 c 128,-1,14
 236 163 236 163 255 163 c 0,0,1
220 -24 m 0,15,16
 179 -24 179 -24 145.5 -1.5 c 128,-1,17
 112 21 112 21 87 85 c 128,-1,18
 62 149 62 149 48.5 266.5 c 128,-1,19
 35 384 35 384 35 569 c 0,20,21
 35 809 35 809 57.5 937 c 128,-1,22
 80 1065 80 1065 122 1113.5 c 128,-1,23
 164 1162 164 1162 222 1162 c 0,24,25
 329 1162 329 1162 347 999 c 1,26,-1
 347 1624 l 1,27,-1
 515 1624 l 1,28,-1
 515 1607 l 1,29,30
 502 1593 502 1593 499 1575.5 c 128,-1,31
 496 1558 496 1558 496 1516 c 2,32,-1
 496 173 l 2,33,34
 496 129 496 129 497 86.5 c 128,-1,35
 498 44 498 44 506 0 c 1,36,-1
 362 0 l 1,37,38
 354 30 354 30 348.5 59 c 128,-1,39
 343 88 343 88 343 132 c 1,40,41
 326 62 326 62 290.5 19 c 128,-1,42
 255 -24 255 -24 220 -24 c 0,15,16
EndSplineSet
EndChar

StartChar: eth
Encoding: 240 240 269
Width: 512
VWidth: 2441
GlyphClass: 1
Flags: HW
LayerCount: 2
Fore
SplineSet
282 156 m 0,0,1
 309 156 309 156 329 189 c 128,-1,2
 349 222 349 222 358.5 310 c 128,-1,3
 368 398 368 398 368 566 c 0,4,5
 368 764 368 764 344 864 c 128,-1,6
 320 964 320 964 280 964 c 0,7,8
 232 962 232 962 207.5 874 c 128,-1,9
 183 786 183 786 183 566 c 0,10,11
 183 342 183 342 208.5 249 c 128,-1,12
 234 156 234 156 282 156 c 0,0,1
282 -30 m 0,13,14
 219 -30 219 -30 162 18 c 128,-1,15
 105 66 105 66 70.5 190.5 c 128,-1,16
 36 315 36 315 36 545 c 0,17,18
 36 771 36 771 65.5 901.5 c 128,-1,19
 95 1032 95 1032 143.5 1086 c 128,-1,20
 192 1140 192 1140 249 1140 c 0,21,22
 282 1140 282 1140 309.5 1124.5 c 128,-1,23
 337 1109 337 1109 355 1072 c 1,24,25
 342 1135 342 1135 324.5 1194 c 128,-1,26
 307 1253 307 1253 282 1307 c 1,27,-1
 187 1253 l 1,28,-1
 128 1389 l 1,29,-1
 231 1442 l 1,30,31
 206 1488 206 1488 185 1529 c 128,-1,32
 164 1570 164 1570 132 1601 c 1,33,-1
 271 1643 l 1,34,35
 293 1611 293 1611 311.5 1580.5 c 128,-1,36
 330 1550 330 1550 353 1504 c 1,37,-1
 448 1560 l 1,38,-1
 500 1416 l 1,39,-1
 410 1365 l 1,40,41
 448 1274 448 1274 471 1171.5 c 128,-1,42
 494 1069 494 1069 505 936 c 128,-1,43
 516 803 516 803 516 617 c 0,44,45
 516 351 516 351 487 212 c 128,-1,46
 458 73 458 73 406.5 21.5 c 128,-1,47
 355 -30 355 -30 282 -30 c 0,13,14
EndSplineSet
EndChar

StartChar: dcaron
Encoding: 271 271 270
Width: 512
VWidth: 2441
GlyphClass: 1
Flags: HW
LayerCount: 2
Fore
SplineSet
176 161 m 0,0,1
 242 161 242 161 242 561 c 0,2,3
 242 787 242 787 226.5 886.5 c 128,-1,4
 211 986 211 986 189 986 c 0,5,6
 175 986 175 986 162.5 958 c 128,-1,7
 150 930 150 930 144 847 c 128,-1,8
 138 764 138 764 138 601 c 0,9,10
 138 420 138 420 142 326 c 128,-1,11
 146 232 146 232 155 196.5 c 128,-1,12
 164 161 164 161 176 161 c 0,0,1
142 -24 m 0,13,14
 113 -24 113 -24 90 -3.5 c 128,-1,15
 67 17 67 17 49.5 78 c 128,-1,16
 32 139 32 139 22 256 c 128,-1,17
 12 373 12 373 12 566 c 0,18,19
 12 815 12 815 26 943.5 c 128,-1,20
 40 1072 40 1072 69.5 1118.5 c 128,-1,21
 99 1165 99 1165 144 1165 c 0,22,23
 195 1165 195 1165 216.5 1124.5 c 128,-1,24
 238 1084 238 1084 242 994 c 1,25,-1
 242 1621 l 1,26,-1
 386 1621 l 1,27,-1
 386 1605 l 1,28,29
 374 1591 374 1591 371 1572 c 128,-1,30
 368 1553 368 1553 368 1514 c 2,31,-1
 368 1184 l 1,32,33
 384 1238 384 1238 394.5 1286.5 c 128,-1,34
 405 1335 405 1335 405 1374 c 0,35,36
 405 1420 405 1420 395.5 1446 c 128,-1,37
 387.652173913 1467.47826087 387.652173913 1467.47826087 387.652173913 1512.84120983 c 0,0,0
 387.652173913 1522.39130435 387.652173913 1522.39130435 388 1533 c 0,38,39
 390 1577 390 1577 404 1604 c 128,-1,40
 418 1631 418 1631 439 1631 c 0,41,42
 492 1631 492 1631 492 1504 c 0,43,44
 492 1429 492 1429 477.5 1331 c 128,-1,45
 463 1233 463 1233 424 1111 c 1,46,-1
 368 1146 l 1,47,-1
 368 179 l 2,48,49
 368 133 368 133 369 88.5 c 128,-1,50
 370 44 370 44 376 0 c 1,51,-1
 253 0 l 1,52,53
 247 27 247 27 241.5 57.5 c 128,-1,54
 236 88 236 88 236 132 c 1,55,56
 224 62 224 62 194.5 19 c 128,-1,57
 165 -24 165 -24 142 -24 c 0,13,14
EndSplineSet
EndChar

StartChar: e
Encoding: 101 101 274
Width: 512
VWidth: 2441
GlyphClass: 2
Flags: HW
AnchorPoint: "Anchor-3" 377 24 basechar 0
AnchorPoint: "Anchor-2" 336 0 basechar 0
AnchorPoint: "Anchor-0" 290 1116 basechar 0
LayerCount: 2
Fore
SplineSet
203 685 m 1,0,-1
 362 685 l 1,1,2
 362 839 362 839 350 906.5 c 128,-1,3
 338 974 338 974 288 974 c 0,4,5
 247 974 247 974 228.5 909 c 128,-1,6
 210 844 210 844 203 685 c 1,0,-1
308 -24 m 0,7,8
 177 -24 177 -24 108 106.5 c 128,-1,9
 39 237 39 237 39 554 c 0,10,11
 39 780 39 780 66.5 914 c 128,-1,12
 94 1048 94 1048 151 1105 c 128,-1,13
 208 1162 208 1162 292 1162 c 0,14,15
 372 1162 372 1162 422.5 1107.5 c 128,-1,16
 473 1053 473 1053 496 924.5 c 128,-1,17
 519 796 519 796 519 576 c 0,18,19
 519 552 519 552 519 536 c 128,-1,20
 519 520 519 520 517 501 c 1,21,-1
 199 501 l 1,22,23
 203 303 203 303 229.5 234.5 c 128,-1,24
 256 166 256 166 316 163 c 0,25,26
 357 163 357 163 382 191 c 128,-1,27
 407 219 407 219 425 261 c 1,28,-1
 506 126 l 1,29,30
 476 63 476 63 425 19.5 c 128,-1,31
 374 -24 374 -24 308 -24 c 0,7,8
EndSplineSet
EndChar

StartChar: uni029A
Encoding: 666 666 296
Width: 512
VWidth: 2441
GlyphClass: 1
Flags: HW
LayerCount: 2
Fore
SplineSet
271 166 m 0,0,1
 307 166 307 166 326.5 200.5 c 128,-1,2
 346 235 346 235 354 321.5 c 128,-1,3
 362 408 362 408 362 561 c 0,4,5
 362 793 362 793 343 883.5 c 128,-1,6
 324 974 324 974 281 974 c 0,7,8
 254 974 254 974 240 928.5 c 128,-1,9
 226 883 226 883 226 827 c 0,10,11
 226 693.97080292 226 693.97080292 271.637753743 693.97080292 c 0,0,0
 272.313868613 693.97080292 272.313868613 693.97080292 273 694 c 0,12,13
 280 694 280 694 286 694 c 128,-1,14
 292 694 292 694 299 696 c 1,15,-1
 299 498 l 1,16,17
 288 500 288 500 279.5 502.5 c 128,-1,18
 271 505 271 505 260 505 c 0,19,20
 238 505 238 505 217 467 c 128,-1,21
 196 429 196 429 196 335 c 0,22,23
 196 256 196 256 216.5 211 c 128,-1,24
 237 166 237 166 271 166 c 0,0,1
266 -19 m 0,25,26
 161 -17 161 -17 99.5 75.5 c 128,-1,27
 38 168 38 168 38 349 c 0,28,29
 38 452 38 452 66 523 c 128,-1,30
 94 594 94 594 139 615 c 1,31,32
 70 698 70 698 69 840 c 0,33,34
 69 991 69 991 131.5 1065.5 c 128,-1,35
 194 1140 194 1140 275 1140 c 0,36,37
 400 1140 400 1140 459 1004.5 c 128,-1,38
 518 869 518 869 518 559 c 0,39,40
 518 240 518 240 454.5 109.5 c 128,-1,41
 391.958490566 -19.0301886792 391.958490566 -19.0301886792 269.759572802 -19.0301886792 c 0,0,0
 267.886792453 -19.0301886792 267.886792453 -19.0301886792 266 -19 c 0,25,26
EndSplineSet
EndChar

StartChar: f
Encoding: 102 102 300
Width: 512
VWidth: 2441
GlyphClass: 1
Flags: HW
LayerCount: 2
Fore
SplineSet
126 955 m 1,0,-1
 26 955 l 1,1,-1
 26 1135 l 1,2,-1
 126 1135 l 1,3,-1
 126 1209 l 2,4,5
 126 1433 126 1433 191.5 1535.5 c 128,-1,6
 257 1638 257 1638 335 1638 c 0,7,8
 379 1638 379 1638 430.5 1606.5 c 128,-1,9
 482 1575 482 1575 506 1507 c 1,10,-1
 466 1347 l 1,11,-1
 456 1323 l 1,12,-1
 442 1330 l 1,13,14
 436 1347 436 1347 432 1371.5 c 128,-1,15
 428 1396 428 1396 404 1426 c 0,16,17
 385 1450 385 1450 354 1451 c 0,18,19
 320 1451 320 1451 295.5 1393 c 128,-1,20
 271 1335 271 1335 271 1209 c 2,21,-1
 271 1135 l 1,22,-1
 406 1135 l 1,23,-1
 406 955 l 1,24,-1
 271 955 l 1,25,-1
 271 0 l 1,26,-1
 126 0 l 1,27,-1
 126 955 l 1,0,-1
EndSplineSet
EndChar

StartChar: g
Encoding: 103 103 301
Width: 512
VWidth: 2301
GlyphClass: 2
Flags: HW
AnchorPoint: "Anchor-2" 276 -225 basechar 0
AnchorPoint: "Anchor-0" 247 1122 basechar 0
LayerCount: 2
Fore
SplineSet
165 34 m 0,0,1
 165 -94 165 -94 259 -94 c 0,2,3
 305 -94 305 -94 329 -52.5 c 128,-1,4
 353 -11 353 -11 353 43 c 0,5,6
 353 115 353 115 331 141 c 128,-1,7
 309 167 309 167 276 167 c 0,8,9
 252 167 252 167 231.5 168 c 128,-1,10
 211 169 211 169 190 173 c 1,11,12
 165 119 165 119 165 34 c 0,0,1
249 613 m 0,13,14
 285 613 285 613 292 659.5 c 128,-1,15
 299 706 299 706 299 813 c 0,16,17
 299 919 299 919 292 966 c 128,-1,18
 285 1013 285 1013 249 1013 c 0,19,20
 217 1013 217 1013 208 966 c 128,-1,21
 199 919 199 919 199 813 c 128,-1,22
 199 707 199 707 208 660 c 128,-1,23
 217 613 217 613 249 613 c 0,13,14
249 464 m 0,24,25
 225 464 225 464 207 470 c 1,26,27
 199 453 199 453 192.5 437 c 128,-1,28
 186 421 186 421 186 404 c 0,29,30
 186 365 186 365 212 347.5 c 128,-1,31
 238 330 238 330 312 330 c 0,32,33
 406 330 406 330 446 265 c 128,-1,34
 486 200 486 200 486 61 c 0,35,36
 486 -67 486 -67 430.5 -156.5 c 128,-1,37
 375 -246 375 -246 259 -246 c 0,38,39
 141 -246 141 -246 84 -184.5 c 128,-1,40
 27 -123 27 -123 27 17 c 0,41,42
 27 91 27 91 44.5 143 c 128,-1,43
 62 195 62 195 91 230 c 1,44,45
 57.7692307692 272.461538462 57.7692307692 272.461538462 57.7692307692 353.266272189 c 0,46,47
 57.7692307692 360 57.7692307692 360 58 367 c 0,48,49
 60 408 60 408 75.5 449.5 c 128,-1,50
 91 491 91 491 115 528 c 1,51,52
 55 611 55 611 54 813 c 0,53,54
 54 994 54 994 106.5 1081.5 c 128,-1,55
 159 1169 159 1169 249 1169 c 128,-1,56
 339 1169 339 1169 389 1087 c 1,57,58
 413 1126 413 1126 440 1144.5 c 128,-1,59
 467 1163 467 1163 500 1159 c 1,60,-1
 507 1004 l 1,61,62
 500 1005.33333333 500 1005.33333333 493.222222222 1005.33333333 c 0,63,64
 459.333333333 1005.33333333 459.333333333 1005.33333333 431 972 c 1,65,66
 443 905 443 905 444 813 c 0,67,68
 444 622 444 622 386.5 543 c 128,-1,69
 329 464 329 464 249 464 c 0,24,25
EndSplineSet
EndChar

StartChar: h
Encoding: 104 104 308
Width: 512
VWidth: 2441
GlyphClass: 2
Flags: HW
AnchorPoint: "Anchor-4" 154 1340 basechar 0
AnchorPoint: "Anchor-2" 297 0 basechar 0
AnchorPoint: "Anchor-0" 140 1624 basechar 0
LayerCount: 2
Fore
SplineSet
59 1624 m 1,0,-1
 245 1624 l 1,1,-1
 245 1607 l 1,2,3
 231 1593 231 1593 227.5 1575.5 c 128,-1,4
 224 1558 224 1558 224 1516 c 2,5,-1
 224 972 l 1,6,7
 247 1072 247 1072 290 1117 c 128,-1,8
 333 1162 333 1162 392 1162 c 0,9,10
 475 1162 475 1162 507 1063 c 128,-1,11
 539 964 539 964 539 706 c 2,12,-1
 539 0 l 1,13,-1
 376 0 l 1,14,-1
 376 701 l 2,15,16
 376 855 376 855 365 911 c 128,-1,17
 354 967 354 967 320 967 c 0,18,19
 279 967 279 967 251.5 886.5 c 128,-1,20
 224 806 224 806 224 643 c 2,21,-1
 224 0 l 1,22,-1
 59 0 l 1,23,-1
 59 1624 l 1,0,-1
EndSplineSet
EndChar

StartChar: i
Encoding: 105 105 313
Width: 512
VWidth: 2441
GlyphClass: 2
Flags: HW
AnchorPoint: "Anchor-3" 424 0 basechar 0
AnchorPoint: "Anchor-2" 308 0 basechar 0
AnchorPoint: "Anchor-0" 308 1496 basechar 0
LayerCount: 2
Fore
SplineSet
86 0 m 1,0,-1
 86 186 l 1,1,-1
 230 186 l 1,2,-1
 230 952 l 1,3,-1
 93 952 l 1,4,-1
 93 1135 l 1,5,-1
 396 1135 l 1,6,-1
 396 186 l 1,7,-1
 525 186 l 1,8,-1
 525 0 l 1,9,-1
 86 0 l 1,0,-1
305 1372 m 128,-1,11
 259 1372 259 1372 223.5 1408.5 c 128,-1,12
 188 1445 188 1445 188 1494 c 0,13,14
 188 1545 188 1545 222 1580.5 c 128,-1,15
 256 1616 256 1616 305 1616 c 0,16,17
 351 1616 351 1616 385.5 1580.5 c 128,-1,18
 420 1545 420 1545 420 1494 c 0,19,20
 420 1445 420 1445 385.5 1408.5 c 128,-1,10
 351 1372 351 1372 305 1372 c 128,-1,11
EndSplineSet
Substitution2: "'locl' Localized Forms in Latin lookup 18 subtable" i.loclTRK
Substitution2: "'locl' Localized Forms in Latin lookup 17 subtable" i.loclTRK
Substitution2: "'locl' Localized Forms in Latin lookup 16 subtable" i.loclTRK
Substitution2: "'locl' Localized Forms in Latin lookup 15 subtable" i.loclTRK
Substitution2: "'locl' Localized Forms in Latin lookup 14 subtable" i.loclTRK
Substitution2: "Single Substitution lookup 4 subtable" dotlessi
Substitution2: "Single Substitution lookup 3 subtable" dotlessi
AlternateSubs2: "'aalt' Access All Alternates in Latin lookup 1 subtable" dotlessi i.loclTRK
EndChar

StartChar: dotlessi
Encoding: 305 305 314
Width: 512
VWidth: 2441
GlyphClass: 2
Flags: HW
AnchorPoint: "Anchor-3" 424 0 basechar 0
AnchorPoint: "Anchor-2" 308 0 basechar 0
AnchorPoint: "Anchor-0" 308 1135 basechar 0
LayerCount: 2
Fore
SplineSet
86 0 m 1,0,-1
 86 186 l 1,1,-1
 230 186 l 1,2,-1
 230 952 l 1,3,-1
 93 952 l 1,4,-1
 93 1135 l 1,5,-1
 396 1135 l 1,6,-1
 396 186 l 1,7,-1
 525 186 l 1,8,-1
 525 0 l 1,9,-1
 86 0 l 1,0,-1
EndSplineSet
EndChar

StartChar: j
Encoding: 106 106 329
Width: 512
VWidth: 2367
GlyphClass: 2
Flags: HW
AnchorPoint: "Anchor-2" 296 -282 basechar 0
AnchorPoint: "Anchor-0" 374 1507 basechar 0
LayerCount: 2
Fore
SplineSet
212 -246 m 0,0,1
 163 -246 163 -246 113.5 -225 c 128,-1,2
 64 -204 64 -204 29 -164 c 1,3,-1
 85 -1 l 1,4,-1
 91 21 l 1,5,-1
 104 16 l 1,6,7
 111 -1 111 -1 116 -19 c 128,-1,8
 121 -37 121 -37 143 -59 c 1,9,10
 160 -70 160 -70 177 -72.5 c 128,-1,11
 194 -75 194 -75 210 -75 c 0,12,13
 255 -75 255 -75 272 -13.5 c 128,-1,14
 289 48 289 48 289 182 c 2,15,-1
 289 1008 l 1,16,-1
 100 1008 l 1,17,-1
 100 1177 l 1,18,-1
 444 1177 l 1,19,-1
 444 190 l 2,20,21
 444 20 444 20 413.5 -74.5 c 128,-1,22
 383 -169 383 -169 332 -207.5 c 128,-1,23
 281 -246 281 -246 212 -246 c 0,0,1
372 1393 m 128,-1,25
 330 1393 330 1393 297.5 1426.5 c 128,-1,26
 265 1460 265 1460 265 1504 c 0,27,28
 265 1551 265 1551 296 1583.5 c 128,-1,29
 327 1616 327 1616 372 1616 c 0,30,31
 414 1616 414 1616 445 1583.5 c 128,-1,32
 476 1551 476 1551 476 1504 c 0,33,34
 476 1459 476 1459 445 1426 c 128,-1,24
 414 1393 414 1393 372 1393 c 128,-1,25
EndSplineSet
Substitution2: "Single Substitution lookup 4 subtable" uni0237
Substitution2: "Single Substitution lookup 3 subtable" uni0237
Substitution2: "'aalt' Access All Alternates in Latin lookup 0 subtable" uni0237
EndChar

StartChar: uni0237
Encoding: 567 567 330
Width: 512
VWidth: 2290
GlyphClass: 2
Flags: HW
AnchorPoint: "Anchor-2" 287 -281 basechar 0
AnchorPoint: "Anchor-0" 363 1135 basechar 0
LayerCount: 2
Fore
SplineSet
206 -246 m 0,0,1
 158 -246 158 -246 110 -225.5 c 128,-1,2
 62 -205 62 -205 29 -167 c 1,3,-1
 82 -8 l 1,4,-1
 89 13 l 1,5,-1
 101 8 l 1,6,7
 107 -9 107 -9 112 -26 c 128,-1,8
 117 -43 117 -43 138 -64 c 1,9,10
 155 -75 155 -75 171.5 -77.5 c 128,-1,11
 188 -80 188 -80 204 -80 c 0,12,13
 247 -80 247 -80 264 -20.5 c 128,-1,14
 281 39 281 39 281 169 c 2,15,-1
 281 971 l 1,16,-1
 97 971 l 1,17,-1
 97 1135 l 1,18,-1
 431 1135 l 1,19,-1
 431 177 l 2,20,21
 431 12 431 12 401.5 -79.5 c 128,-1,22
 372 -171 372 -171 322.5 -208.5 c 128,-1,23
 273 -246 273 -246 206 -246 c 0,0,1
EndSplineSet
EndChar

StartChar: k
Encoding: 107 107 332
Width: 512
VWidth: 2441
GlyphClass: 2
Flags: HW
AnchorPoint: "Anchor-2" 269 0 basechar 0
AnchorPoint: "Anchor-0" 112 1624 basechar 0
LayerCount: 2
Fore
SplineSet
220 461 m 1,0,-1
 191 378 l 1,1,-1
 189 0 l 1,2,-1
 41 0 l 1,3,-1
 41 1624 l 1,4,-1
 209 1624 l 1,5,-1
 209 1607 l 1,6,7
 196 1593 196 1593 192.5 1575.5 c 128,-1,8
 189 1558 189 1558 189 1516 c 2,9,-1
 189 640 l 1,10,-1
 370 1146 l 1,11,12
 387 1139 387 1139 412 1133.5 c 128,-1,13
 437 1128 437 1128 460 1128 c 2,14,-1
 501 1128 l 1,15,-1
 320 620 l 1,16,-1
 521 0 l 1,17,-1
 368 -10 l 1,18,-1
 220 461 l 1,0,-1
EndSplineSet
EndChar

StartChar: kgreenlandic
Encoding: 312 312 334
Width: 512
VWidth: 2441
GlyphClass: 2
Flags: HW
AnchorPoint: "Anchor-2" 267 0 basechar 0
AnchorPoint: "Anchor-0" 109 1116 basechar 0
LayerCount: 2
Fore
SplineSet
220 461 m 1,0,-1
 191 378 l 1,1,-1
 189 0 l 1,2,-1
 41 0 l 1,3,-1
 41 1135 l 1,4,-1
 209 1135 l 1,5,-1
 209 1118 l 1,6,7
 196 1104 196 1104 192.5 1086.5 c 128,-1,8
 189 1069 189 1069 189 1028 c 2,9,-1
 189 640 l 1,10,-1
 370 1146 l 1,11,12
 387 1139 387 1139 412 1133.5 c 128,-1,13
 437 1128 437 1128 460 1128 c 2,14,-1
 501 1128 l 1,15,-1
 320 620 l 1,16,-1
 521 0 l 1,17,-1
 368 -10 l 1,18,-1
 220 461 l 1,0,-1
EndSplineSet
EndChar

StartChar: l
Encoding: 108 108 335
Width: 512
VWidth: 2441
GlyphClass: 2
Flags: HW
AnchorPoint: "Anchor-4" 308 559 basechar 0
AnchorPoint: "Anchor-2" 308 0 basechar 0
AnchorPoint: "Anchor-1" 589 1116 basechar 0
AnchorPoint: "Anchor-0" 308 1624 basechar 0
LayerCount: 2
Fore
SplineSet
68 0 m 1,0,-1
 68 188 l 1,1,-1
 224 188 l 1,2,-1
 224 1435 l 1,3,-1
 75 1435 l 1,4,-1
 75 1624 l 1,5,-1
 393 1624 l 1,6,-1
 393 188 l 1,7,-1
 545 188 l 1,8,-1
 545 0 l 1,9,-1
 68 0 l 1,0,-1
EndSplineSet
EndChar

StartChar: ldot
Encoding: 320 320 339
Width: 512
VWidth: 2441
GlyphClass: 1
Flags: HW
LayerCount: 2
Fore
SplineSet
426 691 m 128,-1,1
 382 691 382 691 350 727.5 c 128,-1,2
 318 764 318 764 318 815 c 0,3,4
 318 869 318 869 350 906 c 128,-1,5
 382 943 382 943 426 943 c 128,-1,6
 470 943 470 943 502.5 906 c 128,-1,7
 535 869 535 869 535 815 c 0,8,9
 535 764 535 764 502.5 727.5 c 128,-1,0
 470 691 470 691 426 691 c 128,-1,1
55 0 m 1,10,-1
 55 188 l 1,11,-1
 164 188 l 1,12,-1
 164 1435 l 1,13,-1
 63 1435 l 1,14,-1
 63 1624 l 1,15,-1
 316 1624 l 1,16,-1
 316 188 l 1,17,-1
 462 188 l 1,18,-1
 459 0 l 1,19,-1
 55 0 l 1,10,-1
EndSplineSet
EndChar

StartChar: uni01C9
Encoding: 457 457 341
Width: 512
VWidth: 2368
GlyphClass: 1
Flags: HW
LayerCount: 2
Fore
SplineSet
265 -246 m 0,0,1
 220 -246 220 -246 179 -219.5 c 128,-1,2
 138 -193 138 -193 115 -157 c 1,3,-1
 167 33 l 1,4,5
 177 24 177 24 177 14.5 c 128,-1,6
 177 5 177 5 182 -10.5 c 128,-1,7
 187 -26 187 -26 214 -50 c 0,8,9
 226 -61 226 -61 237.5 -65 c 128,-1,10
 249 -69 249 -69 263 -69 c 0,11,12
 308 -69 308 -69 326.5 -16 c 128,-1,13
 345 37 345 37 345 182 c 2,14,-1
 345 1009 l 1,15,-1
 245 1009 l 1,16,-1
 245 1177 l 1,17,-1
 475 1177 l 1,18,-1
 475 190 l 2,19,20
 475 20 475 20 449.5 -74.5 c 128,-1,21
 424 -169 424 -169 376 -206.5 c 128,-1,22
 328 -244 328 -244 265 -246 c 0,0,1
399 1377 m 128,-1,24
 360 1377 360 1377 330 1410 c 128,-1,25
 300 1443 300 1443 300 1488 c 0,26,27
 300 1535 300 1535 328.5 1567 c 128,-1,28
 357 1599 357 1599 399 1599 c 0,29,30
 438 1599 438 1599 467 1566.5 c 128,-1,31
 496 1534 496 1534 496 1488 c 0,32,33
 496 1443 496 1443 467 1410 c 128,-1,23
 438 1377 438 1377 399 1377 c 128,-1,24
16 141 m 1,34,-1
 18 313 l 1,35,-1
 74 313 l 1,36,-1
 74 1452 l 1,37,-1
 25 1452 l 1,38,-1
 22 1624 l 1,39,-1
 202 1624 l 1,40,-1
 202 313 l 1,41,-1
 292 313 l 1,42,-1
 292 141 l 1,43,-1
 16 141 l 1,34,-1
EndSplineSet
EndChar

StartChar: lslash
Encoding: 322 322 343
Width: 512
VWidth: 2441
GlyphClass: 1
Flags: HW
LayerCount: 2
Fore
SplineSet
83 0 m 1,0,-1
 83 188 l 1,1,-1
 222 188 l 1,2,-1
 222 617 l 1,3,-1
 149 557 l 1,4,-1
 149 811 l 1,5,-1
 222 871 l 1,6,-1
 222 1435 l 1,7,-1
 91 1435 l 1,8,-1
 91 1624 l 1,9,-1
 391 1624 l 1,10,-1
 391 967 l 1,11,-1
 478 1035 l 1,12,-1
 478 778 l 1,13,-1
 391 708 l 1,14,-1
 391 188 l 1,15,-1
 532 188 l 1,16,-1
 529 0 l 1,17,-1
 83 0 l 1,0,-1
EndSplineSet
EndChar

StartChar: m
Encoding: 109 109 344
Width: 512
VWidth: 2441
GlyphClass: 2
Flags: HW
AnchorPoint: "Anchor-2" 277 0 basechar 0
AnchorPoint: "Anchor-0" 530 1116 basechar 0
LayerCount: 2
Fore
SplineSet
30 0 m 1,0,-1
 30 1135 l 1,1,-1
 143 1135 l 1,2,-1
 143 1025 l 1,3,4
 156 1086 156 1086 174 1124 c 128,-1,5
 192 1162 192 1162 222 1162 c 0,6,7
 254 1162 254 1162 272.5 1117 c 128,-1,8
 291 1072 291 1072 297 999 c 1,9,10
 310 1072 310 1072 336.5 1117 c 128,-1,11
 363 1162 363 1162 399 1162 c 0,12,13
 448 1162 448 1162 480.5 1083 c 0,14,15
 510.253521127 1010.67605634 510.253521127 1010.67605634 510.253521127 881.35945249 c 0,16,17
 510.253521127 869.422535211 510.253521127 869.422535211 510 857 c 2,18,-1
 510 0 l 1,19,-1
 385 0 l 1,20,-1
 385 820 l 2,21,22
 385 932 385 932 380 964.5 c 128,-1,23
 375 997 375 997 365 997 c 0,24,25
 341 997 341 997 333.5 934 c 128,-1,26
 326 871 326 871 326 767 c 2,27,-1
 326 0 l 1,28,-1
 214 0 l 1,29,-1
 214 806 l 2,30,31
 214 920 214 920 209.5 957 c 128,-1,32
 205 994 205 994 192 994 c 0,33,34
 177 994 177 994 166.5 941 c 128,-1,35
 156 888 156 888 156 774 c 2,36,-1
 156 0 l 1,37,-1
 30 0 l 1,0,-1
EndSplineSet
EndChar

StartChar: n
Encoding: 110 110 346
Width: 512
VWidth: 2441
GlyphClass: 2
Flags: HW
AnchorPoint: "Anchor-2" 308 0 basechar 0
AnchorPoint: "Anchor-0" 315 1116 basechar 0
LayerCount: 2
Fore
SplineSet
59 0 m 1,0,-1
 59 1135 l 1,1,-1
 224 1135 l 1,2,-1
 224 972 l 1,3,4
 247 1060 247 1060 286.5 1111 c 128,-1,5
 326 1162 326 1162 380 1162 c 0,6,7
 432 1162 432 1162 467.5 1130.5 c 128,-1,8
 503 1099 503 1099 521 1006 c 128,-1,9
 539 913 539 913 539 730 c 2,10,-1
 539 0 l 1,11,-1
 376 0 l 1,12,-1
 376 725 l 2,13,14
 376 869 376 869 363.5 918 c 128,-1,15
 351 967 351 967 323 967 c 0,16,17
 285 967 285 967 254.5 891 c 128,-1,18
 224 815 224 815 224 666 c 2,19,-1
 224 0 l 1,20,-1
 59 0 l 1,0,-1
EndSplineSet
EndChar

StartChar: eng
Encoding: 331 331 352
Width: 512
VWidth: 2292
GlyphClass: 1
Flags: HW
LayerCount: 2
Fore
SplineSet
283 -246 m 0,0,1
 255 -246 255 -246 216 -232.5 c 128,-1,2
 177 -219 177 -219 153 -188 c 1,3,-1
 190 -27 l 1,4,5
 201 -29 201 -29 205.5 -42.5 c 128,-1,6
 210 -56 210 -56 219.5 -70.5 c 128,-1,7
 229 -85 229 -85 260 -85 c 0,8,9
 314 -85 314 -85 328 -10.5 c 128,-1,10
 342 64 342 64 342 231 c 2,11,-1
 342 728 l 2,12,13
 342 888 342 888 331 938.5 c 128,-1,14
 320 989 320 989 294 989 c 0,15,16
 257 989 257 989 230.5 916 c 128,-1,17
 204 843 204 843 204 702 c 2,18,-1
 204 134 l 1,19,-1
 54 134 l 1,20,-1
 54 1138 l 1,21,-1
 204 1138 l 1,22,-1
 204 993 l 1,23,24
 228 1084 228 1084 256.5 1123 c 128,-1,25
 285 1162 285 1162 342 1162 c 0,26,27
 385 1162 385 1162 418 1126.5 c 128,-1,28
 451 1091 451 1091 471 997 c 128,-1,29
 491 903 491 903 491 732 c 2,30,-1
 491 255 l 2,31,32
 491 67 491 67 467 -42 c 128,-1,33
 443 -151 443 -151 398 -198.5 c 128,-1,34
 353 -246 353 -246 283 -246 c 0,0,1
EndSplineSet
EndChar

StartChar: o
Encoding: 111 111 355
Width: 512
VWidth: 2441
GlyphClass: 2
Flags: HW
AnchorPoint: "Anchor-4" 272 559 basechar 0
AnchorPoint: "Anchor-3" 306 24 basechar 0
AnchorPoint: "Anchor-2" 272 0 basechar 0
AnchorPoint: "Anchor-1" 388 1065 basechar 0
AnchorPoint: "Anchor-0" 272 1116 basechar 0
LayerCount: 2
Fore
SplineSet
272 166 m 128,-1,1
 321 166 321 166 341.5 256.5 c 128,-1,2
 362 347 362 347 362 564 c 0,3,4
 362 788 362 788 341.5 881 c 128,-1,5
 321 974 321 974 272 974 c 0,6,7
 225 974 225 974 202 881.5 c 128,-1,8
 179 789 179 789 179 564 c 0,9,10
 179 347 179 347 201 256.5 c 128,-1,0
 223 166 223 166 272 166 c 128,-1,1
272 -19 m 128,-1,12
 198 -19 198 -19 144.5 32 c 128,-1,13
 91 83 91 83 61 209 c 128,-1,14
 31 335 31 335 31 559 c 0,15,16
 31 796 31 796 61 926.5 c 128,-1,17
 91 1057 91 1057 144.5 1109.5 c 128,-1,18
 198 1162 198 1162 272 1162 c 128,-1,19
 346 1162 346 1162 399.5 1109.5 c 128,-1,20
 453 1057 453 1057 482 926.5 c 128,-1,21
 511 796 511 796 511 559 c 0,22,23
 511 335 511 335 482 209 c 128,-1,24
 453 83 453 83 399.5 32 c 128,-1,11
 346 -19 346 -19 272 -19 c 128,-1,12
EndSplineSet
Substitution2: "Single Substitution lookup 29 subtable" ordmasculine
Substitution2: "'aalt' Access All Alternates in Latin lookup 0 subtable" ordmasculine
EndChar

StartChar: oslash
Encoding: 248 248 383
Width: 512
VWidth: 2441
GlyphClass: 2
Flags: HW
AnchorPoint: "Anchor-4" 272 559 basechar 0
AnchorPoint: "Anchor-3" 306 24 basechar 0
AnchorPoint: "Anchor-2" 272 0 basechar 0
AnchorPoint: "Anchor-1" 388 1065 basechar 0
AnchorPoint: "Anchor-0" 272 1116 basechar 0
LayerCount: 2
Fore
SplineSet
272 166 m 0,0,1
 321 166 321 166 341.5 256.5 c 128,-1,2
 362 347 362 347 362 564 c 0,3,4
 362 645 362 645 360 703 c 1,5,-1
 233 184 l 1,6,7
 251 166 251 166 272 166 c 0,0,1
179 564 m 0,8,9
 179 491 179 491 181 437 c 1,10,-1
 308 957 l 1,11,12
 293 974 293 974 272 974 c 0,13,14
 225 974 225 974 202 881 c 128,-1,15
 179 788 179 788 179 564 c 0,8,9
160 -119 m 1,16,-1
 56 -75 l 1,17,-1
 99 95 l 1,18,19
 66 161 66 161 48.5 275 c 128,-1,20
 31 389 31 389 31 559 c 0,21,22
 31 796 31 796 61 926.5 c 128,-1,23
 91 1057 91 1057 144.5 1109.5 c 128,-1,24
 198 1162 198 1162 272 1162 c 0,25,26
 317 1162 317 1162 354 1146 c 1,27,-1
 381 1260 l 1,28,-1
 485 1216 l 1,29,-1
 442 1045 l 1,30,31
 477 977 477 977 494 860 c 128,-1,32
 511 743 511 743 511 559 c 0,33,34
 511 335 511 335 482 209 c 128,-1,35
 453 83 453 83 399 32 c 128,-1,36
 345 -19 345 -19 272 -19 c 0,37,38
 225 -19 225 -19 187 -2 c 1,39,-1
 160 -119 l 1,16,-1
EndSplineSet
EndChar

StartChar: oe
Encoding: 339 339 389
Width: 512
VWidth: 2441
GlyphClass: 1
Flags: HW
LayerCount: 2
Fore
SplineSet
148 139 m 0,0,1
 159 139 159 139 170 156 c 128,-1,2
 181 173 181 173 181 217 c 0,3,4
 181 222 181 222 180 235.5 c 128,-1,5
 179 249 179 249 178 273 c 0,6,7
 167 446 167 446 165 581 c 0,8,9
 165 723 165 723 170.5 795 c 128,-1,10
 176 867 176 867 176 883 c 0,11,12
 176 929 176 929 170.5 955 c 128,-1,13
 165 981 165 981 146 981 c 0,14,15
 133 981 133 981 123 949.5 c 128,-1,16
 113 918 113 918 106 831.5 c 128,-1,17
 99 745 99 745 99 583 c 0,18,19
 99 402 99 402 105 306 c 128,-1,20
 111 210 111 210 122 174.5 c 128,-1,21
 133 139 133 139 148 139 c 0,0,1
275 694 m 1,22,-1
 363 694 l 1,23,24
 363 867 363 867 356.5 930.5 c 128,-1,25
 350 994 350 994 320 994 c 128,-1,26
 290 994 290 994 282.5 923.5 c 128,-1,27
 275 853 275 853 275 694 c 1,22,-1
352 -30 m 0,28,29
 313 -30 313 -30 282 -9 c 128,-1,30
 251 12 251 12 236 46 c 1,31,32
 219 11 219 11 195.5 -8 c 128,-1,33
 172 -27 172 -27 138 -27 c 0,34,35
 110 -27 110 -27 85 -4 c 128,-1,36
 60 19 60 19 39.5 80.5 c 128,-1,37
 19 142 19 142 6 256.5 c 128,-1,38
 -7 371 -7 371 -7 557 c 0,39,40
 -7 783 -7 783 10.5 911 c 128,-1,41
 28 1039 28 1039 62.5 1092.5 c 128,-1,42
 97 1146 97 1146 146 1146 c 0,43,44
 176 1146 176 1146 198.5 1126 c 128,-1,45
 221 1106 221 1106 238 1060 c 1,46,47
 257 1106 257 1106 282 1126 c 128,-1,48
 307 1146 307 1146 336 1146 c 0,49,50
 399 1146 399 1146 433 1048 c 128,-1,51
 467 950 467 950 467 691 c 2,52,-1
 467 525 l 1,53,-1
 273 525 l 1,54,55
 275 359 275 359 282.5 273.5 c 128,-1,56
 290 188 290 188 307 160 c 128,-1,57
 324 132 324 132 352 132 c 0,58,59
 407 132 407 132 436 226 c 1,60,-1
 473 79 l 1,61,62
 423 -30 423 -30 352 -30 c 0,28,29
EndSplineSet
EndChar

StartChar: p
Encoding: 112 112 390
Width: 512
VWidth: 2307
GlyphClass: 2
Flags: HW
AnchorPoint: "Anchor-2" 289 120 basechar 0
AnchorPoint: "Anchor-0" 289 1137 basechar 0
LayerCount: 2
Fore
SplineSet
289 258 m 0,0,1
 316 258 316 258 334.5 282 c 128,-1,2
 353 306 353 306 362.5 383.5 c 128,-1,3
 372 461 372 461 372 621 c 0,4,5
 372 778 372 778 364.5 859.5 c 128,-1,6
 357 941 357 941 339.5 970.5 c 128,-1,7
 322 1000 322 1000 291 1000 c 0,8,9
 247 1000 247 1000 218.5 897 c 128,-1,10
 190 794 190 794 190 586 c 0,11,12
 192 454 192 454 206.5 383 c 128,-1,13
 221 312 221 312 242.5 285 c 128,-1,14
 264 258 264 258 289 258 c 0,0,1
44 -246 m 1,15,-1
 44 1137 l 1,16,-1
 195 1137 l 1,17,-1
 195 1006 l 1,18,19
 212 1077 212 1077 245 1118.5 c 128,-1,20
 278 1160 278 1160 328 1160 c 0,21,22
 368 1160 368 1160 403 1142.5 c 128,-1,23
 438 1125 438 1125 465.5 1070.5 c 128,-1,24
 493 1016 493 1016 508 909.5 c 128,-1,25
 523 803 523 803 523 627 c 0,26,27
 523 416 523 416 501.5 300.5 c 128,-1,28
 480 185 480 185 436 139 c 128,-1,29
 392 93 392 93 326 93 c 0,30,31
 230 93 230 93 195 238 c 1,32,-1
 195 -246 l 1,33,-1
 44 -246 l 1,15,-1
EndSplineSet
EndChar

StartChar: thorn
Encoding: 254 254 391
Width: 512
VWidth: 2374
GlyphClass: 1
Flags: HW
LayerCount: 2
Fore
SplineSet
289 271 m 0,0,1
 316 271 316 271 335 295.5 c 128,-1,2
 354 320 354 320 363.5 399.5 c 128,-1,3
 373 479 373 479 373 644 c 0,4,5
 373 805 373 805 365.5 888.5 c 128,-1,6
 358 972 358 972 340 1002 c 128,-1,7
 322 1032 322 1032 291 1032 c 0,8,9
 247 1032 247 1032 219 927 c 128,-1,10
 191 822 191 822 191 608 c 0,11,12
 193 473 193 473 207.5 400 c 128,-1,13
 222 327 222 327 243 299 c 128,-1,14
 264 271 264 271 289 271 c 0,0,1
44 1624 m 1,15,-1
 215 1624 l 1,16,-1
 215 1608 l 1,17,18
 202 1595 202 1595 198.5 1579 c 128,-1,19
 195 1563 195 1563 195 1525 c 2,20,-1
 195 1039 l 1,21,22
 212 1111 212 1111 245.5 1154 c 128,-1,23
 279 1197 279 1197 329 1197 c 0,24,25
 369 1197 369 1197 404 1179 c 128,-1,26
 439 1161 439 1161 466.5 1105 c 128,-1,27
 494 1049 494 1049 509 939.5 c 128,-1,28
 524 830 524 830 524 650 c 0,29,30
 524 434 524 434 502.5 315 c 128,-1,31
 481 196 481 196 437 149 c 128,-1,32
 393 102 393 102 327 102 c 0,33,34
 231 102 231 102 195 251 c 1,35,-1
 195 -246 l 1,36,-1
 44 -246 l 1,37,-1
 44 1624 l 1,15,-1
EndSplineSet
EndChar

StartChar: q
Encoding: 113 113 392
Width: 512
VWidth: 2308
GlyphClass: 1
Flags: HW
LayerCount: 2
Fore
SplineSet
267 264 m 0,0,1
 313 264 313 264 334 346.5 c 128,-1,2
 355 429 355 429 355 648 c 0,3,4
 355 854 355 854 332 929 c 128,-1,5
 309 1004 309 1004 267 1004 c 0,6,7
 238 1004 238 1004 219.5 971.5 c 128,-1,8
 201 939 201 939 192.5 857.5 c 128,-1,9
 184 776 184 776 184 630 c 0,10,11
 184 488 184 488 192.5 408 c 128,-1,12
 201 328 201 328 219.5 296 c 128,-1,13
 238 264 238 264 267 264 c 0,0,1
357 -246 m 1,14,-1
 357 238 l 1,15,16
 336 155 336 155 307 125 c 128,-1,17
 280.636363636 97.7272727273 280.636363636 97.7272727273 236.917355372 97.7272727273 c 0,0,0
 232.545454545 97.7272727273 232.545454545 97.7272727273 228 98 c 0,18,19
 121 102 121 102 76 229 c 128,-1,20
 31 356 31 356 31 624 c 0,21,22
 31 848 31 848 57 963.5 c 128,-1,23
 83 1079 83 1079 129 1122 c 128,-1,24
 175 1165 175 1165 234 1165 c 0,25,26
 286 1165 286 1165 315 1125.5 c 128,-1,27
 344 1086 344 1086 359 1006 c 1,28,-1
 359 1138 l 1,29,-1
 508 1138 l 1,30,-1
 508 -246 l 1,31,-1
 357 -246 l 1,14,-1
EndSplineSet
EndChar

StartChar: r
Encoding: 114 114 393
Width: 512
VWidth: 2441
GlyphClass: 2
Flags: HW
AnchorPoint: "Anchor-2" 287 0 basechar 0
AnchorPoint: "Anchor-0" 316 1116 basechar 0
LayerCount: 2
Fore
SplineSet
53 1135 m 1,0,-1
 208 1135 l 1,1,-1
 208 979 l 1,2,3
 230 1074 230 1074 279.5 1119.5 c 0,4,5
 325.93814433 1162.18556701 325.93814433 1162.18556701 371.936231268 1162.18556701 c 0,6,7
 374.969072165 1162.18556701 374.969072165 1162.18556701 378 1162 c 0,8,9
 435 1162 435 1162 472.5 1123 c 128,-1,10
 510 1084 510 1084 533 1020 c 1,11,-1
 470 869 l 1,12,-1
 464 848 l 1,13,-1
 451 852 l 1,14,15
 442 871 442 871 437.5 894.5 c 128,-1,16
 433 918 433 918 409 948 c 1,17,18
 382 975 382 975 356 974 c 0,19,20
 323 974 323 974 289 946 c 128,-1,21
 255 918 255 918 230 840 c 128,-1,22
 205 762 205 762 205 606 c 2,23,-1
 205 -2 l 1,24,-1
 53 -2 l 1,25,-1
 53 1135 l 1,0,-1
EndSplineSet
EndChar

StartChar: uni027B
Encoding: 635 635 399
Width: 512
VWidth: 2285
GlyphClass: 1
Flags: HW
LayerCount: 2
Fore
SplineSet
398 -246 m 0,0,1
 357 -246 357 -246 318.5 -220 c 128,-1,2
 280 -194 280 -194 257.5 -131 c 128,-1,3
 235 -68 235 -68 235 46 c 2,4,-1
 237 225 l 1,5,6
 223 165 223 165 192 137.5 c 128,-1,7
 161 110 161 110 131 110 c 0,8,9
 98 110 98 110 68.5 124.5 c 128,-1,10
 39 139 39 139 12 188 c 1,11,-1
 43 360 l 1,12,-1
 47 383 l 1,13,-1
 55 379 l 1,14,15
 61 366 61 366 61.5 349 c 128,-1,16
 62 332 62 332 72 315 c 0,17,18
 103 270 103 270 134 270 c 0,19,20
 181 270 181 270 208 341 c 128,-1,21
 235 412 235 412 235 597 c 2,22,-1
 235 1137 l 1,23,-1
 377 1137 l 1,24,-1
 377 46 l 2,25,26
 377 -30 377 -30 385 -65 c 128,-1,27
 393 -100 393 -100 418 -100 c 0,28,29
 438 -100 438 -100 451 -83 c 0,30,31
 457 -72 457 -72 459 -60 c 128,-1,32
 461 -48 461 -48 471 -44 c 1,33,-1
 492 -194 l 1,34,35
 472 -224 472 -224 448.5 -235 c 128,-1,36
 425 -246 425 -246 398 -246 c 0,0,1
EndSplineSet
EndChar

StartChar: uni024D
Encoding: 589 589 402
Width: 512
VWidth: 2441
GlyphClass: 2
Flags: HW
AnchorPoint: "Anchor-2" 275 0 basechar 0
AnchorPoint: "Anchor-0" 302 1116 basechar 0
LayerCount: 2
Fore
SplineSet
30 408 m 1,0,-1
 30 598 l 1,1,-1
 51 598 l 1,2,-1
 51 1135 l 1,3,-1
 199 1135 l 1,4,-1
 199 979 l 1,5,6
 220 1074 220 1074 267.5 1119.5 c 0,7,8
 312.06185567 1162.18556701 312.06185567 1162.18556701 355.303539165 1162.18556701 c 0,9,10
 358.154639175 1162.18556701 358.154639175 1162.18556701 361 1162 c 0,11,12
 416 1162 416 1162 452 1123 c 128,-1,13
 488 1084 488 1084 510 1020 c 1,14,-1
 450 869 l 1,15,-1
 444 848 l 1,16,-1
 431 852 l 1,17,18
 423 871 423 871 418.5 894.5 c 128,-1,19
 414 918 414 918 391 948 c 1,20,21
 365 975 365 975 341 974 c 0,22,23
 309 974 309 974 276.5 946 c 128,-1,24
 244 918 244 918 220 840 c 128,-1,25
 196 762 196 762 196 606 c 2,26,-1
 196 598 l 1,27,-1
 343 598 l 1,28,-1
 343 408 l 1,29,-1
 196 408 l 1,30,-1
 196 -2 l 1,31,-1
 51 -2 l 1,32,-1
 51 408 l 1,33,-1
 30 408 l 1,0,-1
EndSplineSet
EndChar

StartChar: s
Encoding: 115 115 403
Width: 512
VWidth: 2441
GlyphClass: 1
Flags: HW
LayerCount: 2
Fore
SplineSet
271 -24 m 0,0,1
 189 -24 189 -24 134 3 c 128,-1,2
 79 30 79 30 45 63 c 1,3,-1
 103 230 l 1,4,-1
 110 254 l 1,5,-1
 123 247 l 1,6,7
 132 230 132 230 142.5 213 c 128,-1,8
 153 196 153 196 184 173 c 0,9,10
 218 152 218 152 260 151 c 0,11,12
 301 151 301 151 327 199 c 128,-1,13
 353 247 353 247 353 315 c 0,14,15
 353 366 353 366 334 413.5 c 128,-1,16
 315 461 315 461 255 505 c 0,17,18
 178 563 178 563 122 638 c 128,-1,19
 66 713 66 713 66 855 c 0,20,21
 66 979 66 979 124 1070.5 c 128,-1,22
 182 1162 182 1162 296 1162 c 0,23,24
 467 1162 467 1162 525 1020 c 1,25,-1
 458 883 l 1,26,-1
 449 862 l 1,27,-1
 435 869 l 1,28,29
 428 888 428 888 421.5 909 c 128,-1,30
 415 930 415 930 389 960 c 0,31,32
 362.964285714 986.035714286 362.964285714 986.035714286 318.331632653 986.035714286 c 0,33,34
 316.678571429 986.035714286 316.678571429 986.035714286 315 986 c 0,35,36
 270 986 270 986 248.5 949.5 c 128,-1,37
 227 913 227 913 227 859 c 0,38,39
 227 796 227 796 254.5 754.5 c 128,-1,40
 282 713 282 713 348 662 c 0,41,42
 407 616 407 616 443.5 572.5 c 128,-1,43
 480 529 480 529 496.5 472 c 128,-1,44
 513 415 513 415 513 324 c 0,45,46
 513 138 513 138 443.5 57 c 128,-1,47
 374 -24 374 -24 271 -24 c 0,0,1
EndSplineSet
EndChar

StartChar: germandbls
Encoding: 223 223 414
Width: 512
VWidth: 2441
GlyphClass: 1
Flags: HW
LayerCount: 2
Fore
SplineSet
321 -24 m 0,0,1
 291 -24 291 -24 267 -13 c 128,-1,2
 243 -2 243 -2 219 17 c 1,3,-1
 243 193 l 1,4,5
 264 156 264 156 298 156 c 0,6,7
 334 156 334 156 350 240 c 128,-1,8
 366 324 366 324 366 471 c 0,9,10
 366 606 366 606 350.5 685 c 128,-1,11
 335 764 335 764 264 764 c 2,12,-1
 240 764 l 1,13,-1
 240 952 l 1,14,-1
 266 952 l 2,15,16
 321 952 321 952 321 1197 c 0,17,18
 321 1321 321 1321 307.5 1381.5 c 128,-1,19
 294 1442 294 1442 256 1442 c 0,20,21
 217 1442 217 1442 202 1341 c 128,-1,22
 187 1240 187 1240 187 1037 c 2,23,-1
 187 0 l 1,24,-1
 36 0 l 1,25,-1
 36 1032 l 2,26,27
 36 1264 36 1264 59.5 1395 c 128,-1,28
 83 1526 83 1526 130 1579.5 c 128,-1,29
 177 1633 177 1633 245 1633 c 0,30,31
 339 1633 339 1633 404 1528 c 128,-1,32
 469 1423 469 1423 469 1204 c 0,33,34
 469 1099 469 1099 452 1013 c 128,-1,35
 435 927 435 927 394 881 c 1,36,37
 447 844 447 844 481.5 744.5 c 128,-1,38
 516 645 516 645 516 442 c 0,39,40
 516 261 516 261 490.5 159.5 c 128,-1,41
 465 58 465 58 420.5 17 c 128,-1,42
 376 -24 376 -24 321 -24 c 0,0,1
EndSplineSet
EndChar

StartChar: t
Encoding: 116 116 415
Width: 512
VWidth: 2441
GlyphClass: 2
Flags: HW
AnchorPoint: "Anchor-4" 233 762 basechar 0
AnchorPoint: "Anchor-2" 323 0 basechar 0
AnchorPoint: "Anchor-1" 346 1135 basechar 0
AnchorPoint: "Anchor-0" 266 1433 basechar 0
LayerCount: 2
Fore
SplineSet
355 -30 m 0,0,1
 276 -30 276 -30 231.5 21.5 c 128,-1,2
 187 73 187 73 168.5 211 c 0,3,4
 153.288888889 324.466666667 153.288888889 324.466666667 153.288888889 518.383209877 c 0,5,6
 153.288888889 560.311111111 153.288888889 560.311111111 154 606 c 2,7,-1
 159 904 l 1,8,-1
 55 904 l 1,9,-1
 55 1091 l 1,10,-1
 163 1091 l 1,11,-1
 169 1402 l 1,12,-1
 341 1423 l 1,13,-1
 365 1426 l 1,14,-1
 367 1409 l 1,15,16
 356 1392 356 1392 348.5 1375 c 128,-1,17
 341 1358 341 1358 339 1316 c 2,18,-1
 332 1091 l 1,19,-1
 485 1091 l 1,20,-1
 485 904 l 1,21,-1
 332 904 l 1,22,-1
 323 594 l 2,23,24
 321.150943396 528.754716981 321.150943396 528.754716981 321.150943396 474.010679957 c 0,25,26
 321.150943396 321.509433962 321.150943396 321.509433962 335.5 250.5 c 0,27,28
 355 154 355 154 406 154 c 0,29,30
 441 154 441 154 467.5 175 c 128,-1,31
 494 196 494 196 510 219 c 1,32,-1
 535 56 l 1,33,34
 500 7 500 7 450.5 -11.5 c 128,-1,35
 401 -30 401 -30 355 -30 c 0,0,1
EndSplineSet
EndChar

StartChar: tbar
Encoding: 359 359 416
Width: 512
VWidth: 2441
GlyphClass: 2
Flags: HW
AnchorPoint: "Anchor-4" 233 762 basechar 0
AnchorPoint: "Anchor-2" 323 0 basechar 0
AnchorPoint: "Anchor-1" 346 1135 basechar 0
AnchorPoint: "Anchor-0" 266 1433 basechar 0
LayerCount: 2
Fore
SplineSet
355 -30 m 0,0,1
 281 -30 281 -30 237.5 15.5 c 128,-1,2
 194 61 194 61 173 178.5 c 0,3,4
 153.826086957 285.782608696 153.826086957 285.782608696 153.826086957 477.680529301 c 0,5,6
 153.826086957 495.956521739 153.826086957 495.956521739 154 515 c 1,7,-1
 55 515 l 1,8,-1
 55 720 l 1,9,-1
 157 720 l 1,10,-1
 159 904 l 1,11,-1
 55 904 l 1,12,-1
 55 1091 l 1,13,-1
 163 1091 l 1,14,-1
 169 1402 l 1,15,-1
 341 1423 l 1,16,-1
 365 1426 l 1,17,-1
 367 1409 l 1,18,19
 356 1392 356 1392 348.5 1375 c 128,-1,20
 341 1358 341 1358 339 1316 c 2,21,-1
 332 1091 l 1,22,-1
 485 1091 l 1,23,-1
 485 904 l 1,24,-1
 332 904 l 1,25,-1
 328 720 l 1,26,-1
 473 720 l 1,27,-1
 473 515 l 1,28,-1
 323 515 l 1,29,30
 322.80952381 495.952380952 322.80952381 495.952380952 322.80952381 477.988662132 c 0,31,32
 322.80952381 307.333333333 322.80952381 307.333333333 340 234.5 c 0,33,34
 359 154 359 154 406 154 c 0,35,36
 441 154 441 154 467.5 175 c 128,-1,37
 494 196 494 196 510 219 c 1,38,-1
 535 56 l 1,39,40
 500 7 500 7 450.5 -11.5 c 128,-1,41
 401 -30 401 -30 355 -30 c 0,0,1
EndSplineSet
EndChar

StartChar: u
Encoding: 117 117 423
Width: 512
VWidth: 2441
GlyphClass: 2
Flags: HW
AnchorPoint: "Anchor-3" 417 0 basechar 0
AnchorPoint: "Anchor-2" 267 0 basechar 0
AnchorPoint: "Anchor-1" 508 1116 basechar 0
AnchorPoint: "Anchor-0" 291 1116 basechar 0
LayerCount: 2
Fore
SplineSet
246 -27 m 0,0,1
 184 -27 184 -27 142 12 c 128,-1,2
 100 51 100 51 82 163 c 128,-1,3
 64 275 64 275 64 494 c 2,4,-1
 66 1135 l 1,5,-1
 232 1135 l 1,6,-1
 232 464 l 2,7,8
 232 329 232 329 237.5 264.5 c 128,-1,9
 243 200 243 200 257 180.5 c 128,-1,10
 271 161 271 161 294 161 c 0,11,12
 330 161 330 161 348.5 245 c 128,-1,13
 367 329 367 329 367 486 c 2,14,-1
 367 1135 l 1,15,-1
 532 1135 l 1,16,-1
 532 173 l 2,17,18
 532 129 532 129 533.5 86.5 c 128,-1,19
 535 44 535 44 544 0 c 1,20,-1
 391 0 l 1,21,22
 386 27 386 27 380.5 51 c 128,-1,23
 375 75 375 75 375 117 c 1,24,25
 361 56 361 56 328.5 14.5 c 128,-1,26
 296 -27 296 -27 246 -27 c 0,0,1
EndSplineSet
EndChar

StartChar: v
Encoding: 118 118 446
Width: 512
VWidth: 2441
GlyphClass: 2
Flags: HW
AnchorPoint: "Anchor-2" 288 0 basechar 0
AnchorPoint: "Anchor-0" 288 1135 basechar 0
LayerCount: 2
Fore
SplineSet
210 0 m 1,0,-1
 45 1135 l 1,1,-1
 188 1135 l 1,2,-1
 294 354 l 1,3,-1
 342 654 l 2,4,5
 364 789 364 789 375.5 914 c 128,-1,6
 387 1039 387 1039 392 1135 c 1,7,-1
 525 1135 l 1,8,9
 518 1032 518 1032 504.5 900.5 c 128,-1,10
 491 769 491 769 469 627 c 2,11,-1
 365 0 l 1,12,-1
 210 0 l 1,0,-1
EndSplineSet
EndChar

StartChar: w
Encoding: 119 119 447
Width: 512
VWidth: 2441
GlyphClass: 2
Flags: HW
AnchorPoint: "Anchor-2" 250 0 basechar 0
AnchorPoint: "Anchor-0" 250 1116 basechar 0
LayerCount: 2
Fore
SplineSet
86 -2 m 1,0,-1
 9 1135 l 1,1,-1
 127 1135 l 1,2,-1
 167 376 l 1,3,-1
 209 913 l 1,4,-1
 300 913 l 1,5,-1
 353 376 l 1,6,7
 367 639 367 639 369 834.5 c 128,-1,8
 371 1030 371 1030 371 1099 c 2,9,-1
 371 1135 l 1,10,-1
 489 1135 l 1,11,12
 477 851 477 851 462 563 c 128,-1,13
 447 275 447 275 424 -2 c 1,14,-1
 298 -2 l 1,15,-1
 254 510 l 1,16,-1
 209 -2 l 1,17,-1
 86 -2 l 1,0,-1
EndSplineSet
EndChar

StartChar: x
Encoding: 120 120 452
Width: 512
VWidth: 2441
GlyphClass: 2
Flags: HW
AnchorPoint: "Anchor-2" 277 0 basechar 0
AnchorPoint: "Anchor-0" 277 1135 basechar 0
LayerCount: 2
Fore
SplineSet
38 0 m 1,0,-1
 203 576 l 1,1,-1
 42 1135 l 1,2,-1
 182 1135 l 1,3,-1
 275 796 l 1,4,-1
 361 1135 l 1,5,-1
 496 1135 l 1,6,-1
 345 583 l 1,7,-1
 518 0 l 1,8,-1
 374 0 l 1,9,-1
 275 361 l 1,10,-1
 182 0 l 1,11,-1
 38 0 l 1,0,-1
EndSplineSet
EndChar

StartChar: y
Encoding: 121 121 453
Width: 512
VWidth: 2290
GlyphClass: 2
Flags: HW
AnchorPoint: "Anchor-2" 421 130 basechar 0
AnchorPoint: "Anchor-0" 285 1135 basechar 0
LayerCount: 2
Fore
SplineSet
149 -246 m 0,0,1
 73 -246 73 -246 31 -177 c 1,2,-1
 74 -19 l 1,3,-1
 78 2 l 1,4,-1
 91 -2 l 1,5,6
 99 -17 99 -17 104.5 -35.5 c 128,-1,7
 110 -54 110 -54 134 -76 c 0,8,9
 142 -78 142 -78 153 -78 c 0,10,11
 186 -78 186 -78 199 -20 c 0,12,13
 212 38 212 38 229 142 c 2,14,-1
 235 182 l 1,15,-1
 43 1135 l 1,16,-1
 186 1135 l 1,17,-1
 297 553 l 1,18,-1
 324 724 l 2,19,20
 339 823 339 823 354 930.5 c 128,-1,21
 369 1038 369 1038 376 1135 c 1,22,-1
 508 1135 l 1,23,24
 500 1036 500 1036 483.5 925.5 c 128,-1,25
 467 815 467 815 450 714 c 2,26,-1
 326 18 l 2,27,28
 302 -118 302 -118 251.5 -182 c 128,-1,29
 201 -246 201 -246 149 -246 c 0,0,1
EndSplineSet
EndChar

StartChar: z
Encoding: 122 122 463
Width: 512
VWidth: 2441
GlyphClass: 2
Flags: HW
AnchorPoint: "Anchor-2" 340 0 basechar 0
AnchorPoint: "Anchor-0" 340 1135 basechar 0
LayerCount: 2
Fore
SplineSet
43 149 m 1,0,-1
 322 950 l 1,1,-1
 67 950 l 1,2,-1
 67 1135 l 1,3,-1
 497 1135 l 1,4,-1
 497 986 l 1,5,-1
 225 184 l 1,6,-1
 424 184 l 2,7,8
 463 184 463 184 478 188.5 c 128,-1,9
 493 193 493 193 508 207 c 1,10,-1
 523 207 l 1,11,-1
 523 0 l 1,12,-1
 43 0 l 1,13,-1
 43 149 l 1,0,-1
EndSplineSet
EndChar

StartChar: u.i
Encoding: 65539 -1 468
Width: 512
VWidth: 2441
GlyphClass: 2
Flags: HW
AnchorPoint: "Anchor-3" 424 0 basechar 0
AnchorPoint: "Anchor-2" 252 0 basechar 0
AnchorPoint: "Anchor-1" 466 1135 basechar 0
AnchorPoint: "Anchor-0" 259 1135 basechar 0
LayerCount: 2
Fore
SplineSet
212 -27 m 0,0,1
 151 -27 151 -27 112 12 c 128,-1,2
 73 51 73 51 55 163 c 128,-1,3
 37 275 37 275 37 494 c 2,4,-1
 39 1135 l 1,5,-1
 198 1135 l 1,6,-1
 198 464 l 2,7,8
 198 329 198 329 205 264.5 c 128,-1,9
 212 200 212 200 226 180.5 c 128,-1,10
 240 161 240 161 259 161 c 0,11,12
 296 161 296 161 314.5 245 c 128,-1,13
 333 329 333 329 333 486 c 2,14,-1
 333 1135 l 1,15,-1
 491 1135 l 1,16,-1
 491 173 l 2,17,18
 491 129 491 129 493.5 86.5 c 128,-1,19
 496 44 496 44 503 0 c 1,20,-1
 354 0 l 1,21,22
 349 27 349 27 344.5 51 c 128,-1,23
 340 75 340 75 340 117 c 1,24,25
 326 56 326 56 294.5 14.5 c 128,-1,26
 263 -27 263 -27 212 -27 c 0,0,1
EndSplineSet
EndChar

StartChar: r.serif
Encoding: 65540 -1 469
Width: 512
VWidth: 2441
GlyphClass: 1
Flags: HW
LayerCount: 2
Fore
SplineSet
77 -2 m 1,0,-1
 77 186 l 1,1,-1
 125 186 l 1,2,-1
 125 950 l 1,3,-1
 79 950 l 1,4,-1
 79 1135 l 1,5,-1
 290 1135 l 1,6,-1
 288 976 l 1,7,8
 306 1055 306 1055 346.5 1107.5 c 128,-1,9
 387 1160 387 1160 433 1160 c 0,10,11
 516 1160 516 1160 557 1039 c 1,12,-1
 507 852 l 1,13,14
 487 859 487 859 481.5 888.5 c 128,-1,15
 476 918 476 918 465 943.5 c 128,-1,16
 454 969 454 969 412 969 c 0,17,18
 362 969 362 969 325 872.5 c 128,-1,19
 288 776 288 776 288 610 c 2,20,-1
 288 186 l 1,21,-1
 356 186 l 1,22,-1
 356 -2 l 1,23,-1
 77 -2 l 1,0,-1
EndSplineSet
EndChar

StartChar: ordfeminine
Encoding: 170 170 470
Width: 512
VWidth: 2441
GlyphClass: 1
Flags: HW
LayerCount: 2
Fore
SplineSet
75 532 m 1,0,-1
 538 532 l 1,1,-1
 538 345 l 1,2,-1
 75 345 l 1,3,-1
 75 532 l 1,0,-1
244 920 m 0,4,5
 244 869 244 869 256 825 c 128,-1,6
 268 781 268 781 296 781 c 0,7,8
 331 781 331 781 341.5 841 c 128,-1,9
 352 901 352 901 354 1055 c 1,10,11
 344 1055 344 1055 333 1055 c 0,12,13
 294 1055 294 1055 269 1024 c 128,-1,14
 244 993 244 993 244 920 c 0,4,5
254 632 m 0,15,16
 184 632 184 632 147 709 c 128,-1,17
 110 786 110 786 110 896 c 0,18,19
 110 1066 110 1066 173.5 1138.5 c 128,-1,20
 237 1211 237 1211 324 1211 c 0,21,22
 338 1211 338 1211 352 1209 c 1,23,24
 350 1339 350 1339 334.5 1373 c 128,-1,25
 319 1407 319 1407 286 1407 c 0,26,27
 256 1407 256 1407 236.5 1392 c 128,-1,28
 217 1377 217 1377 198 1345 c 1,29,-1
 132 1442 l 1,30,31
 153 1484 153 1484 195 1517 c 128,-1,32
 237 1550 237 1550 312 1550 c 0,33,34
 380 1550 380 1550 419.5 1517 c 128,-1,35
 459 1484 459 1484 475 1388.5 c 128,-1,36
 491 1293 491 1293 491 1106 c 2,37,-1
 491 652 l 1,38,-1
 356 652 l 1,39,-1
 356 725 l 1,40,41
 339 671 339 671 314 651.5 c 128,-1,42
 289 632 289 632 254 632 c 0,15,16
EndSplineSet
EndChar

StartChar: ordmasculine
Encoding: 186 186 471
Width: 512
VWidth: 2441
GlyphClass: 1
Flags: HW
LayerCount: 2
Fore
SplineSet
75 532 m 1,0,-1
 538 532 l 1,1,-1
 538 345 l 1,2,-1
 75 345 l 1,3,-1
 75 532 l 1,0,-1
308 792 m 128,-1,5
 347 792 347 792 359 858.5 c 128,-1,6
 371 925 371 925 371 1086 c 0,7,8
 371 1254 371 1254 359 1324 c 128,-1,9
 347 1394 347 1394 308 1394 c 0,10,11
 271 1394 271 1394 255.5 1324.5 c 128,-1,12
 240 1255 240 1255 240 1086 c 0,13,14
 240 925 240 925 254.5 858.5 c 128,-1,4
 269 792 269 792 308 792 c 128,-1,5
308 638 m 128,-1,16
 245 638 245 638 199.5 675.5 c 128,-1,17
 154 713 154 713 128.5 809.5 c 128,-1,18
 103 906 103 906 103 1081 c 0,19,20
 103 1272 103 1272 128.5 1373.5 c 128,-1,21
 154 1475 154 1475 199 1512.5 c 128,-1,22
 244 1550 244 1550 308 1550 c 0,23,24
 371 1550 371 1550 416 1512.5 c 128,-1,25
 461 1475 461 1475 484.5 1373.5 c 128,-1,26
 508 1272 508 1272 508 1081 c 0,27,28
 508 906 508 906 484.5 809.5 c 128,-1,29
 461 713 461 713 416 675.5 c 128,-1,15
 371 638 371 638 308 638 c 128,-1,16
EndSplineSet
EndChar

StartChar: uni2124
Encoding: 8484 8484 473
Width: 512
VWidth: 2441
GlyphClass: 1
Flags: HW
LayerCount: 2
Fore
SplineSet
445 1372 m 1,0,-1
 380 1372 l 1,1,-1
 153 147 l 1,2,-1
 221 147 l 1,3,-1
 445 1372 l 1,0,-1
538 1521 m 1,4,-1
 538 1358 l 1,5,-1
 312 147 l 1,6,-1
 436 147 l 2,7,8
 476 147 476 147 492 151.5 c 128,-1,9
 508 156 508 156 522 170 c 1,10,-1
 538 170 l 1,11,-1
 538 0 l 1,12,-1
 58 0 l 1,13,-1
 58 163 l 1,14,-1
 290 1372 l 1,15,-1
 60 1372 l 1,16,-1
 60 1521 l 1,17,-1
 538 1521 l 1,4,-1
EndSplineSet
EndChar

StartChar: zero
Encoding: 48 48 474
Width: 512
VWidth: 2441
GlyphClass: 1
Flags: HW
LayerCount: 2
Fore
SplineSet
282 166 m 0,0,1
 325 166 325 166 344 300.5 c 128,-1,2
 363 435 363 435 363 752 c 0,3,4
 363 789 363 789 361 820 c 1,5,-1
 209 432 l 1,6,7
 218 290 218 290 237.5 228 c 128,-1,8
 257 166 257 166 282 166 c 0,0,1
198 752 m 0,9,10
 198 703 198 703 200 662 c 1,11,-1
 354 1072 l 1,12,13
 339 1338 339 1338 282 1338 c 0,14,15
 246 1338 246 1338 222 1196.5 c 128,-1,16
 198 1055 198 1055 198 752 c 0,9,10
282 -27 m 128,-1,18
 213 -27 213 -27 158 47.5 c 128,-1,19
 103 122 103 122 72 293 c 128,-1,20
 41 464 41 464 41 752 c 0,21,22
 41 1036 41 1036 72 1206.5 c 128,-1,23
 103 1377 103 1377 157.5 1454 c 128,-1,24
 212 1531 212 1531 282 1531 c 0,25,26
 351 1531 351 1531 405.5 1454 c 128,-1,27
 460 1377 460 1377 490.5 1206 c 128,-1,28
 521 1035 521 1035 521 752 c 0,29,30
 521 459 521 459 490.5 289 c 128,-1,31
 460 119 460 119 405.5 46 c 128,-1,17
 351 -27 351 -27 282 -27 c 128,-1,18
EndSplineSet
Substitution2: "'ss02' Style Set 2 in Latin lookup 36 subtable" zero.ss02
Substitution2: "'zero' Slashed Zero in Latin lookup 33 subtable" zero.zero
Substitution2: "'frac' Diagonal Fractions in Latin lookup 24 subtable" zero.numr
Substitution2: "'dnom' Denominators in Latin lookup 22 subtable" zero.dnom
Substitution2: "'numr' Numerators in Latin lookup 21 subtable" zero.numr
Substitution2: "'sups' Superscript in Latin lookup 20 subtable" uni2070
Substitution2: "'subs' Subscript in Latin lookup 19 subtable" uni2080
AlternateSubs2: "'aalt' Access All Alternates in Latin lookup 1 subtable" zero.zero zero.ss02 uni2080 zero.dnom zero.numr uni2070
EndChar

StartChar: one
Encoding: 49 49 475
Width: 512
VWidth: 2441
GlyphClass: 1
Flags: HW
LayerCount: 2
Fore
SplineSet
237 0 m 1,0,-1
 237 1228 l 1,1,-1
 112 1137 l 1,2,-1
 83 1316 l 1,3,-1
 293 1523 l 1,4,-1
 410 1523 l 1,5,-1
 410 0 l 1,6,-1
 237 0 l 1,0,-1
EndSplineSet
Substitution2: "'frac' Diagonal Fractions in Latin lookup 24 subtable" one.numr
Substitution2: "'dnom' Denominators in Latin lookup 22 subtable" one.dnom
Substitution2: "'numr' Numerators in Latin lookup 21 subtable" one.numr
Substitution2: "'sups' Superscript in Latin lookup 20 subtable" uni00B9
Substitution2: "'subs' Subscript in Latin lookup 19 subtable" uni2081
AlternateSubs2: "'aalt' Access All Alternates in Latin lookup 1 subtable" uni2081 one.dnom one.numr uni00B9
EndChar

StartChar: two
Encoding: 50 50 476
Width: 512
VWidth: 2441
GlyphClass: 1
Flags: HW
LayerCount: 2
Fore
SplineSet
72 147 m 1,0,1
 170 379 170 379 231.5 541 c 128,-1,2
 293 703 293 703 323 833.5 c 128,-1,3
 353 964 353 964 355 1101 c 0,4,5
 355.210526316 1112.05263158 355.210526316 1112.05263158 355.210526316 1122.67313019 c 0,0,0
 355.210526316 1212.94736842 355.210526316 1212.94736842 340 1272 c 128,-1,6
 323 1338 323 1338 293 1338 c 0,7,8
 270 1338 270 1338 254.5 1326 c 128,-1,9
 239 1314 239 1314 221 1277 c 0,10,11
 207 1242 207 1242 204 1224 c 128,-1,12
 201 1206 201 1206 210 1186 c 1,13,-1
 203 1172 l 1,14,-1
 183 1179 l 1,15,-1
 49 1218 l 1,16,17
 84 1360 84 1360 138 1445.5 c 128,-1,18
 192 1531 192 1531 302 1531 c 0,19,20
 525 1531 525 1531 525 1097 c 0,21,22
 525 941 525 941 494.5 803.5 c 128,-1,23
 464 666 464 666 409.5 521 c 128,-1,24
 355 376 355 376 281 193 c 1,25,-1
 426 193 l 2,26,27
 466 193 466 193 482 198 c 128,-1,28
 498 203 498 203 513 217 c 1,29,-1
 529 217 l 1,30,-1
 529 0 l 1,31,-1
 72 0 l 1,32,-1
 72 147 l 1,0,1
EndSplineSet
Substitution2: "'frac' Diagonal Fractions in Latin lookup 24 subtable" two.numr
Substitution2: "'dnom' Denominators in Latin lookup 22 subtable" two.dnom
Substitution2: "'numr' Numerators in Latin lookup 21 subtable" two.numr
Substitution2: "'sups' Superscript in Latin lookup 20 subtable" uni00B2
Substitution2: "'subs' Subscript in Latin lookup 19 subtable" uni2082
AlternateSubs2: "'aalt' Access All Alternates in Latin lookup 1 subtable" uni2082 two.dnom two.numr uni00B2
EndChar

StartChar: three
Encoding: 51 51 477
Width: 512
VWidth: 2441
GlyphClass: 1
Flags: HW
LayerCount: 2
Fore
SplineSet
284 -27 m 0,0,1
 201 -27 201 -27 144.5 30.5 c 128,-1,2
 88 88 88 88 47 173 c 1,3,-1
 165 254 l 1,4,-1
 182 266 l 1,5,-1
 189 256 l 1,6,7
 187 237 187 237 189.5 222 c 128,-1,8
 192 207 192 207 210 179 c 1,9,10
 237 147 237 147 269 147 c 0,11,12
 312 147 312 147 337.5 210 c 128,-1,13
 363 273 363 273 363 424 c 0,14,15
 363 597 363 597 323.5 659.5 c 128,-1,16
 291.22875817 710.562091503 291.22875817 710.562091503 225.249861165 710.562091503 c 0,0,0
 210.470588235 710.562091503 210.470588235 710.562091503 194 708 c 1,17,-1
 194 879 l 1,18,19
 264 879 264 879 295.5 915.5 c 128,-1,20
 327 952 327 952 333.5 1016.5 c 128,-1,21
 340 1081 340 1081 340 1160 c 0,22,23
 340 1365 340 1365 277 1365 c 0,24,25
 250 1365 250 1365 231 1336 c 128,-1,26
 212 1307 212 1307 196 1255 c 1,27,-1
 68 1328 l 1,28,29
 106 1423 106 1423 161.5 1477 c 128,-1,30
 217 1531 217 1531 288 1531 c 0,31,32
 378 1531 378 1531 440.5 1443 c 128,-1,33
 503 1355 503 1355 503 1153 c 0,34,35
 503 1034 503 1034 480.5 944.5 c 128,-1,36
 458 855 458 855 402 811 c 1,37,38
 463 765 463 765 495 669 c 128,-1,39
 527 573 527 573 527 417 c 0,40,41
 527 198 527 198 458.5 85.5 c 128,-1,42
 390 -27 390 -27 284 -27 c 0,0,1
EndSplineSet
Substitution2: "'frac' Diagonal Fractions in Latin lookup 24 subtable" three.numr
Substitution2: "'dnom' Denominators in Latin lookup 22 subtable" three.dnom
Substitution2: "'numr' Numerators in Latin lookup 21 subtable" three.numr
Substitution2: "'sups' Superscript in Latin lookup 20 subtable" uni00B3
Substitution2: "'subs' Subscript in Latin lookup 19 subtable" uni2083
AlternateSubs2: "'aalt' Access All Alternates in Latin lookup 1 subtable" uni2083 three.dnom three.numr uni00B3
EndChar

StartChar: four
Encoding: 52 52 478
Width: 512
VWidth: 2441
GlyphClass: 1
Flags: HW
LayerCount: 2
Fore
SplineSet
196 545 m 1,0,-1
 326 545 l 1,1,-1
 326 991 l 1,2,-1
 196 545 l 1,0,-1
326 0 m 1,3,-1
 326 354 l 1,4,-1
 53 354 l 1,5,-1
 53 525 l 1,6,-1
 365 1523 l 1,7,-1
 480 1523 l 1,8,-1
 480 542 l 1,9,-1
 533 542 l 1,10,-1
 533 352 l 1,11,-1
 480 352 l 1,12,-1
 480 0 l 1,13,-1
 326 0 l 1,3,-1
EndSplineSet
Substitution2: "'frac' Diagonal Fractions in Latin lookup 24 subtable" four.numr
Substitution2: "'dnom' Denominators in Latin lookup 22 subtable" four.dnom
Substitution2: "'numr' Numerators in Latin lookup 21 subtable" four.numr
Substitution2: "'sups' Superscript in Latin lookup 20 subtable" uni2074
Substitution2: "'subs' Subscript in Latin lookup 19 subtable" uni2084
AlternateSubs2: "'aalt' Access All Alternates in Latin lookup 1 subtable" uni2084 four.dnom four.numr uni2074
EndChar

StartChar: five
Encoding: 53 53 479
Width: 512
VWidth: 2441
GlyphClass: 1
Flags: HW
LayerCount: 2
Fore
SplineSet
288 -27 m 0,0,1
 211 -27 211 -27 149.5 26 c 128,-1,2
 88 79 88 79 48 200 c 1,3,-1
 166 278 l 1,4,-1
 183 288 l 1,5,-1
 192 278 l 1,6,7
 187 261 187 261 188 245.5 c 128,-1,8
 189 230 189 230 203 200 c 1,9,10
 231 161 231 161 275 161 c 0,11,12
 323 161 323 161 343 248 c 128,-1,13
 363 335 363 335 363 484 c 0,14,15
 363 659 363 659 345.5 742 c 128,-1,16
 328 825 328 825 286 825 c 0,17,18
 251 825 251 825 232.5 799.5 c 128,-1,19
 214 774 214 774 194 722 c 1,20,-1
 86 747 l 1,21,-1
 108 1521 l 1,22,-1
 487 1521 l 1,23,-1
 487 1330 l 1,24,-1
 263 1330 l 1,25,-1
 251 937 l 1,26,27
 288 995 288 995 353 997 c 0,28,29
 441 997 441 997 484.5 872 c 128,-1,30
 528 747 528 747 528 478 c 0,31,32
 528 224 528 224 465.5 98.5 c 128,-1,33
 403 -27 403 -27 288 -27 c 0,0,1
EndSplineSet
Substitution2: "'frac' Diagonal Fractions in Latin lookup 24 subtable" five.numr
Substitution2: "'dnom' Denominators in Latin lookup 22 subtable" five.dnom
Substitution2: "'numr' Numerators in Latin lookup 21 subtable" five.numr
Substitution2: "'sups' Superscript in Latin lookup 20 subtable" uni2075
Substitution2: "'subs' Subscript in Latin lookup 19 subtable" uni2085
AlternateSubs2: "'aalt' Access All Alternates in Latin lookup 1 subtable" uni2085 five.dnom five.numr uni2075
EndChar

StartChar: six
Encoding: 54 54 480
Width: 512
VWidth: 2441
GlyphClass: 1
Flags: HW
LayerCount: 2
Fore
SplineSet
318 168 m 0,0,1
 347 168 347 168 363 238 c 128,-1,2
 379 308 379 308 379 480 c 0,3,4
 379 641 379 641 366.5 715 c 128,-1,5
 354 789 354 789 320 789 c 0,6,7
 288 789 288 789 271.5 755.5 c 128,-1,8
 255 722 255 722 241 666 c 1,9,10
 238.428571429 602 238.428571429 602 238.428571429 545.102040816 c 0,0,0
 238.428571429 402.857142857 238.428571429 402.857142857 254.5 305 c 128,-1,11
 277 168 277 168 318 168 c 0,0,1
315 -24 m 0,12,13
 193 -24 193 -24 130 145.5 c 128,-1,14
 67 315 67 315 67 694 c 0,15,16
 67 1141 67 1141 140.5 1339.5 c 128,-1,17
 214 1538 214 1538 361 1538 c 0,18,19
 423 1538 423 1538 471.5 1495.5 c 128,-1,20
 520 1453 520 1453 547 1377 c 1,21,-1
 462 1242 l 1,22,-1
 453 1225 l 1,23,-1
 441 1230 l 1,24,25
 439 1247 439 1247 437.5 1266.5 c 128,-1,26
 436 1286 436 1286 419 1314 c 0,27,28
 395.727272727 1345.03030303 395.727272727 1345.03030303 361.170798898 1345.03030303 c 0,0,0
 360.090909091 1345.03030303 360.090909091 1345.03030303 359 1345 c 0,29,30
 335 1345 335 1345 307.5 1312 c 128,-1,31
 280 1279 280 1279 260.5 1181.5 c 128,-1,32
 241 1084 241 1084 239 896 c 1,33,34
 289.413793103 981.011494253 289.413793103 981.011494253 362.301889285 981.011494253 c 0,0,0
 363.149425287 981.011494253 363.149425287 981.011494253 364 981 c 0,35,36
 449 981 449 981 497 855.5 c 128,-1,37
 545 730 545 730 545 484 c 0,38,39
 545 247 545 247 489 111.5 c 128,-1,40
 433 -24 433 -24 315 -24 c 0,12,13
EndSplineSet
Substitution2: "'frac' Diagonal Fractions in Latin lookup 24 subtable" six.numr
Substitution2: "'dnom' Denominators in Latin lookup 22 subtable" six.dnom
Substitution2: "'numr' Numerators in Latin lookup 21 subtable" six.numr
Substitution2: "'sups' Superscript in Latin lookup 20 subtable" uni2076
Substitution2: "'subs' Subscript in Latin lookup 19 subtable" uni2086
AlternateSubs2: "'aalt' Access All Alternates in Latin lookup 1 subtable" uni2086 six.dnom six.numr uni2076
EndChar

StartChar: seven
Encoding: 55 55 481
Width: 512
VWidth: 2441
GlyphClass: 1
Flags: HW
LayerCount: 2
Fore
SplineSet
139 0 m 1,0,1
 193 349 193 349 235.5 671.5 c 128,-1,2
 278 994 278 994 342 1330 c 1,3,-1
 81 1330 l 1,4,-1
 81 1521 l 1,5,-1
 542 1521 l 1,6,-1
 542 1386 l 1,7,8
 474 1034 474 1034 426 700 c 128,-1,9
 378 366 378 366 329 0 c 1,10,-1
 139 0 l 1,0,1
EndSplineSet
Substitution2: "'frac' Diagonal Fractions in Latin lookup 24 subtable" seven.numr
Substitution2: "'dnom' Denominators in Latin lookup 22 subtable" seven.dnom
Substitution2: "'numr' Numerators in Latin lookup 21 subtable" seven.numr
Substitution2: "'sups' Superscript in Latin lookup 20 subtable" uni2077
Substitution2: "'subs' Subscript in Latin lookup 19 subtable" uni2087
AlternateSubs2: "'aalt' Access All Alternates in Latin lookup 1 subtable" uni2087 seven.dnom seven.numr uni2077
EndChar

StartChar: eight
Encoding: 56 56 482
Width: 512
VWidth: 2441
GlyphClass: 1
Flags: HW
LayerCount: 2
Fore
SplineSet
298 163 m 0,0,1
 336 163 336 163 356 214.5 c 128,-1,2
 376 266 376 266 376 393 c 0,3,4
 376 512 376 512 357 585.5 c 128,-1,5
 338 659 338 659 298 699 c 1,6,7
 260 662 260 662 238.5 589.5 c 128,-1,8
 217 517 217 517 217 401 c 0,9,10
 217 275 217 275 242 219 c 128,-1,11
 267 163 267 163 298 163 c 0,0,1
309 916 m 1,12,13
 340 951 340 951 349.5 1025 c 128,-1,14
 359 1099 359 1099 359 1174 c 0,15,16
 359 1257 359 1257 344 1304 c 128,-1,17
 329 1351 329 1351 300 1351 c 0,18,19
 269 1351 269 1351 256 1305.5 c 128,-1,20
 243 1260 243 1260 243 1181 c 0,21,22
 243 1078 243 1078 257 1018 c 128,-1,23
 271 958 271 958 309 916 c 1,12,13
295 -24 m 0,24,25
 182 -24 182 -24 119.5 86 c 128,-1,26
 57 196 57 196 57 384 c 0,27,28
 57 689 57 689 194 823 c 1,29,30
 137 884 137 884 114.5 969.5 c 128,-1,31
 92 1055 92 1055 92 1165 c 0,32,33
 92 1338 92 1338 148.5 1439 c 128,-1,34
 205 1540 205 1540 302 1540 c 0,35,36
 404 1540 404 1540 457 1442.5 c 128,-1,37
 510 1345 510 1345 510 1179 c 0,38,39
 510 1069 510 1069 491.5 969 c 128,-1,40
 473 869 473 869 421 808 c 1,41,42
 484 738 484 738 510.5 641.5 c 128,-1,43
 537 545 537 545 537 393 c 0,44,45
 537 197 537 197 473.5 86.5 c 128,-1,46
 410 -24 410 -24 295 -24 c 0,24,25
EndSplineSet
Substitution2: "'frac' Diagonal Fractions in Latin lookup 24 subtable" eight.numr
Substitution2: "'dnom' Denominators in Latin lookup 22 subtable" eight.dnom
Substitution2: "'numr' Numerators in Latin lookup 21 subtable" eight.numr
Substitution2: "'sups' Superscript in Latin lookup 20 subtable" uni2078
Substitution2: "'subs' Subscript in Latin lookup 19 subtable" uni2088
AlternateSubs2: "'aalt' Access All Alternates in Latin lookup 1 subtable" uni2088 eight.dnom eight.numr uni2078
EndChar

StartChar: nine
Encoding: 57 57 483
Width: 512
VWidth: 2441
GlyphClass: 1
Flags: HW
LayerCount: 2
Fore
SplineSet
231 1037 m 0,0,1
 231 742.986577181 231 742.986577181 312.889644611 742.986577181 c 0,0,0
 313.44295302 742.986577181 313.44295302 742.986577181 314 743 c 0,2,3
 355 743 355 743 379 764 c 1,4,-1
 379 781 l 2,5,6
 379 1007 379 1007 371.5 1128.5 c 128,-1,7
 364 1250 364 1250 347.5 1296 c 128,-1,8
 331 1342 331 1342 300 1342 c 0,9,10
 268 1342 268 1342 249.5 1277 c 128,-1,11
 231 1212 231 1212 231 1037 c 0,0,1
273 -24 m 0,12,13
 199 -24 199 -24 146.5 15 c 128,-1,14
 94 54 94 54 62 124 c 1,15,-1
 144 256 l 1,16,-1
 158 275 l 1,17,-1
 170 271 l 1,18,19
 172 250 172 250 176 230 c 128,-1,20
 180 210 180 210 201 184 c 1,21,22
 228 163 228 163 256 161 c 0,23,24
 299 161 299 161 323.5 217 c 128,-1,25
 348 273 348 273 359.5 369.5 c 128,-1,26
 371 466 371 466 377 587 c 1,27,28
 348 560 348 560 300 559 c 0,29,30
 206 559 206 559 136.5 677.5 c 128,-1,31
 67 796 67 796 67 1035 c 0,32,33
 67 1296 67 1296 134 1413.5 c 128,-1,34
 201 1531 201 1531 297 1531 c 0,35,36
 432 1531 432 1531 487 1376 c 128,-1,37
 542 1221 542 1221 542 886 c 0,38,39
 542 557 542 557 514.5 358 c 128,-1,40
 487 159 487 159 427 70 c 128,-1,41
 367 -19 367 -19 273 -24 c 0,12,13
EndSplineSet
Substitution2: "'frac' Diagonal Fractions in Latin lookup 24 subtable" nine.numr
Substitution2: "'dnom' Denominators in Latin lookup 22 subtable" nine.dnom
Substitution2: "'numr' Numerators in Latin lookup 21 subtable" nine.numr
Substitution2: "'sups' Superscript in Latin lookup 20 subtable" uni2079
Substitution2: "'subs' Subscript in Latin lookup 19 subtable" uni2089
AlternateSubs2: "'aalt' Access All Alternates in Latin lookup 1 subtable" uni2089 nine.dnom nine.numr uni2079
EndChar

StartChar: zero.zero
Encoding: 65541 -1 484
Width: 512
VWidth: 2441
GlyphClass: 1
Flags: HW
LayerCount: 2
Fore
SplineSet
282 689 m 0,0,1
 252 689 252 689 230.5 713 c 128,-1,2
 209 737 209 737 209 771 c 0,3,4
 209 806 209 806 230.5 830.5 c 128,-1,5
 252 855 252 855 282 855 c 0,6,7
 310 855 310 855 330.5 830.5 c 128,-1,8
 351 806 351 806 351 771 c 128,-1,9
 351 736 351 736 330.5 712.5 c 128,-1,10
 310 689 310 689 282 689 c 0,0,1
282 166 m 0,11,12
 325 166 325 166 344 300.5 c 128,-1,13
 363 435 363 435 363 752 c 0,14,15
 363 1055 363 1055 343 1196.5 c 128,-1,16
 323 1338 323 1338 282 1338 c 0,17,18
 246 1338 246 1338 222 1196.5 c 128,-1,19
 198 1055 198 1055 198 752 c 0,20,21
 198 435 198 435 222 300.5 c 128,-1,22
 246 166 246 166 282 166 c 0,11,12
282 -27 m 128,-1,24
 213 -27 213 -27 158 47.5 c 128,-1,25
 103 122 103 122 72 293 c 128,-1,26
 41 464 41 464 41 752 c 0,27,28
 41 1036 41 1036 72 1206.5 c 128,-1,29
 103 1377 103 1377 157.5 1454 c 128,-1,30
 212 1531 212 1531 282 1531 c 0,31,32
 351 1531 351 1531 405.5 1454 c 128,-1,33
 460 1377 460 1377 490.5 1206 c 128,-1,34
 521 1035 521 1035 521 752 c 0,35,36
 521 459 521 459 490.5 289 c 128,-1,37
 460 119 460 119 405.5 46 c 128,-1,23
 351 -27 351 -27 282 -27 c 128,-1,24
EndSplineSet
EndChar

StartChar: zero.ss02
Encoding: 65542 -1 485
Width: 512
VWidth: 2441
GlyphClass: 1
Flags: HW
LayerCount: 2
Fore
SplineSet
282 166 m 0,0,1
 325 166 325 166 344 300.5 c 128,-1,2
 363 435 363 435 363 752 c 0,3,4
 363 1055 363 1055 343 1196.5 c 128,-1,5
 323 1338 323 1338 282 1338 c 0,6,7
 246 1338 246 1338 222 1196.5 c 128,-1,8
 198 1055 198 1055 198 752 c 0,9,10
 198 435 198 435 222 300.5 c 128,-1,11
 246 166 246 166 282 166 c 0,0,1
282 -27 m 128,-1,13
 213 -27 213 -27 158 47.5 c 128,-1,14
 103 122 103 122 72 293 c 128,-1,15
 41 464 41 464 41 752 c 0,16,17
 41 1036 41 1036 72 1206.5 c 128,-1,18
 103 1377 103 1377 157.5 1454 c 128,-1,19
 212 1531 212 1531 282 1531 c 0,20,21
 351 1531 351 1531 405.5 1454 c 128,-1,22
 460 1377 460 1377 490.5 1206 c 128,-1,23
 521 1035 521 1035 521 752 c 0,24,25
 521 459 521 459 490.5 289 c 128,-1,26
 460 119 460 119 405.5 46 c 128,-1,12
 351 -27 351 -27 282 -27 c 128,-1,13
EndSplineSet
EndChar

StartChar: uni2070
Encoding: 8304 8304 516
Width: 512
VWidth: 2441
GlyphClass: 1
Flags: HW
LayerCount: 2
Fore
SplineSet
305 718 m 0,0,1
 337 718 337 718 350.5 797 c 128,-1,2
 364 876 364 876 364 1067 c 2,3,4
 364 1066 364 1066 364 1070 c 130,-1,5
 364 1074 364 1074 364 1101 c 1,6,-1
 254 876 l 1,7,8
 259 790 259 790 272.5 754 c 128,-1,9
 286 718 286 718 305 718 c 0,0,1
247 1067 m 0,10,11
 247 1046 247 1046 247 1028 c 1,12,-1
 356 1267 l 1,13,14
 344 1416 344 1416 305 1416 c 0,15,16
 275 1416 275 1416 261 1332 c 128,-1,17
 247 1248 247 1248 247 1067 c 0,10,11
305 583 m 0,18,19
 226 583 226 583 175 689.5 c 128,-1,20
 124 796 124 796 124 1067 c 0,21,22
 124 1333 124 1333 175 1441.5 c 128,-1,23
 226 1550 226 1550 305 1550 c 128,-1,24
 384 1550 384 1550 435 1441.5 c 128,-1,25
 486 1333 486 1333 486 1067 c 0,26,27
 486 883 486 883 463 778.5 c 128,-1,28
 440 674 440 674 398 628.5 c 128,-1,29
 356 583 356 583 305 583 c 0,18,19
EndSplineSet
Substitution2: "'ss02' Style Set 2 in Latin lookup 36 subtable" uni2070.ss02
Substitution2: "'zero' Slashed Zero in Latin lookup 33 subtable" uni2070.zero
AlternateSubs2: "'aalt' Access All Alternates in Latin lookup 1 subtable" uni2070.ss02 uni2070.zero
EndChar

StartChar: uni00B9
Encoding: 185 185 517
Width: 512
VWidth: 2441
GlyphClass: 1
Flags: HW
LayerCount: 2
Fore
SplineSet
254 601 m 1,0,-1
 254 1347 l 1,1,-1
 173 1291 l 1,2,-1
 151 1416 l 1,3,-1
 293 1545 l 1,4,-1
 380 1545 l 1,5,-1
 380 601 l 1,6,-1
 254 601 l 1,0,-1
EndSplineSet
EndChar

StartChar: uni00B2
Encoding: 178 178 518
Width: 512
VWidth: 2441
GlyphClass: 1
Flags: HW
LayerCount: 2
Fore
SplineSet
144 701 m 1,0,1
 214 848 214 848 258.5 945 c 128,-1,2
 303 1042 303 1042 324 1120.5 c 128,-1,3
 345 1199 345 1199 347 1284 c 0,4,5
 347.275862069 1291.44827586 347.275862069 1291.44827586 347.275862069 1298.61117717 c 0,6,7
 347.275862069 1343.37931034 347.275862069 1343.37931034 336.5 1377 c 0,8,9
 324 1416 324 1416 303 1416 c 0,10,11
 289 1416 289 1416 288 1411 c 0,12,13
 267 1379 267 1379 260.5 1363 c 128,-1,14
 254 1347 254 1347 256 1326 c 1,15,-1
 247 1311 l 1,16,-1
 226 1326 l 1,17,-1
 130 1360 l 1,18,19
 154 1446 154 1446 193 1498 c 128,-1,20
 232 1550 232 1550 310 1550 c 0,21,22
 389 1550 389 1550 431 1483 c 128,-1,23
 473 1416 473 1416 473 1281 c 0,24,25
 473 1183 473 1183 452.5 1103 c 128,-1,26
 432 1023 432 1023 395.5 936.5 c 128,-1,27
 359 850 359 850 305 734 c 1,28,-1
 368 734 l 2,29,30
 410 734 410 734 427.5 739.5 c 128,-1,31
 445 745 445 745 459 759 c 1,32,-1
 476 759 l 1,33,-1
 476 601 l 1,34,-1
 144 601 l 1,35,-1
 144 701 l 1,0,1
EndSplineSet
EndChar

StartChar: uni00B3
Encoding: 179 179 519
Width: 512
VWidth: 2441
GlyphClass: 1
Flags: HW
LayerCount: 2
Fore
SplineSet
296 583 m 0,0,1
 240 583 240 583 197 617.5 c 128,-1,2
 154 652 154 652 126 708 c 1,3,-1
 207 767 l 1,4,-1
 226 778 l 1,5,-1
 235 769 l 1,6,7
 233 752 233 752 241 739.5 c 128,-1,8
 249 727 249 727 271 703 c 1,9,-1
 286 703 l 2,10,11
 313 703 313 703 331 738.5 c 128,-1,12
 349 774 349 774 349 864 c 0,13,14
 349 971 349 971 321 1006.5 c 0,15,16
 299.153846154 1034.1978022 299.153846154 1034.1978022 257.219176428 1034.1978022 c 0,17,18
 245.406593407 1034.1978022 245.406593407 1034.1978022 232 1032 c 1,19,-1
 232 1153 l 1,20,21
 302 1153 302 1153 318.5 1199 c 128,-1,22
 335 1245 335 1245 335 1316 c 0,23,24
 335 1435 335 1435 291 1435 c 0,25,26
 259 1435 259 1435 232 1372 c 1,27,-1
 142 1426 l 1,28,29
 196 1550 196 1550 298 1550 c 0,30,31
 364 1550 364 1550 409 1495 c 128,-1,32
 454 1440 454 1440 454 1316 c 0,33,34
 454 1241 454 1241 438 1185.5 c 128,-1,35
 422 1130 422 1130 384 1104 c 1,36,37
 426 1074 426 1074 448.5 1015.5 c 128,-1,38
 471 957 471 957 471 859 c 0,39,40
 471 722 471 722 423 652.5 c 128,-1,41
 375 583 375 583 296 583 c 0,0,1
EndSplineSet
EndChar

StartChar: uni2074
Encoding: 8308 8308 520
Width: 512
VWidth: 2441
GlyphClass: 1
Flags: HW
LayerCount: 2
Fore
SplineSet
252 948 m 1,0,-1
 342 948 l 1,1,-1
 342 1193 l 1,2,-1
 252 948 l 1,0,-1
342 601 m 1,3,-1
 342 813 l 1,4,-1
 137 813 l 1,5,-1
 137 932 l 1,6,-1
 373 1545 l 1,7,-1
 464 1545 l 1,8,-1
 464 948 l 1,9,-1
 505 948 l 1,10,-1
 505 813 l 1,11,-1
 464 813 l 1,12,-1
 464 601 l 1,13,-1
 342 601 l 1,3,-1
EndSplineSet
EndChar

StartChar: uni2075
Encoding: 8309 8309 521
Width: 512
VWidth: 2441
GlyphClass: 1
Flags: HW
LayerCount: 2
Fore
SplineSet
305 583 m 0,0,1
 249 583 249 583 204 616.5 c 128,-1,2
 159 650 159 650 130 730 c 1,3,-1
 219 786 l 1,4,-1
 237 796 l 1,5,-1
 244 781 l 1,6,7
 242 767 242 767 248 753.5 c 128,-1,8
 254 740 254 740 275 715 c 0,9,10
 277 715 277 715 282.5 714 c 128,-1,11
 288 713 288 713 293 713 c 0,12,13
 328 713 328 713 341 765.5 c 128,-1,14
 354 818 354 818 354 901 c 0,15,16
 354 1104 354 1104 303 1104 c 0,17,18
 266 1104 266 1104 242 1045 c 1,19,-1
 156 1060 l 1,20,-1
 173 1543 l 1,21,-1
 452 1543 l 1,22,-1
 452 1414 l 1,23,-1
 288 1414 l 1,24,-1
 281 1186 l 1,25,26
 308 1223 308 1223 354 1223 c 0,27,28
 417 1223 417 1223 450.5 1145 c 128,-1,29
 484 1067 484 1067 484 901 c 0,30,31
 484 742 484 742 436 662.5 c 128,-1,32
 388 583 388 583 305 583 c 0,0,1
EndSplineSet
EndChar

StartChar: uni2076
Encoding: 8310 8310 522
Width: 512
VWidth: 2441
GlyphClass: 1
Flags: HW
LayerCount: 2
Fore
SplineSet
315 718 m 0,0,1
 336 718 336 718 346 757 c 128,-1,2
 356 796 356 796 356 901 c 0,3,4
 356 1079.00555556 356 1079.00555556 319.409969136 1079.00555556 c 0,5,6
 300.003753754 1079.00555556 300.003753754 1079.00555556 287.5 1060.5 c 128,-1,7
 275 1042 275 1042 266 1013 c 1,8,9
 264.75 977.5 264.75 977.5 264.75 946.09375 c 0,10,11
 264.75 851.875 264.75 851.875 276 794.5 c 0,12,13
 291 718 291 718 315 718 c 0,0,1
315 587 m 0,14,15
 227 587 227 587 183 691.5 c 128,-1,16
 139 796 139 796 139 1030 c 0,17,18
 139 1305 139 1305 193 1430.5 c 128,-1,19
 247 1556 247 1556 347 1556 c 0,20,21
 435 1556 435 1556 480 1453 c 1,22,-1
 417 1363 l 1,23,-1
 408 1345 l 1,24,-1
 396 1355 l 1,25,26
 394 1369 394 1369 387 1384.5 c 128,-1,27
 380 1400 380 1400 356 1421 c 1,28,-1
 347 1421 l 2,29,30
 333 1421 333 1421 313 1400 c 128,-1,31
 293 1379 293 1379 279.5 1323 c 128,-1,32
 266 1267 266 1267 263 1158 c 1,33,34
 294.418181818 1211.01818182 294.418181818 1211.01818182 347.043636364 1211.01818182 c 0,35,36
 348.018181818 1211.01818182 348.018181818 1211.01818182 349 1211 c 0,37,38
 407 1211 407 1211 441.5 1135.5 c 128,-1,39
 476 1060 476 1060 476 904 c 0,40,41
 476 753 476 753 436 670 c 128,-1,42
 396 587 396 587 315 587 c 0,14,15
EndSplineSet
EndChar

StartChar: uni2077
Encoding: 8311 8311 523
Width: 512
VWidth: 2441
GlyphClass: 1
Flags: HW
LayerCount: 2
Fore
SplineSet
186 601 m 1,0,1
 223 816 223 816 253.5 1010 c 128,-1,2
 284 1204 284 1204 327 1411 c 1,3,-1
 149 1411 l 1,4,-1
 149 1543 l 1,5,-1
 471 1543 l 1,6,-1
 471 1447 l 1,7,8
 422 1230 422 1230 390.5 1028.5 c 128,-1,9
 359 827 359 827 324 601 c 1,10,-1
 186 601 l 1,0,1
EndSplineSet
EndChar

StartChar: uni2078
Encoding: 8312 8312 524
Width: 512
VWidth: 2441
GlyphClass: 1
Flags: HW
LayerCount: 2
Fore
SplineSet
308 715 m 0,0,1
 332 715 332 715 345.5 742 c 128,-1,2
 359 769 359 769 359 848 c 0,3,4
 359 980 359 980 305 1025 c 1,5,6
 281 1004 281 1004 267.5 962 c 128,-1,7
 254 920 254 920 254 852 c 0,8,9
 254 773 254 773 270.5 744 c 128,-1,10
 287 715 287 715 308 715 c 0,0,1
317 1169 m 1,11,12
 334 1188 334 1188 340.5 1234.5 c 128,-1,13
 347 1281 347 1281 347 1326 c 0,14,15
 347 1423.01010101 347 1423.01010101 308.783899602 1423.01010101 c 0,16,17
 308.393939394 1423.01010101 308.393939394 1423.01010101 308 1423 c 0,18,19
 289 1423 289 1423 280 1398.5 c 128,-1,20
 271 1374 271 1374 271 1330 c 0,21,22
 271 1213 271 1213 317 1169 c 1,11,12
305 587 m 128,-1,24
 222 587 222 587 177 654.5 c 128,-1,25
 132 722 132 722 132 840 c 0,26,27
 132 1024 132 1024 230 1111 c 1,28,29
 191 1150 191 1150 175 1202.5 c 128,-1,30
 159 1255 159 1255 159 1321 c 0,31,32
 159 1428 159 1428 200.5 1493 c 128,-1,33
 242 1558 242 1558 310 1558 c 0,34,35
 380 1558 380 1558 420.5 1495.5 c 128,-1,36
 461 1433 461 1433 461 1330 c 0,37,38
 461 1262 461 1262 448 1199.5 c 128,-1,39
 435 1137 435 1137 398 1101 c 1,40,41
 444 1057 444 1057 461 997 c 128,-1,42
 478 937 478 937 478 845 c 0,43,44
 478 726 478 726 433 656.5 c 128,-1,23
 388 587 388 587 305 587 c 128,-1,24
EndSplineSet
EndChar

StartChar: uni2079
Encoding: 8313 8313 525
Width: 512
VWidth: 2441
GlyphClass: 1
Flags: HW
LayerCount: 2
Fore
SplineSet
256 1240 m 0,0,1
 256 1070 256 1070 315 1069 c 0,2,3
 342 1069 342 1069 356 1079 c 1,4,-1
 356 1081 l 2,5,6
 356 1220 356 1220 351.5 1293.5 c 128,-1,7
 347 1367 347 1367 335.5 1394 c 128,-1,8
 324 1421 324 1421 305 1421 c 0,9,10
 284 1421 284 1421 270 1383 c 128,-1,11
 256 1345 256 1345 256 1240 c 0,0,1
286 587 m 0,12,13
 181 587 181 587 132 683 c 1,14,-1
 198 771 l 1,15,-1
 210 792 l 1,16,-1
 224 781 l 1,17,18
 226 764 226 764 235 749 c 128,-1,19
 244 734 244 734 271 713 c 1,20,21
 271 715 271 715 275 715 c 0,22,23
 312 715 312 715 330.5 783.5 c 128,-1,24
 349 852 349 852 354 957 c 1,25,26
 335 940 335 940 303 939 c 0,27,28
 237 939 237 939 188 1012.5 c 128,-1,29
 139 1086 139 1086 139 1240 c 0,30,31
 139 1403 139 1403 187 1476.5 c 128,-1,32
 235 1550 235 1550 305 1550 c 0,33,34
 396 1550 396 1550 436 1452.5 c 128,-1,35
 476 1355 476 1355 476 1148 c 0,36,37
 476 843 476 843 428.5 716 c 128,-1,38
 381 589 381 589 286 587 c 0,12,13
EndSplineSet
EndChar

StartChar: fraction
Encoding: 8260 8260 526
Width: 512
VWidth: 2441
GlyphClass: 1
Flags: HW
LayerCount: 2
Fore
SplineSet
147 -105 m 1,0,-1
 52 -63 l 1,1,-1
 437 1638 l 1,2,-1
 532 1591 l 1,3,-1
 147 -105 l 1,0,-1
EndSplineSet
EndChar

StartChar: onehalf
Encoding: 189 189 527
Width: 512
VWidth: 2441
GlyphClass: 1
Flags: HW
LayerCount: 2
Fore
SplineSet
264 -170 m 1,0,-1
 264 -88 l 1,1,2
 308 26 308 26 335.5 103.5 c 128,-1,3
 363 181 363 181 376.5 242 c 128,-1,4
 390 303 390 303 392 368 c 0,5,6
 392 403 392 403 385.5 433.5 c 128,-1,7
 379 464 379 464 367 464 c 0,8,9
 353 464 353 464 344 454.5 c 128,-1,10
 335 445 335 445 322 401 c 1,11,-1
 254 429 l 1,12,13
 270 497 270 497 295 539 c 128,-1,14
 320 581 320 581 373 581 c 0,15,16
 423 581 423 581 452 527 c 128,-1,17
 481 473 481 473 481 366 c 0,18,19
 481 291 481 291 469 229.5 c 128,-1,20
 457 168 457 168 434 102.5 c 128,-1,21
 411 37 411 37 377 -56 c 1,22,-1
 481 -56 l 1,23,-1
 481 -170 l 1,24,-1
 264 -170 l 1,0,-1
115 -105 m 1,25,-1
 35 -63 l 1,26,-1
 360 1638 l 1,27,-1
 439 1591 l 1,28,-1
 115 -105 l 1,25,-1
65 927 m 1,29,-1
 65 1509 l 1,30,-1
 16 1463 l 1,31,-1
 1 1572 l 1,32,-1
 90 1675 l 1,33,-1
 153 1675 l 1,34,-1
 153 927 l 1,35,-1
 65 927 l 1,29,-1
EndSplineSet
EndChar

StartChar: onequarter
Encoding: 188 188 528
Width: 512
VWidth: 2441
GlyphClass: 1
Flags: HW
LayerCount: 2
Fore
SplineSet
316 107 m 1,0,-1
 368 107 l 1,1,-1
 368 281 l 1,2,-1
 316 107 l 1,0,-1
367 -170 m 1,3,-1
 367 -5 l 1,4,-1
 239 -5 l 1,5,-1
 239 98 l 1,6,-1
 392 576 l 1,7,-1
 451 576 l 1,8,-1
 451 107 l 1,9,-1
 475 107 l 1,10,-1
 475 -7 l 1,11,-1
 451 -7 l 1,12,-1
 451 -170 l 1,13,-1
 367 -170 l 1,3,-1
107 -105 m 1,14,-1
 29 -63 l 1,15,-1
 349 1638 l 1,16,-1
 428 1591 l 1,17,-1
 107 -105 l 1,14,-1
58 927 m 1,18,-1
 58 1509 l 1,19,-1
 9 1463 l 1,20,-1
 -5 1572 l 1,21,-1
 83 1675 l 1,22,-1
 145 1675 l 1,23,-1
 145 927 l 1,24,-1
 58 927 l 1,18,-1
EndSplineSet
EndChar

StartChar: threequarters
Encoding: 190 190 529
Width: 512
VWidth: 2441
GlyphClass: 1
Flags: HW
LayerCount: 2
Fore
SplineSet
355 107 m 1,0,-1
 355 281 l 1,1,-1
 304 107 l 1,2,-1
 355 107 l 1,0,-1
353 -5 m 1,3,-1
 230 -5 l 1,4,-1
 230 98 l 1,5,-1
 378 576 l 1,6,-1
 435 576 l 1,7,-1
 435 107 l 1,8,-1
 458 107 l 1,9,-1
 458 -7 l 1,10,-1
 435 -7 l 1,11,-1
 435 -170 l 1,12,-1
 353 -170 l 1,13,-1
 353 -5 l 1,3,-1
103 -105 m 1,14,-1
 27 -63 l 1,15,-1
 337 1638 l 1,16,-1
 413 1591 l 1,17,-1
 103 -105 l 1,14,-1
84 916 m 0,18,19
 50 916 50 916 22.5 942.5 c 128,-1,20
 -5 969 -5 969 -22 1013 c 1,21,-1
 29 1062 l 1,22,-1
 44 1074 l 1,23,-1
 48 1067 l 1,24,25
 42 1053 42 1053 45 1045 c 128,-1,26
 48 1037 48 1037 60 1023 c 0,27,28
 66 1013 66 1013 76 1013 c 0,29,30
 91 1013 91 1013 101.5 1039 c 128,-1,31
 112 1065 112 1065 112 1137 c 0,32,33
 112 1220 112 1220 96 1246 c 128,-1,34
 80 1272 80 1272 42 1265 c 1,35,-1
 42 1367 l 1,36,37
 86 1367 86 1367 94.5 1402.5 c 128,-1,38
 103 1438 103 1438 103 1491 c 0,39,40
 103 1582 103 1582 80 1582 c 0,41,42
 61 1582 61 1582 47 1533 c 1,43,-1
 -13 1580 l 1,44,45
 19 1680 19 1680 84 1680 c 0,46,47
 126 1680 126 1680 155.5 1635.5 c 128,-1,48
 185 1591 185 1591 185 1491 c 0,49,50
 185 1433 185 1433 174.5 1390 c 128,-1,51
 164 1347 164 1347 141 1326 c 1,52,53
 166 1302 166 1302 180 1256.5 c 128,-1,54
 194 1211 194 1211 194 1132 c 0,55,56
 194 1022 194 1022 162.5 969 c 128,-1,57
 131 916 131 916 84 916 c 0,18,19
EndSplineSet
EndChar

StartChar: uni2070.ss02
Encoding: 65566 -1 533
Width: 512
VWidth: 2441
GlyphClass: 1
Flags: HW
LayerCount: 2
Fore
SplineSet
305 718 m 0,0,1
 337 718 337 718 350.5 797 c 128,-1,2
 364 876 364 876 364 1067 c 0,3,4
 364 1248 364 1248 349.5 1332 c 128,-1,5
 335 1416 335 1416 305 1416 c 128,-1,6
 275 1416 275 1416 261 1332 c 128,-1,7
 247 1248 247 1248 247 1067 c 0,8,9
 247 876 247 876 262.5 797 c 128,-1,10
 278 718 278 718 305 718 c 0,0,1
305 583 m 0,11,12
 226 583 226 583 175 689.5 c 128,-1,13
 124 796 124 796 124 1067 c 0,14,15
 124 1333 124 1333 175 1441.5 c 128,-1,16
 226 1550 226 1550 305 1550 c 128,-1,17
 384 1550 384 1550 435 1441.5 c 128,-1,18
 486 1333 486 1333 486 1067 c 0,19,20
 486 883 486 883 463 778.5 c 128,-1,21
 440 674 440 674 398 628.5 c 128,-1,22
 356 583 356 583 305 583 c 0,11,12
EndSplineSet
EndChar

StartChar: uni2070.zero
Encoding: 65570 -1 537
Width: 512
VWidth: 2441
GlyphClass: 1
Flags: HW
LayerCount: 2
Fore
SplineSet
308 1048 m 0,0,1
 289 1048 289 1048 272.5 1063.5 c 128,-1,2
 256 1079 256 1079 256 1101 c 0,3,4
 256 1125 256 1125 272 1141.5 c 128,-1,5
 288 1158 288 1158 308 1158 c 0,6,7
 329 1158 329 1158 344 1141.5 c 128,-1,8
 359 1125 359 1125 359 1101 c 0,9,10
 359 1080 359 1080 344 1064 c 128,-1,11
 329 1048 329 1048 308 1048 c 0,0,1
305 718 m 0,12,13
 337 718 337 718 350.5 797 c 128,-1,14
 364 876 364 876 364 1067 c 0,15,16
 364 1248 364 1248 349.5 1332 c 128,-1,17
 335 1416 335 1416 305 1416 c 128,-1,18
 275 1416 275 1416 261 1332 c 128,-1,19
 247 1248 247 1248 247 1067 c 0,20,21
 247 876 247 876 262.5 797 c 128,-1,22
 278 718 278 718 305 718 c 0,12,13
305 583 m 0,23,24
 226 583 226 583 175 689.5 c 128,-1,25
 124 796 124 796 124 1067 c 0,26,27
 124 1333 124 1333 175 1441.5 c 128,-1,28
 226 1550 226 1550 305 1550 c 128,-1,29
 384 1550 384 1550 435 1441.5 c 128,-1,30
 486 1333 486 1333 486 1067 c 0,31,32
 486 883 486 883 463 778.5 c 128,-1,33
 440 674 440 674 398 628.5 c 128,-1,34
 356 583 356 583 305 583 c 0,23,24
EndSplineSet
EndChar

StartChar: period
Encoding: 46 46 538
Width: 512
VWidth: 2607
GlyphClass: 1
Flags: HW
LayerCount: 2
Fore
SplineSet
298 139 m 128,-1,1
 249 139 249 139 214 175.5 c 128,-1,2
 179 212 179 212 179 264 c 0,3,4
 179 318 179 318 214 354 c 128,-1,5
 249 390 249 390 298 390 c 128,-1,6
 347 390 347 390 382 353.5 c 128,-1,7
 417 317 417 317 417 264 c 0,8,9
 417 213 417 213 382 176 c 128,-1,0
 347 139 347 139 298 139 c 128,-1,1
EndSplineSet
EndChar

StartChar: comma
Encoding: 44 44 539
Width: 512
VWidth: 2607
GlyphClass: 1
Flags: HW
LayerCount: 2
Fore
SplineSet
286 -244 m 1,0,-1
 179 -167 l 1,1,2
 223 -104 223 -104 250.5 -40 c 128,-1,3
 278 24 278 24 278 78 c 0,4,5
 278 110 278 110 263.5 137 c 128,-1,6
 249 164 249 164 233 193 c 128,-1,7
 217 222 217 222 217 266 c 0,8,9
 217 329 217 329 254 367.5 c 128,-1,10
 291 406 291 406 335 406 c 0,11,12
 384 406 384 406 420.5 366.5 c 128,-1,13
 457 327 457 327 457 239 c 0,14,15
 457 122 457 122 413 -1.5 c 128,-1,16
 369 -125 369 -125 286 -244 c 1,0,-1
EndSplineSet
EndChar

StartChar: colon
Encoding: 58 58 540
Width: 512
VWidth: 2716
GlyphClass: 1
Flags: HW
LayerCount: 2
Fore
SplineSet
293 248 m 128,-1,1
 242 248 242 248 206 284.5 c 128,-1,2
 170 321 170 321 170 373 c 0,3,4
 170 427 170 427 207 464 c 128,-1,5
 244 501 244 501 293 501 c 128,-1,6
 342 501 342 501 379.5 463.5 c 128,-1,7
 417 426 417 426 417 373 c 0,8,9
 417 322 417 322 380.5 285 c 128,-1,0
 344 248 344 248 293 248 c 128,-1,1
293 1039 m 0,10,11
 244 1039 244 1039 207 1077 c 128,-1,12
 170 1115 170 1115 170 1167 c 0,13,14
 170 1221 170 1221 207 1257 c 128,-1,15
 244 1293 244 1293 293 1293 c 128,-1,16
 342 1293 342 1293 379.5 1256.5 c 128,-1,17
 417 1220 417 1220 417 1167 c 0,18,19
 417 1116 417 1116 380.5 1077.5 c 128,-1,20
 344 1039 344 1039 293 1039 c 0,10,11
EndSplineSet
EndChar

StartChar: semicolon
Encoding: 59 59 541
Width: 512
VWidth: 2716
GlyphClass: 1
Flags: HW
LayerCount: 2
Fore
SplineSet
256 -135 m 1,0,-1
 149 -58 l 1,1,2
 195 5 195 5 223.5 69 c 128,-1,3
 252 133 252 133 252 187 c 0,4,5
 252 219 252 219 235.5 246 c 128,-1,6
 219 273 219 273 205 302 c 128,-1,7
 191 331 191 331 191 375 c 0,8,9
 191 438 191 438 226 476.5 c 128,-1,10
 261 515 261 515 305 515 c 0,11,12
 354 515 354 515 390.5 475.5 c 128,-1,13
 427 436 427 436 427 348 c 0,14,15
 427 231 427 231 383 107.5 c 128,-1,16
 339 -16 339 -16 256 -135 c 1,0,-1
293 1039 m 0,17,18
 244 1039 244 1039 207 1077 c 128,-1,19
 170 1115 170 1115 170 1167 c 0,20,21
 170 1221 170 1221 207 1257 c 128,-1,22
 244 1293 244 1293 293 1293 c 128,-1,23
 342 1293 342 1293 379.5 1256.5 c 128,-1,24
 417 1220 417 1220 417 1167 c 0,25,26
 417 1116 417 1116 380.5 1077.5 c 128,-1,27
 344 1039 344 1039 293 1039 c 0,17,18
EndSplineSet
EndChar

StartChar: ellipsis
Encoding: 8230 8230 542
Width: 512
VWidth: 2441
GlyphClass: 1
Flags: HW
LayerCount: 2
Fore
SplineSet
74 -24 m 128,-1,1
 42 -24 42 -24 20.5 9 c 128,-1,2
 -1 42 -1 42 -1 86 c 128,-1,3
 -1 130 -1 130 21 163 c 128,-1,4
 43 196 43 196 74 196 c 0,5,6
 106 196 106 196 129 163 c 128,-1,7
 152 130 152 130 152 86 c 128,-1,8
 152 42 152 42 129 9 c 128,-1,0
 106 -24 106 -24 74 -24 c 128,-1,1
237 -24 m 128,-1,10
 205 -24 205 -24 183.5 9 c 128,-1,11
 162 42 162 42 162 86 c 128,-1,12
 162 130 162 130 183.5 163 c 128,-1,13
 205 196 205 196 237 196 c 128,-1,14
 269 196 269 196 291.5 163 c 128,-1,15
 314 130 314 130 314 86 c 128,-1,16
 314 42 314 42 291.5 9 c 128,-1,9
 269 -24 269 -24 237 -24 c 128,-1,10
402 -24 m 128,-1,18
 370 -24 370 -24 348 9 c 128,-1,19
 326 42 326 42 326 86 c 128,-1,20
 326 130 326 130 348 163 c 128,-1,21
 370 196 370 196 402 196 c 128,-1,22
 434 196 434 196 456.5 163 c 128,-1,23
 479 130 479 130 479 86 c 128,-1,24
 479 42 479 42 456.5 9 c 128,-1,17
 434 -24 434 -24 402 -24 c 128,-1,18
EndSplineSet
EndChar

StartChar: exclam
Encoding: 33 33 543
Width: 512
VWidth: 2441
GlyphClass: 1
Flags: HW
LayerCount: 2
Fore
SplineSet
298 -27 m 128,-1,1
 249 -27 249 -27 214 9.5 c 128,-1,2
 179 46 179 46 179 98 c 0,3,4
 179 152 179 152 214 188 c 128,-1,5
 249 224 249 224 298 224 c 128,-1,6
 347 224 347 224 382 187.5 c 128,-1,7
 417 151 417 151 417 98 c 0,8,9
 417 47 417 47 382 10 c 128,-1,0
 347 -27 347 -27 298 -27 c 128,-1,1
235 473 m 1,10,-1
 184 1470 l 2,11,12
 183.870967742 1474.83870968 183.870967742 1474.83870968 183.870967742 1479.54422477 c 0,13,14
 183.870967742 1547.77419355 183.870967742 1547.77419355 211 1588 c 0,15,16
 240 1631 240 1631 288 1631 c 0,17,18
 337 1631 337 1631 366.5 1588 c 0,19,20
 393.276923077 1548.96923077 393.276923077 1548.96923077 393.276923077 1462.97585799 c 0,21,22
 393.276923077 1454.23076923 393.276923077 1454.23076923 393 1445 c 2,23,-1
 337 473 l 1,24,-1
 235 473 l 1,10,-1
EndSplineSet
EndChar

StartChar: question
Encoding: 63 63 545
Width: 512
VWidth: 2441
GlyphClass: 1
Flags: HW
LayerCount: 2
Fore
SplineSet
337 -27 m 0,0,1
 286 -27 286 -27 251.5 9.5 c 128,-1,2
 217 46 217 46 217 98 c 0,3,4
 217 152 217 152 251.5 188 c 128,-1,5
 286 224 286 224 337 224 c 0,6,7
 386 224 386 224 420 187.5 c 128,-1,8
 454 151 454 151 454 98 c 0,9,10
 454 47 454 47 420 10 c 128,-1,11
 386 -27 386 -27 337 -27 c 0,0,1
256 527 m 2,12,13
 256 637 256 637 270 711.5 c 128,-1,14
 284 786 284 786 304 841 c 128,-1,15
 324 896 324 896 345 948.5 c 128,-1,16
 366 1001 366 1001 381 1069 c 128,-1,17
 396 1137 396 1137 396 1237 c 0,18,19
 396 1325 396 1325 374 1381.5 c 128,-1,20
 352 1438 352 1438 308 1438 c 0,21,22
 262 1438 262 1438 226 1374 c 0,23,24
 209 1337 209 1337 207 1319.5 c 128,-1,25
 205 1302 205 1302 212 1281 c 1,26,-1
 205 1267 l 1,27,-1
 184 1277 l 1,28,-1
 75 1377 l 1,29,30
 114 1496 114 1496 179 1560 c 128,-1,31
 244 1624 244 1624 337 1624 c 0,32,33
 435 1624 435 1624 493.5 1528.5 c 128,-1,34
 552 1433 552 1433 552 1225 c 0,35,36
 552 1111 552 1111 537 1036.5 c 128,-1,37
 522 962 522 962 503 907 c 128,-1,38
 484 852 484 852 463 802 c 128,-1,39
 442 752 442 752 428.5 687 c 128,-1,40
 415 622 415 622 415 527 c 2,41,-1
 415 427 l 1,42,-1
 256 427 l 1,43,-1
 256 527 l 2,12,13
EndSplineSet
EndChar

StartChar: periodcentered
Encoding: 183 183 547
Width: 512
VWidth: 2441
GlyphClass: 1
Flags: HW
LayerCount: 2
Fore
SplineSet
298 691 m 128,-1,1
 249 691 249 691 214 727.5 c 128,-1,2
 179 764 179 764 179 815 c 0,3,4
 179 869 179 869 214 906 c 128,-1,5
 249 943 249 943 298 943 c 128,-1,6
 347 943 347 943 382 906 c 128,-1,7
 417 869 417 869 417 815 c 0,8,9
 417 764 417 764 382 727.5 c 128,-1,0
 347 691 347 691 298 691 c 128,-1,1
EndSplineSet
Substitution2: "Single Substitution lookup 11 subtable" periodcentered.loclCAT
Substitution2: "Single Substitution lookup 10 subtable" periodcentered.loclCAT
Substitution2: "'aalt' Access All Alternates in Latin lookup 0 subtable" periodcentered.loclCAT
EndChar

StartChar: bullet
Encoding: 8226 8226 548
Width: 512
VWidth: 2441
GlyphClass: 1
Flags: HW
LayerCount: 2
Fore
SplineSet
312 542 m 128,-1,1
 242 542 242 542 192 594.5 c 128,-1,2
 142 647 142 647 142 720 c 0,3,4
 142 795 142 795 194.5 848 c 128,-1,5
 247 901 247 901 312 901 c 0,6,7
 380 901 380 901 432 847.5 c 128,-1,8
 484 794 484 794 484 720 c 0,9,10
 484 647 484 647 433 594.5 c 128,-1,0
 382 542 382 542 312 542 c 128,-1,1
EndSplineSet
EndChar

StartChar: asterisk
Encoding: 42 42 549
Width: 512
VWidth: 2441
GlyphClass: 1
Flags: HW
LayerCount: 2
Fore
SplineSet
171 271 m 1,0,-1
 47 410 l 1,1,-1
 185 764 l 1,2,-1
 33 848 l 1,3,-1
 82 1079 l 1,4,-1
 214 937 l 1,5,-1
 192 1323 l 1,6,-1
 354 1323 l 1,7,-1
 329 937 l 1,8,-1
 469 1069 l 1,9,-1
 513 848 l 1,10,-1
 345 764 l 1,11,-1
 485 415 l 1,12,-1
 364 271 l 1,13,-1
 269 613 l 1,14,-1
 171 271 l 1,0,-1
EndSplineSet
Substitution2: "'ss01' Style Set 1 in Latin lookup 35 subtable" asterisk.ss01
Substitution2: "'salt' Stylistic Alternatives in Latin lookup 34 subtable" asterisk.ss01
Substitution2: "'aalt' Access All Alternates in Latin lookup 0 subtable" asterisk.ss01
EndChar

StartChar: uni2E12
Encoding: 11794 11794 550
Width: 512
VWidth: 2212
GlyphClass: 1
Flags: HW
LayerCount: 2
Fore
SplineSet
218 -246 m 1,0,-1
 218 -113 l 1,1,2
 255 -113 255 -113 270 -67.5 c 128,-1,3
 285 -22 285 -22 285 47 c 0,4,5
 285 117 285 117 270 164 c 128,-1,6
 255 211 255 211 218 211 c 1,7,-1
 218 340 l 1,8,9
 292 340 292 340 338.5 274.5 c 128,-1,10
 385 209 385 209 385 45 c 0,11,12
 385 -114 385 -114 338.5 -180 c 128,-1,13
 292 -246 292 -246 218 -246 c 1,0,-1
EndSplineSet
EndChar

StartChar: numbersign
Encoding: 35 35 551
Width: 512
VWidth: 2441
GlyphClass: 1
Flags: HW
LayerCount: 2
Fore
SplineSet
220 606 m 1,0,-1
 302 606 l 1,1,-1
 320 972 l 1,2,-1
 241 972 l 1,3,-1
 220 606 l 1,0,-1
269 24 m 1,4,-1
 295 447 l 1,5,-1
 214 447 l 1,6,-1
 190 35 l 1,7,-1
 75 32 l 1,8,-1
 98 442 l 1,9,-1
 28 442 l 1,10,-1
 32 601 l 1,11,-1
 104 601 l 1,12,-1
 124 969 l 1,13,-1
 43 969 l 1,14,-1
 45 1130 l 1,15,-1
 128 1130 l 1,16,-1
 151 1523 l 1,17,-1
 269 1528 l 1,18,-1
 246 1135 l 1,19,-1
 327 1135 l 1,20,-1
 349 1519 l 1,21,-1
 469 1521 l 1,22,-1
 445 1140 l 1,23,-1
 508 1140 l 1,24,-1
 502 976 l 1,25,-1
 440 976 l 1,26,-1
 418 613 l 1,27,-1
 498 613 l 1,28,-1
 491 454 l 1,29,-1
 414 454 l 1,30,-1
 389 35 l 1,31,-1
 269 24 l 1,4,-1
EndSplineSet
EndChar

StartChar: slash
Encoding: 47 47 552
Width: 512
VWidth: 2441
GlyphClass: 1
Flags: HW
LayerCount: 2
Fore
SplineSet
208 -103 m 1,0,-1
 51 -56 l 1,1,-1
 374 1624 l 1,2,-1
 531 1572 l 1,3,-1
 208 -103 l 1,0,-1
EndSplineSet
Substitution2: "'frac' Diagonal Fractions in Latin lookup 23 subtable" fraction
Substitution2: "'aalt' Access All Alternates in Latin lookup 0 subtable" fraction
EndChar

StartChar: backslash
Encoding: 92 92 553
Width: 512
VWidth: 2441
GlyphClass: 1
Flags: HW
LayerCount: 2
Fore
SplineSet
374 -103 m 1,0,-1
 51 1572 l 1,1,-1
 208 1624 l 1,2,-1
 531 -56 l 1,3,-1
 374 -103 l 1,0,-1
EndSplineSet
EndChar

StartChar: asterisk.ss01
Encoding: 65572 -1 555
Width: 512
VWidth: 2441
GlyphClass: 1
Flags: HW
LayerCount: 2
Fore
SplineSet
171 417 m 1,0,-1
 47 557 l 1,1,-1
 185 911 l 1,2,-1
 33 994 l 1,3,-1
 82 1225 l 1,4,-1
 214 1084 l 1,5,-1
 192 1470 l 1,6,-1
 354 1470 l 1,7,-1
 329 1084 l 1,8,-1
 469 1216 l 1,9,-1
 513 994 l 1,10,-1
 345 911 l 1,11,-1
 485 561 l 1,12,-1
 364 417 l 1,13,-1
 269 759 l 1,14,-1
 171 417 l 1,0,-1
EndSplineSet
EndChar

StartChar: parenleft
Encoding: 40 40 556
Width: 512
VWidth: 2449
GlyphClass: 1
Flags: HW
LayerCount: 2
Fore
SplineSet
432 -246 m 1,0,1
 332 -151 332 -151 251 9 c 128,-1,2
 170 169 170 169 124.5 370.5 c 128,-1,3
 79 572 79 572 79 789 c 128,-1,4
 79 1006 79 1006 124.5 1202.5 c 128,-1,5
 170 1399 170 1399 248.5 1554 c 128,-1,6
 327 1709 327 1709 424 1802 c 1,7,-1
 535 1636 l 1,8,9
 418 1506 418 1506 338.5 1283.5 c 128,-1,10
 259 1061 259 1061 259 786 c 0,11,12
 259 602 259 602 293 434.5 c 128,-1,13
 327 267 327 267 388 129 c 128,-1,14
 449 -9 449 -9 532 -97 c 1,15,-1
 432 -246 l 1,0,1
EndSplineSet
EndChar

StartChar: parenright
Encoding: 41 41 557
Width: 512
VWidth: 2449
GlyphClass: 1
Flags: HW
LayerCount: 2
Fore
SplineSet
191 -246 m 1
 291 -151 291 -151 371 9 c 0
 452 169 452 169 498 370 c 0
 544 571 544 571 545 789 c 0
 545 1006 545 1006 498 1202 c 0
 452 1399 452 1399 373 1554 c 0
 294 1709 294 1709 198 1802 c 1
 88 1636 l 1
 205 1506 205 1506 285 1284 c 0
 364.012345679 1063.75308642 364.012345679 1063.75308642 364.012345679 792.782197836 c 0,0,0
 364.012345679 789.395061728 364.012345679 789.395061728 364 786 c 0
 364 602 364 602 329 435 c 0
 294 267 294 267 235 128 c 0
 174 -10 174 -10 91 -97 c 1
 191 -246 l 1
EndSplineSet
EndChar

StartChar: braceleft
Encoding: 123 123 558
Width: 512
VWidth: 2486
GlyphClass: 1
Flags: HW
LayerCount: 2
Fore
SplineSet
486 -187 m 2,0,1
 398 -187 398 -187 328.5 -151.5 c 128,-1,2
 259 -116 259 -116 220 -23.5 c 128,-1,3
 183.785714286 62.3928571429 183.785714286 62.3928571429 183.785714286 216.834183673 c 0,0,0
 183.785714286 228.714285714 183.785714286 228.714285714 184 241 c 2,4,-1
 188 485 l 2,5,6
 188 592 188 592 175.5 644.5 c 128,-1,7
 163 697 163 697 138.5 712.5 c 128,-1,8
 114 728 114 728 79 728 c 2,9,-1
 54 728 l 1,10,-1
 54 924 l 1,11,-1
 79 924 l 2,12,13
 135 924 135 924 163 970.5 c 128,-1,14
 191 1017 191 1017 191 1156 c 2,15,-1
 188 1331 l 2,16,17
 188 1543 188 1543 266.5 1650 c 128,-1,18
 345 1757 345 1757 454 1757 c 2,19,-1
 532 1757 l 1,20,-1
 532 1580 l 1,21,-1
 464 1580 l 2,22,23
 422 1580 422 1580 391.5 1526.5 c 128,-1,24
 363.731343284 1477.79104478 363.731343284 1477.79104478 363.731343284 1378.93272444 c 0,0,0
 363.731343284 1369.20895522 363.731343284 1369.20895522 364 1359 c 2,25,-1
 366 1187 l 2,26,27
 366 1052 366 1052 333 962 c 128,-1,28
 300 872 300 872 247 826 c 1,29,30
 298 787 298 787 331 695.5 c 128,-1,31
 364 604 364 604 364 448 c 2,32,-1
 361 243 l 2,33,34
 361 99 361 99 389 43 c 128,-1,35
 417 -13 417 -13 473 -13 c 2,36,-1
 529 -13 l 1,37,-1
 529 -187 l 1,38,-1
 486 -187 l 2,0,1
EndSplineSet
EndChar

StartChar: braceright
Encoding: 125 125 559
Width: 512
VWidth: 2486
GlyphClass: 1
Flags: HW
LayerCount: 2
Fore
SplineSet
124 -187 m 2
 212 -187 212 -187 283 -152 c 0
 352 -116 352 -116 391 -23 c 0
 427.214285714 63.3571428571 427.214285714 63.3571428571 427.214285714 216.969387755 c 0,0,0
 427.214285714 228.785714286 427.214285714 228.785714286 427 241 c 2
 422 485 l 2
 422 592 422 592 435 645 c 0
 447 697 447 697 471 713 c 0
 495 728 495 728 532 728 c 2
 557 728 l 1
 557 924 l 1
 532 924 l 2
 476 924 476 924 448 970 c 0
 419.966666667 1014.46666667 419.966666667 1014.46666667 419.966666667 1146.77111111 c 0,0,0
 419.966666667 1151.33333333 419.966666667 1151.33333333 420 1156 c 2
 422 1331 l 2
 422 1543 422 1543 345 1651 c 0
 266 1757 266 1757 156 1757 c 2
 79 1757 l 1
 79 1580 l 1
 147 1580 l 2
 189 1580 189 1580 218 1527 c 0
 247.121212121 1476.27272727 247.121212121 1476.27272727 247.121212121 1372.59779614 c 0,0,0
 247.121212121 1365.90909091 247.121212121 1365.90909091 247 1359 c 2
 244 1187 l 2
 244 1052 244 1052 277 963 c 0
 310 872 310 872 364 826 c 1
 313 787 313 787 279 696 c 0
 246.970588235 606.705882353 246.970588235 606.705882353 246.970588235 457.121107266 c 0,0,0
 246.970588235 452.588235294 246.970588235 452.588235294 247 448 c 2
 249 243 l 2
 249 99 249 99 221 43 c 0
 192 -13 192 -13 137 -13 c 2
 81 -13 l 1
 81 -187 l 1
 124 -187 l 2
EndSplineSet
EndChar

StartChar: bracketleft
Encoding: 91 91 560
Width: 512
VWidth: 2516
GlyphClass: 1
Flags: HW
LayerCount: 2
Fore
SplineSet
112 -142 m 1,0,-1
 112 1711 l 1,1,-1
 510 1711 l 1,2,-1
 510 1513 l 1,3,-1
 288 1513 l 1,4,-1
 288 48 l 1,5,-1
 513 48 l 1,6,-1
 513 -142 l 1,7,-1
 112 -142 l 1,0,-1
EndSplineSet
EndChar

StartChar: bracketright
Encoding: 93 93 561
Width: 512
VWidth: 2516
GlyphClass: 1
Flags: HW
LayerCount: 2
Fore
SplineSet
498 -142 m 1
 498 1711 l 1
 100 1711 l 1
 100 1513 l 1
 322 1513 l 1
 322 48 l 1
 98 48 l 1
 98 -142 l 1
 498 -142 l 1
EndSplineSet
EndChar

StartChar: hyphen
Encoding: 45 45 562
Width: 512
VWidth: 2441
GlyphClass: 1
Flags: HW
LayerCount: 2
Fore
SplineSet
126 681 m 1,0,-1
 126 876 l 1,1,-1
 489 876 l 1,2,-1
 489 681 l 1,3,-1
 126 681 l 1,0,-1
EndSplineSet
EndChar

StartChar: endash
Encoding: 8211 8211 564
Width: 512
VWidth: 2441
GlyphClass: 1
Flags: HW
LayerCount: 2
Fore
SplineSet
79 681 m 1,0,-1
 79 876 l 1,1,-1
 538 876 l 1,2,-1
 538 681 l 1,3,-1
 79 681 l 1,0,-1
EndSplineSet
EndChar

StartChar: emdash
Encoding: 8212 8212 565
Width: 512
VWidth: 2441
GlyphClass: 1
Flags: HW
LayerCount: 2
Fore
SplineSet
3 681 m 1,0,-1
 3 876 l 1,1,-1
 483 876 l 1,2,-1
 483 681 l 1,3,-1
 3 681 l 1,0,-1
EndSplineSet
EndChar

StartChar: underscore
Encoding: 95 95 569
Width: 512
VWidth: 2441
GlyphClass: 1
Flags: HW
LayerCount: 2
Fore
SplineSet
33 -240 m 1,0,-1
 33 -49 l 1,1,-1
 513 -49 l 1,2,-1
 513 -240 l 1,3,-1
 33 -240 l 1,0,-1
EndSplineSet
EndChar

StartChar: quotedblleft
Encoding: 8220 8220 572
Width: 512
VWidth: 2441
GlyphClass: 1
Flags: HW
LayerCount: 2
Fore
SplineSet
183 1558 m 1,0,-1
 273 1479 l 1,1,2
 235 1413 235 1413 210 1346 c 128,-1,3
 185 1279 185 1279 185 1221 c 0,4,5
 185 1186 185 1186 198.5 1163 c 128,-1,6
 212 1140 212 1140 225 1113 c 128,-1,7
 238 1086 238 1086 238 1045 c 0,8,9
 238 984 238 984 209.5 946 c 128,-1,10
 181 908 181 908 143 908 c 0,11,12
 103 908 103 908 70.5 947 c 128,-1,13
 38 986 38 986 38 1065 c 0,14,15
 38 1175 38 1175 72 1292 c 128,-1,16
 106 1409 106 1409 183 1558 c 1,0,-1
429 1558 m 1,17,-1
 518 1479 l 1,18,19
 480 1413 480 1413 456 1346 c 128,-1,20
 432 1279 432 1279 432 1221 c 0,21,22
 432 1186 432 1186 445 1163 c 128,-1,23
 458 1140 458 1140 471.5 1113 c 128,-1,24
 485 1086 485 1086 485 1045 c 0,25,26
 485 984 485 984 456 946 c 128,-1,27
 427 908 427 908 390 908 c 0,28,29
 350 908 350 908 317 947 c 128,-1,30
 284 986 284 986 284 1065 c 0,31,32
 284 1175 284 1175 318 1292 c 128,-1,33
 352 1409 352 1409 429 1558 c 1,17,-1
EndSplineSet
EndChar

StartChar: quoteleft
Encoding: 8216 8216 574
Width: 512
VWidth: 2441
GlyphClass: 1
Flags: HW
LayerCount: 2
Fore
SplineSet
327 1558 m 1,0,-1
 435 1479 l 1,1,2
 391 1413 391 1413 362 1346 c 128,-1,3
 333 1279 333 1279 333 1221 c 0,4,5
 333 1186 333 1186 348.5 1163 c 128,-1,6
 364 1140 364 1140 378.5 1113 c 128,-1,7
 393 1086 393 1086 393 1045 c 0,8,9
 393 984 393 984 358.5 946 c 128,-1,10
 324 908 324 908 281 908 c 0,11,12
 235 908 235 908 195.5 947 c 128,-1,13
 156 986 156 986 156 1065 c 0,14,15
 156 1175 156 1175 196 1292 c 128,-1,16
 236 1409 236 1409 327 1558 c 1,0,-1
EndSplineSet
EndChar

StartChar: quoteright
Encoding: 8217 8217 575
Width: 512
VWidth: 2441
GlyphClass: 1
Flags: HW
LayerCount: 2
Fore
SplineSet
244 908 m 1,0,-1
 137 986 l 1,1,2
 181 1049 181 1049 210.5 1117.5 c 128,-1,3
 240 1186 240 1186 240 1245 c 0,4,5
 240 1280 240 1280 223.5 1303 c 128,-1,6
 207 1326 207 1326 193 1352.5 c 128,-1,7
 179 1379 179 1379 179 1421 c 0,8,9
 179 1482 179 1482 213 1520 c 128,-1,10
 247 1558 247 1558 291 1558 c 0,11,12
 337 1558 337 1558 376 1518.5 c 128,-1,13
 415 1479 415 1479 415 1402 c 0,14,15
 415 1292 415 1292 375 1173.5 c 128,-1,16
 335 1055 335 1055 244 908 c 1,0,-1
EndSplineSet
EndChar

StartChar: guillemotleft
Encoding: 171 171 576
Width: 512
VWidth: 2441
GlyphClass: 1
Flags: HW
LayerCount: 2
Fore
SplineSet
437 114 m 1,0,-1
 254 554 l 1,1,-1
 254 634 l 1,2,-1
 432 1020 l 1,3,-1
 516 881 l 1,4,-1
 379 591 l 1,5,-1
 522 244 l 1,6,-1
 437 114 l 1,0,-1
227 114 m 1,7,-1
 42 554 l 1,8,-1
 42 634 l 1,9,-1
 223 1020 l 1,10,-1
 300 888 l 1,11,-1
 170 591 l 1,12,-1
 309 242 l 1,13,-1
 227 114 l 1,7,-1
EndSplineSet
EndChar

StartChar: guilsinglleft
Encoding: 8249 8249 578
Width: 512
VWidth: 2441
GlyphClass: 1
Flags: HW
LayerCount: 2
Fore
SplineSet
354 105 m 1,0,-1
 149 545 l 1,1,-1
 149 627 l 1,2,-1
 349 1016 l 1,3,-1
 454 867 l 1,4,-1
 315 583 l 1,5,-1
 461 254 l 1,6,-1
 354 105 l 1,0,-1
EndSplineSet
EndChar

StartChar: guilsinglright
Encoding: 8250 8250 579
Width: 512
VWidth: 2441
GlyphClass: 1
Flags: HW
LayerCount: 2
Fore
SplineSet
235 105 m 1,0,-1
 130 254 l 1,1,-1
 275 583 l 1,2,-1
 135 867 l 1,3,-1
 240 1016 l 1,4,-1
 440 627 l 1,5,-1
 440 545 l 1,6,-1
 235 105 l 1,0,-1
EndSplineSet
EndChar

StartChar: quotedbl
Encoding: 34 34 580
Width: 512
VWidth: 2441
GlyphClass: 1
Flags: HW
LayerCount: 2
Fore
SplineSet
100 1624 m 1
 266 1624 l 1
 266 1477 266 1477 263 1389 c 0
 261 1301 261 1301 256 1241 c 0
 251 1181 251 1181 246 1127 c 0
 240 1072 240 1072 232 994 c 1
 135 994 l 1
 128 1073 128 1073 120 1127 c 0
 114 1182 114 1182 110 1240 c 0
 105 1298 105 1298 103 1388 c 0
 100 1477 100 1477 100 1624 c 1
345 1624 m 1
 510 1624 l 1
 510 1477 510 1477 508 1389 c 0
 506 1301 506 1301 501 1241 c 0
 496 1181 496 1181 490 1127 c 0
 484 1072 484 1072 476 994 c 1
 378 994 l 1
 371 1073 371 1073 365 1127 c 0
 359 1182 359 1182 354 1240 c 0
 349 1298 349 1298 347 1388 c 0
 345 1477 345 1477 345 1624 c 1
EndSplineSet
Substitution2: "'ss03' Style Set 3 in Latin lookup 37 subtable" quotedbl.ss03
Substitution2: "'aalt' Access All Alternates in Latin lookup 0 subtable" quotedbl.ss03
EndChar

StartChar: quotesingle
Encoding: 39 39 581
Width: 512
VWidth: 2441
GlyphClass: 1
Flags: HW
LayerCount: 2
Fore
SplineSet
222 1624 m 1,0,-1
 389 1624 l 1,1,2
 389 1477 389 1477 386.5 1389.5 c 128,-1,3
 384 1302 384 1302 378.5 1241.5 c 128,-1,4
 373 1181 373 1181 367 1126.5 c 128,-1,5
 361 1072 361 1072 354 994 c 1,6,-1
 256 994 l 1,7,8
 249 1073 249 1073 243 1127 c 128,-1,9
 237 1181 237 1181 231.5 1240 c 128,-1,10
 226 1299 226 1299 224 1388 c 128,-1,11
 222 1477 222 1477 222 1624 c 1,0,-1
EndSplineSet
Substitution2: "'ss03' Style Set 3 in Latin lookup 37 subtable" quotesingle.ss03
Substitution2: "'aalt' Access All Alternates in Latin lookup 0 subtable" quotesingle.ss03
EndChar

StartChar: quotesingle.ss03
Encoding: 65574 -1 583
Width: 512
VWidth: 2441
GlyphClass: 1
Flags: HW
LayerCount: 2
Fore
SplineSet
335 986 m 1,0,-1
 224 1004 l 1,1,2
 245 1123 245 1123 252 1206 c 0,3,4
 257.157894737 1267.15789474 257.157894737 1267.15789474 257.157894737 1320.98614958 c 0,5,6
 257.157894737 1340.21052632 257.157894737 1340.21052632 256.5 1358.5 c 0,7,8
 254 1428 254 1428 254 1507 c 0,9,10
 254 1565 254 1565 275 1600.5 c 128,-1,11
 296 1636 296 1636 329 1636 c 0,12,13
 364 1636 364 1636 386 1590.5 c 128,-1,14
 408 1545 408 1545 408 1472 c 0,15,16
 408 1416 408 1416 402 1352.5 c 128,-1,17
 396 1289 396 1289 379 1202.5 c 128,-1,18
 362 1116 362 1116 335 986 c 1,0,-1
EndSplineSet
EndChar

StartChar: hyphen_greater.dlig
Encoding: 65575 -1 584
Width: 512
VWidth: 2441
GlyphClass: 1
Flags: HW
LayerCount: 2
Fore
SplineSet
24 681 m 1,0,-1
 24 876 l 1,1,-1
 325 876 l 1,2,-1
 325 681 l 1,3,-1
 24 681 l 1,0,-1
230 114 m 1,4,-1
 230 368 l 1,5,-1
 430 778 l 1,6,-1
 231 1137 l 1,7,-1
 231 1384 l 1,8,-1
 504 848 l 1,9,-1
 504 715 l 1,10,-1
 230 114 l 1,4,-1
EndSplineSet
Ligature2: "'dlig' Discretionary Ligatures in Latin lookup 32 subtable" hyphen greater
EndChar

StartChar: exclam_equal_equal.dlig
Encoding: 65576 -1 585
Width: 512
VWidth: 2410
GlyphClass: 1
Flags: HW
LayerCount: 2
Fore
SplineSet
14 34 m 1,0,-1
 14 226 l 1,1,-1
 205 226 l 1,2,-1
 222 480 l 1,3,-1
 72 480 l 1,4,-1
 72 686 l 1,5,-1
 236 686 l 1,6,-1
 253 942 l 1,7,-1
 14 942 l 1,8,-1
 14 1134 l 1,9,-1
 265 1134 l 1,10,-1
 284 1414 l 1,11,-1
 331 1373 l 1,12,-1
 315 1134 l 1,13,-1
 494 1134 l 1,14,-1
 494 942 l 1,15,-1
 303 942 l 1,16,-1
 286 686 l 1,17,-1
 436 686 l 1,18,-1
 436 480 l 1,19,-1
 272 480 l 1,20,-1
 255 226 l 1,21,-1
 494 226 l 1,22,-1
 494 34 l 1,23,-1
 242 34 l 1,24,-1
 224 -246 l 1,25,-1
 177 -210 l 1,26,-1
 193 34 l 1,27,-1
 14 34 l 1,0,-1
EndSplineSet
Ligature2: "'dlig' Discretionary Ligatures in Latin lookup 32 subtable" exclam equal equal
EndChar

StartChar: uni20B5
Encoding: 8373 8373 594
Width: 512
VWidth: 2441
GlyphClass: 2
Flags: HW
AnchorPoint: "Anchor-2" 304 0 basechar 0
AnchorPoint: "Anchor-0" 294 1521 basechar 0
LayerCount: 2
Fore
SplineSet
189 759 m 0,0,1
 189 542 189 542 210 413 c 128,-1,2
 231 284 231 284 263 224 c 1,3,-1
 263 1286 l 1,4,5
 230 1235 230 1235 209.5 1110 c 128,-1,6
 189 985 189 985 189 759 c 0,0,1
263 -173 m 1,7,-1
 263 -19 l 1,8,9
 201 -2 201 -2 150 76 c 128,-1,10
 99 154 99 154 68 316 c 128,-1,11
 37 478 37 478 35 752 c 0,12,13
 35 1030 35 1030 68 1191.5 c 128,-1,14
 101 1353 101 1353 155 1427.5 c 128,-1,15
 209 1502 209 1502 263 1521 c 1,16,-1
 263 1647 l 1,17,-1
 384 1647 l 1,18,-1
 384 1521 l 1,19,20
 431 1502 431 1502 463.5 1458 c 128,-1,21
 496 1414 496 1414 515 1351 c 1,22,-1
 461 1162 l 1,23,-1
 453 1140 l 1,24,-1
 440 1148 l 1,25,26
 434 1167 434 1167 436 1195 c 0,27,28
 436.222222222 1198.11111111 436.222222222 1198.11111111 436.222222222 1201.33333333 c 0,29,30
 436.222222222 1227.11111111 436.222222222 1227.11111111 422 1260 c 0,31,32
 405 1292 405 1292 384 1311 c 1,33,-1
 384 191 l 1,34,35
 408 210 408 210 426 244 c 128,-1,36
 444 278 444 278 459 319 c 1,37,-1
 498 135 l 1,38,39
 449 25 449 25 384 -7 c 1,40,-1
 384 -173 l 1,41,-1
 263 -173 l 1,7,-1
EndSplineSet
EndChar

StartChar: cent
Encoding: 162 162 595
Width: 512
VWidth: 2441
GlyphClass: 2
Flags: HW
AnchorPoint: "Anchor-2" 331 105 basechar 0
AnchorPoint: "Anchor-0" 331 1245 basechar 0
LayerCount: 2
Fore
SplineSet
220 671 m 0,0,1
 220 539 220 539 232.5 456 c 128,-1,2
 245 373 245 373 265 327 c 1,3,-1
 309 1053 l 1,4,5
 271 1029 271 1029 245.5 944 c 128,-1,6
 220 859 220 859 220 671 c 0,0,1
356 -179 m 1,7,-1
 235 -179 l 1,8,-1
 251 95 l 1,9,10
 155 134 155 134 106.5 273 c 128,-1,11
 58 412 58 412 58 671 c 0,12,13
 58 888 58 888 94.5 1018 c 128,-1,14
 131 1148 131 1148 191 1206.5 c 128,-1,15
 251 1265 251 1265 322 1267 c 1,16,-1
 338 1521 l 1,17,-1
 454 1521 l 1,18,-1
 438 1242 l 1,19,20
 505 1203 505 1203 538 1113 c 1,21,-1
 487 952 l 1,22,-1
 480 927 l 1,23,-1
 466 935 l 1,24,25
 459 952 459 952 457.5 975.5 c 128,-1,26
 456 999 456 999 436 1028 c 0,27,28
 431 1033 431 1033 427 1037 c 1,29,-1
 382 263 l 1,30,31
 435 277 435 277 475 359 c 1,32,-1
 524 186 l 1,33,34
 471 91 471 91 371 81 c 1,35,-1
 356 -179 l 1,7,-1
EndSplineSet
EndChar

StartChar: colonmonetary
Encoding: 8353 8353 596
Width: 512
VWidth: 2441
GlyphClass: 2
Flags: HW
AnchorPoint: "Anchor-2" 304 0 basechar 0
AnchorPoint: "Anchor-0" 294 1521 basechar 0
LayerCount: 2
Fore
SplineSet
189 759 m 0,0,1
 189 620 189 620 198 510 c 1,2,-1
 269 1296 l 1,3,4
 234 1247 234 1247 211.5 1121.5 c 128,-1,5
 189 996 189 996 189 759 c 0,0,1
239 286 m 1,6,7
 252 247 252 247 267 219 c 1,8,-1
 366 1323 l 1,9,10
 349 1330 349 1330 332 1330 c 1,11,-1
 239 286 l 1,6,7
138 -173 m 1,12,-1
 158 61 l 1,13,14
 104 140 104 140 70.5 303 c 128,-1,15
 37 466 37 466 35 752 c 0,16,17
 35 978 35 978 57.5 1126 c 128,-1,18
 80 1274 80 1274 117.5 1358 c 128,-1,19
 155 1442 155 1442 200 1481.5 c 128,-1,20
 245 1521 245 1521 291 1528 c 1,21,-1
 302 1647 l 1,22,-1
 362 1647 l 1,23,-1
 352 1531 l 1,24,25
 369 1526 369 1526 384 1521 c 1,26,-1
 397 1647 l 1,27,-1
 459 1647 l 1,28,-1
 444 1482 l 1,29,30
 489 1436 489 1436 515 1351 c 1,31,-1
 461 1162 l 1,32,-1
 453 1140 l 1,33,-1
 440 1148 l 1,34,35
 434 1167 434 1167 436 1195 c 0,36,37
 436.222222222 1198.11111111 436.222222222 1198.11111111 436.222222222 1201.33333333 c 0,38,39
 436.222222222 1227.11111111 436.222222222 1227.11111111 422 1260 c 1,40,-1
 325 170 l 1,41,42
 329 170 329 170 334 170 c 0,43,44
 373 170 373 170 404.5 213 c 128,-1,45
 436 256 436 256 459 319 c 1,46,-1
 498 135 l 1,47,48
 463 54 463 54 419 15 c 128,-1,49
 375 -24 375 -24 308 -24 c 1,50,-1
 296 -173 l 1,51,-1
 233 -173 l 1,52,-1
 245 -12 l 1,53,54
 228 -5 228 -5 214 5 c 1,55,-1
 198 -173 l 1,56,-1
 138 -173 l 1,12,-1
EndSplineSet
EndChar

StartChar: currency
Encoding: 164 164 597
Width: 512
VWidth: 2441
GlyphClass: 1
Flags: HW
LayerCount: 2
Fore
SplineSet
293 647 m 128,-1,1
 335 647 335 647 355 703 c 128,-1,2
 375 759 375 759 375 843 c 0,3,4
 375 926 375 926 355 982.5 c 128,-1,5
 335 1039 335 1039 293 1039 c 0,6,7
 253 1039 253 1039 231.5 982 c 128,-1,8
 210 925 210 925 210 843 c 0,9,10
 210 760 210 760 230.5 703.5 c 128,-1,0
 251 647 251 647 293 647 c 128,-1,1
152 368 m 1,11,-1
 54 478 l 1,12,-1
 112 654 l 1,13,14
 98 698 98 698 89 747 c 128,-1,15
 80 796 80 796 80 845 c 0,16,17
 80 896 80 896 88 946.5 c 128,-1,18
 96 997 96 997 112 1035 c 1,19,-1
 54 1209 l 1,20,-1
 152 1321 l 1,21,-1
 197 1189 l 1,22,23
 243.06 1237.02 243.06 1237.02 292.9616 1237.02 c 0,0,0
 293.98 1237.02 293.98 1237.02 295 1237 c 0,24,25
 344 1237 344 1237 389 1191 c 1,26,-1
 433 1321 l 1,27,-1
 531 1216 l 1,28,-1
 473 1045 l 1,29,30
 491 996 491 996 499 946 c 128,-1,31
 507 896 507 896 507 845 c 0,32,33
 507 791 507 791 498 742.5 c 128,-1,34
 489 694 489 694 475 647 c 1,35,-1
 534 478 l 1,36,-1
 433 368 l 1,37,-1
 391 498 l 1,38,39
 349 449 349 449 295 449 c 0,40,41
 239 449 239 449 197 501 c 1,42,-1
 152 368 l 1,11,-1
EndSplineSet
EndChar

StartChar: dollar
Encoding: 36 36 598
Width: 512
VWidth: 2441
GlyphClass: 1
Flags: HW
LayerCount: 2
Fore
SplineSet
350 205 m 1,0,1
 379 226 379 226 392 286.5 c 128,-1,2
 405 347 405 347 405 432 c 0,3,4
 405 520 405 520 389.5 571 c 128,-1,5
 374 622 374 622 350 640 c 1,6,-1
 350 205 l 1,0,1
232 906 m 1,7,-1
 232 1272 l 1,8,9
 213 1262 213 1262 197.5 1221.5 c 128,-1,10
 182 1181 182 1181 182 1109 c 0,11,12
 182 1041 182 1041 191.5 989.5 c 128,-1,13
 201 938 201 938 232 906 c 1,7,-1
232 -114 m 1,14,-1
 232 35 l 1,15,16
 175 45 175 45 127.5 78.5 c 128,-1,17
 80 112 80 112 49 175 c 1,18,-1
 122 352 l 1,19,20
 126 345 126 345 127.5 328.5 c 128,-1,21
 129 312 129 312 131 303 c 0,22,23
 140 271 140 271 164 243 c 128,-1,24
 188 215 188 215 232 200 c 1,25,-1
 232 708 l 1,26,27
 146 771 146 771 99.5 851.5 c 128,-1,28
 53 932 53 932 53 1088 c 0,29,30
 53 1212 53 1212 76 1285 c 128,-1,31
 99 1358 99 1358 140.5 1393 c 128,-1,32
 182 1428 182 1428 232 1442 c 1,33,-1
 232 1589 l 1,34,-1
 357 1589 l 1,35,-1
 357 1582 l 2,36,37
 357 1577 357 1577 353.5 1566.5 c 128,-1,38
 350 1556 350 1556 350 1538 c 2,39,-1
 350 1445 l 1,40,41
 401 1433 401 1433 433 1406 c 128,-1,42
 465 1379 465 1379 492 1321 c 1,43,-1
 434 1158 l 1,44,45
 428 1163 428 1163 426.5 1180 c 128,-1,46
 425 1197 425 1197 421 1209 c 0,47,48
 399 1272 399 1272 350 1279 c 1,49,-1
 350 832 l 1,50,51
 412 786 412 786 452 740 c 128,-1,52
 492 694 492 694 510.5 624 c 128,-1,53
 529 554 529 554 529 442 c 0,54,55
 529 261 529 261 482.5 162 c 128,-1,56
 436 63 436 63 350 39 c 1,57,-1
 350 -114 l 1,58,-1
 232 -114 l 1,14,-1
EndSplineSet
EndChar

StartChar: dong
Encoding: 8363 8363 599
Width: 512
VWidth: 2441
GlyphClass: 2
Flags: HW
AnchorPoint: "Anchor-4" 391 1333 basechar 0
AnchorPoint: "Anchor-2" 284 261 basechar 0
AnchorPoint: "Anchor-1" 498 1155 basechar 0
AnchorPoint: "Anchor-0" 284 1155 basechar 0
LayerCount: 2
Fore
SplineSet
66 154 m 1,0,-1
 522 154 l 1,1,-1
 522 0 l 1,2,-1
 66 0 l 1,3,-1
 66 154 l 1,0,-1
266 393 m 0,4,5
 352 393 352 393 352 713 c 0,6,7
 352 892 352 892 331 970 c 128,-1,8
 310 1048 310 1048 275 1048 c 0,9,10
 251 1048 251 1048 234 1022.5 c 128,-1,11
 217 997 217 997 208.5 929.5 c 128,-1,12
 200 862 200 862 200 737 c 0,13,14
 200 598 200 598 208.5 523.5 c 128,-1,15
 217 449 217 449 233 421 c 128,-1,16
 249 393 249 393 266 393 c 0,4,5
235 242 m 0,17,18
 189 242 189 242 149.5 277 c 128,-1,19
 110 312 110 312 88 414.5 c 128,-1,20
 66 517 66 517 66 715 c 0,21,22
 66 908 66 908 86.5 1010.5 c 128,-1,23
 107 1113 107 1113 145.5 1152 c 128,-1,24
 184 1191 184 1191 237 1191 c 0,25,26
 332 1191 332 1191 352 1062 c 1,27,-1
 352 1245 l 1,28,-1
 200 1245 l 1,29,-1
 200 1428 l 1,30,-1
 352 1428 l 1,31,-1
 352 1560 l 1,32,-1
 503 1560 l 1,33,-1
 503 1545 l 1,34,35
 484 1528 484 1528 484 1475 c 2,36,-1
 484 1428 l 1,37,-1
 538 1428 l 1,38,-1
 538 1245 l 1,39,-1
 484 1245 l 1,40,-1
 484 401 l 2,41,42
 484 366 484 366 485 331 c 128,-1,43
 486 296 486 296 494 261 c 1,44,-1
 364 261 l 1,45,46
 357 285 357 285 352 309 c 128,-1,47
 347 333 347 333 347 366 c 1,48,49
 330 310 330 310 298.5 276 c 128,-1,50
 267 242 267 242 235 242 c 0,17,18
EndSplineSet
EndChar

StartChar: Euro
Encoding: 8364 8364 600
Width: 512
VWidth: 2441
GlyphClass: 1
Flags: HW
LayerCount: 2
Fore
SplineSet
343 -27 m 0,0,1
 282 -27 282 -27 224 23 c 128,-1,2
 166 73 166 73 124.5 190.5 c 128,-1,3
 83 308 83 308 72 508 c 1,4,-1
 26 508 l 1,5,-1
 44 699 l 1,6,-1
 65 699 l 1,7,8
 65 729 65 729 66.5 771 c 128,-1,9
 68 813 68 813 68 845 c 1,10,-1
 26 845 l 1,11,-1
 44 1035 l 1,12,-1
 79 1035 l 1,13,14
 96 1223 96 1223 140 1331.5 c 128,-1,15
 184 1440 184 1440 241.5 1486.5 c 128,-1,16
 299 1533 299 1533 350 1533 c 0,17,18
 467 1533 467 1533 506 1451 c 1,19,-1
 477 1274 l 1,20,21
 460 1274 460 1274 451.5 1291.5 c 128,-1,22
 443 1309 443 1309 425 1324.5 c 128,-1,23
 407 1340 407 1340 362 1340 c 0,24,25
 315 1340 315 1340 282.5 1269.5 c 128,-1,26
 250 1199 250 1199 235 1035 c 1,27,-1
 434 1035 l 1,28,-1
 402 845 l 1,29,-1
 224 845 l 1,30,31
 222 813 222 813 222 773.5 c 128,-1,32
 222 734 222 734 222 699 c 1,33,-1
 380 699 l 1,34,-1
 348 508 l 1,35,-1
 229 508 l 1,36,37
 235 354 235 354 267 263.5 c 128,-1,38
 299 173 299 173 364 173 c 128,-1,39
 429 173 429 173 464 235 c 1,40,-1
 502 54 l 1,41,42
 470 8 470 8 427.5 -9.5 c 128,-1,43
 385 -27 385 -27 343 -27 c 0,0,1
EndSplineSet
EndChar

StartChar: florin
Encoding: 402 402 601
Width: 512
VWidth: 2370
GlyphClass: 1
Flags: HW
LayerCount: 2
Fore
SplineSet
106 -246 m 0,0,1
 77 -246 77 -246 51 -235 c 128,-1,2
 25 -224 25 -224 10 -199 c 1,3,-1
 43 1 l 1,4,5
 49 -6 49 -6 54 -25 c 128,-1,6
 59 -44 59 -44 88 -44 c 0,7,8
 111 -44 111 -44 121 13 c 128,-1,9
 131 70 131 70 135 203 c 2,10,-1
 158 847 l 1,11,-1
 74 847 l 1,12,-1
 74 1021 l 1,13,-1
 162 1021 l 1,14,-1
 168 1202 l 2,15,16
 174 1378 174 1378 199.5 1474 c 128,-1,17
 225 1570 225 1570 268.5 1606.5 c 128,-1,18
 312 1643 312 1643 370 1643 c 0,19,20
 444 1643 444 1643 490 1565 c 1,21,-1
 454 1349 l 1,22,23
 448 1349 448 1349 443 1371 c 0,24,25
 433.12195122 1451.01219512 433.12195122 1451.01219512 385.189321832 1451.01219512 c 0,0,0
 384.597560976 1451.01219512 384.597560976 1451.01219512 384 1451 c 0,26,27
 355 1451 355 1451 343 1392.5 c 128,-1,28
 331 1334 331 1334 325 1179 c 2,29,-1
 318 1021 l 1,30,-1
 400 1021 l 1,31,-1
 400 847 l 1,32,-1
 312 847 l 1,33,-1
 288 197 l 2,34,35
 284 21 284 21 257.5 -76 c 128,-1,36
 231 -173 231 -173 192 -209.5 c 128,-1,37
 153 -246 153 -246 106 -246 c 0,0,1
EndSplineSet
EndChar

StartChar: uni20B2
Encoding: 8370 8370 603
Width: 512
VWidth: 2441
GlyphClass: 1
Flags: HW
LayerCount: 2
Fore
SplineSet
162 778 m 0,0,1
 162 554 162 554 181.5 411 c 128,-1,2
 201 268 201 268 232 207 c 1,3,-1
 232 1314 l 1,4,5
 200 1275 200 1275 181 1152.5 c 128,-1,6
 162 1030 162 1030 162 778 c 0,0,1
232 -173 m 1,7,-1
 232 -12 l 1,8,9
 138 32 138 32 83 217.5 c 128,-1,10
 28 403 28 403 28 743 c 1,11,12
 32 1034 32 1034 58.5 1199.5 c 128,-1,13
 85 1365 85 1365 131 1439.5 c 128,-1,14
 177 1514 177 1514 232 1531 c 1,15,-1
 232 1647 l 1,16,-1
 325 1647 l 1,17,-1
 325 1535 l 1,18,19
 386 1523 386 1523 429.5 1477 c 128,-1,20
 473 1431 473 1431 496 1367 c 1,21,-1
 449 1186 l 1,22,23
 441 1196 441 1196 431.5 1229 c 128,-1,24
 422 1262 422 1262 398 1295 c 128,-1,25
 374 1328 374 1328 325 1338 c 1,26,-1
 325 161 l 1,27,28
 357 173 357 173 396 240 c 1,29,-1
 396 569 l 1,30,-1
 359 569 l 1,31,-1
 359 759 l 1,32,-1
 508 759 l 1,33,-1
 508 135 l 1,34,35
 467 69 467 69 418.5 29.5 c 128,-1,36
 370 -10 370 -10 325 -19 c 1,37,-1
 325 -173 l 1,38,-1
 232 -173 l 1,7,-1
EndSplineSet
EndChar

StartChar: uni20AD
Encoding: 8365 8365 604
Width: 512
VWidth: 2441
GlyphClass: 1
Flags: HW
LayerCount: 2
Fore
SplineSet
191 643 m 1,0,-1
 171 564 l 1,1,-1
 174 0 l 1,2,-1
 36 0 l 1,3,-1
 36 771 l 1,4,-1
 -19 771 l 1,5,-1
 -19 950 l 1,6,-1
 36 950 l 1,7,-1
 36 1521 l 1,8,-1
 191 1521 l 1,9,-1
 191 1504 l 1,10,11
 180 1490 180 1490 177 1473 c 128,-1,12
 174 1456 174 1456 174 1414 c 2,13,-1
 174 939 l 1,14,-1
 312 1533 l 1,15,16
 335 1528 335 1528 368.5 1524.5 c 128,-1,17
 402 1521 402 1521 421 1521 c 2,18,-1
 446 1521 l 1,19,-1
 304 950 l 1,20,-1
 425 950 l 1,21,-1
 425 771 l 1,22,-1
 289 771 l 1,23,-1
 461 0 l 1,24,-1
 320 -12 l 1,25,-1
 191 643 l 1,0,-1
EndSplineSet
EndChar

StartChar: uni20BA
Encoding: 8378 8378 606
Width: 512
VWidth: 2441
GlyphClass: 1
Flags: HW
LayerCount: 2
Fore
SplineSet
97 0 m 1,0,-1
 97 652 l 1,1,-1
 29 596 l 1,2,-1
 29 747 l 1,3,-1
 97 803 l 1,4,-1
 97 945 l 1,5,-1
 29 888 l 1,6,-1
 29 1039 l 1,7,-1
 97 1097 l 1,8,-1
 97 1521 l 1,9,-1
 254 1521 l 1,10,11
 254 1497 254 1497 248 1487 c 128,-1,12
 242 1477 242 1477 242 1438 c 2,13,-1
 242 1211 l 1,14,-1
 396 1333 l 1,15,-1
 396 1181 l 1,16,-1
 242 1060 l 1,17,-1
 242 918 l 1,18,-1
 396 1039 l 1,19,-1
 396 888 l 1,20,-1
 242 767 l 1,21,-1
 242 193 l 1,22,23
 316 193 316 193 348.5 270 c 128,-1,24
 381 347 381 347 381 561 c 1,25,-1
 509 561 l 1,26,27
 509 337 509 337 476.5 215 c 128,-1,28
 444 93 444 93 375 46.5 c 128,-1,29
 306 0 306 0 195 0 c 2,30,-1
 97 0 l 1,0,-1
EndSplineSet
EndChar

StartChar: uni20BC
Encoding: 8380 8380 607
Width: 512
VWidth: 2441
GlyphClass: 1
Flags: HW
LayerCount: 2
Fore
SplineSet
218 242 m 1,0,-1
 218 1225 l 1,1,2
 182 1193 182 1193 169 1109 c 128,-1,3
 156 1025 156 1025 156 876 c 2,4,-1
 156 79 l 2,5,6
 156 47 156 47 160 30.5 c 128,-1,7
 164 14 164 14 164 0 c 1,8,-1
 38 0 l 1,9,-1
 38 874 l 2,10,11
 38 1065 38 1065 60 1178 c 128,-1,12
 82 1291 82 1291 123 1347.5 c 128,-1,13
 164 1404 164 1404 218 1419 c 1,14,-1
 218 1624 l 1,15,-1
 335 1624 l 1,16,-1
 335 1419 l 1,17,18
 388 1402 388 1402 429.5 1344 c 128,-1,19
 471 1286 471 1286 494.5 1171.5 c 128,-1,20
 518 1057 518 1057 518 867 c 2,21,-1
 518 0 l 1,22,-1
 404 0 l 1,23,-1
 404 869 l 2,24,25
 404 1025 404 1025 388 1112 c 128,-1,26
 372 1199 372 1199 335 1228 c 1,27,-1
 335 242 l 1,28,-1
 218 242 l 1,0,-1
EndSplineSet
EndChar

StartChar: uni20A6
Encoding: 8358 8358 608
Width: 512
VWidth: 2441
GlyphClass: 2
Flags: HW
AnchorPoint: "Anchor-2" 245 0 basechar 0
AnchorPoint: "Anchor-0" 245 1521 basechar 0
LayerCount: 2
Fore
SplineSet
324 627 m 1,0,-1
 324 638 l 1,1,-1
 322 638 l 1,2,-1
 324 627 l 1,0,-1
166 962 m 1,3,-1
 166 806 l 1,4,-1
 195 806 l 1,5,-1
 166 962 l 1,3,-1
7 638 m 1,6,-1
 7 806 l 1,7,-1
 51 806 l 1,8,-1
 51 1521 l 1,9,-1
 166 1521 l 1,10,-1
 291 806 l 1,11,-1
 324 806 l 1,12,-1
 324 1521 l 1,13,-1
 451 1521 l 1,14,-1
 451 1504 l 1,15,16
 439 1490 439 1490 437 1473 c 128,-1,17
 435 1456 435 1456 435 1414 c 2,18,-1
 435 806 l 1,19,-1
 487 806 l 1,20,-1
 487 638 l 1,21,-1
 435 638 l 1,22,-1
 435 0 l 1,23,-1
 337 0 l 1,24,-1
 225 638 l 1,25,-1
 166 638 l 1,26,-1
 166 0 l 1,27,-1
 51 0 l 1,28,-1
 51 638 l 1,29,-1
 7 638 l 1,6,-1
EndSplineSet
EndChar

StartChar: peseta
Encoding: 8359 8359 609
Width: 512
VWidth: 2441
GlyphClass: 1
Flags: HW
LayerCount: 2
Fore
SplineSet
239 -30 m 0,0,1
 186 -30 186 -30 168 37.5 c 128,-1,2
 153.272727273 92.7272727273 153.272727273 92.7272727273 153.272727273 228.619834711 c 0,0,0
 153.272727273 258.818181818 153.272727273 258.818181818 154 293 c 2,3,-1
 160 494 l 1,4,-1
 121 494 l 1,5,-1
 127 632 l 1,6,-1
 162 632 l 1,7,-1
 162 745 l 1,8,-1
 243 769 l 1,9,-1
 263 774 l 1,10,-1
 267 757 l 1,11,12
 257 740 257 740 250 721.5 c 128,-1,13
 243 703 243 703 243 662 c 2,14,-1
 243 632 l 1,15,-1
 284 632 l 1,16,-1
 276 494 l 1,17,-1
 241 494 l 1,18,-1
 235 310 l 2,19,20
 233 250.5 233 250.5 233 210 c 0,0,0
 233 169.5 233 169.5 235 148 c 128,-1,21
 239 105 239 105 259 105 c 0,22,23
 271 105 271 105 284 119 c 1,24,-1
 300 210 l 1,25,-1
 304 230 l 1,26,-1
 311 226 l 1,27,28
 317 212 317 212 314 192.5 c 128,-1,29
 311 173 311 173 320 151 c 0,30,31
 343 93 343 93 375 93 c 0,32,33
 391 93 391 93 402.5 117.5 c 128,-1,34
 414 142 414 142 414 170 c 0,35,36
 414 197 414 197 407 222 c 128,-1,37
 400 247 400 247 371 271 c 0,38,39
 330 306 330 306 310 352 c 128,-1,40
 290 398 290 398 290 473 c 0,41,42
 290 556 290 556 319 601.5 c 128,-1,43
 348 647 348 647 391 647 c 0,44,45
 451 647 451 647 489 566 c 1,46,-1
 450 461 l 1,47,-1
 442 440 l 1,48,-1
 435 442 l 1,49,50
 435 459 435 459 436 472.5 c 128,-1,51
 437 486 437 486 430 501 c 1,52,53
 414 520 414 520 395 520 c 0,54,55
 379 520 379 520 371 505.5 c 128,-1,56
 363 491 363 491 363 468 c 0,57,58
 363 419 363 419 406 384 c 0,59,60
 453 340 453 340 472 294.5 c 128,-1,61
 491 249 491 249 491 179 c 0,62,63
 491 84 491 84 458.5 24.5 c 128,-1,64
 426 -35 426 -35 379 -35 c 0,65,66
 334 -35 334 -35 300 14 c 1,67,68
 274 -30 274 -30 239 -30 c 0,0,1
119 918 m 2,69,70
 192 918 192 918 192 1153 c 0,71,72
 192 1246 192 1246 178 1304.5 c 128,-1,73
 164 1363 164 1363 119 1363 c 2,74,-1
 113 1363 l 1,75,-1
 113 918 l 1,76,-1
 119 918 l 2,69,70
11 1521 m 1,77,-1
 115 1521 l 2,78,79
 177 1521 177 1521 218 1471 c 128,-1,80
 259 1421 259 1421 278.5 1338 c 128,-1,81
 298 1255 298 1255 298 1158 c 0,82,83
 298 995 298 995 255 882 c 128,-1,84
 212 769 212 769 119 769 c 2,85,-1
 113 769 l 1,86,-1
 113 0 l 1,87,-1
 11 0 l 1,88,-1
 11 1521 l 1,77,-1
EndSplineSet
EndChar

StartChar: uni20B1
Encoding: 8369 8369 610
Width: 512
VWidth: 2441
GlyphClass: 2
Flags: HW
AnchorPoint: "Anchor-2" 97 0 basechar 0
AnchorPoint: "Anchor-0" 233 1521 basechar 0
LayerCount: 2
Fore
SplineSet
172 825 m 1,0,-1
 224 825 l 2,1,2
 273 825 273 825 297 935 c 1,3,-1
 172 935 l 1,4,-1
 172 825 l 1,0,-1
309 1074 m 0,5,6
 309 1095 309 1095 307 1116 c 1,7,-1
 172 1116 l 1,8,-1
 172 1039 l 1,9,-1
 307 1039 l 2,10,11
 309 1041 309 1041 309 1048 c 128,-1,12
 309 1055 309 1055 309 1074 c 0,5,6
172 1328 m 1,13,-1
 172 1221 l 1,14,-1
 297 1221 l 1,15,16
 275 1328 275 1328 224 1328 c 2,17,-1
 172 1328 l 1,13,-1
29 0 m 1,18,-1
 29 925 l 1,19,-1
 -1 925 l 1,20,-1
 -1 1039 l 1,21,-1
 29 1039 l 1,22,-1
 29 1106 l 1,23,-1
 -1 1106 l 1,24,-1
 -1 1221 l 1,25,-1
 29 1221 l 1,26,-1
 29 1521 l 1,27,-1
 229 1521 l 2,28,29
 318 1521 318 1521 373 1447.5 c 128,-1,30
 428 1374 428 1374 443 1221 c 1,31,-1
 479 1221 l 1,32,-1
 479 1106 l 1,33,-1
 449 1106 l 1,34,35
 449 1094 449 1094 449 1079 c 0,36,37
 449 1060 449 1060 449 1039 c 1,38,-1
 479 1039 l 1,39,-1
 479 925 l 1,40,-1
 439 925 l 1,41,42
 417 786 417 786 362 709 c 128,-1,43
 307 632 307 632 235 632 c 2,44,-1
 172 632 l 1,45,-1
 172 0 l 1,46,-1
 29 0 l 1,18,-1
EndSplineSet
EndChar

StartChar: uni20BD
Encoding: 8381 8381 611
Width: 512
VWidth: 2441
GlyphClass: 2
Flags: HW
AnchorPoint: "Anchor-2" 127 0 basechar 0
AnchorPoint: "Anchor-0" 270 1521 basechar 0
LayerCount: 2
Fore
SplineSet
206 825 m 1,0,-1
 260 825 l 2,1,2
 298 825 298 825 323.5 891 c 128,-1,3
 349 957 349 957 349 1074 c 0,4,5
 349 1209 349 1209 323 1268.5 c 128,-1,6
 297 1328 297 1328 260 1328 c 2,7,-1
 206 1328 l 1,8,-1
 206 825 l 1,0,-1
56 0 m 1,9,-1
 56 305 l 1,10,-1
 16 305 l 1,11,-1
 16 496 l 1,12,-1
 56 496 l 1,13,-1
 56 632 l 1,14,-1
 16 632 l 1,15,-1
 16 825 l 1,16,-1
 56 825 l 1,17,-1
 56 1521 l 1,18,-1
 266 1521 l 2,19,20
 379 1521 379 1521 437.5 1415 c 128,-1,21
 496 1309 496 1309 496 1079 c 0,22,23
 496 869 496 869 430.5 750.5 c 128,-1,24
 365 632 365 632 272 632 c 2,25,-1
 206 632 l 1,26,-1
 206 496 l 1,27,-1
 327 496 l 1,28,-1
 324 305 l 1,29,-1
 206 305 l 1,30,-1
 206 0 l 1,31,-1
 56 0 l 1,9,-1
EndSplineSet
EndChar

StartChar: uni20B9
Encoding: 8377 8377 612
Width: 512
VWidth: 2441
GlyphClass: 1
Flags: HW
LayerCount: 2
Fore
SplineSet
69 845 m 1,0,-1
 199 845 l 2,1,2
 252 845 252 845 279.5 881.5 c 128,-1,3
 307 918 307 918 316 983 c 1,4,-1
 69 983 l 1,5,-1
 69 1148 l 1,6,-1
 316 1148 l 1,7,8
 309 1221 309 1221 280.5 1262.5 c 128,-1,9
 252 1304 252 1304 199 1304 c 2,10,-1
 69 1304 l 1,11,-1
 69 1519 l 1,12,-1
 549 1519 l 1,13,-1
 549 1360 l 1,14,-1
 400 1360 l 1,15,16
 462 1279 462 1279 480 1148 c 1,17,-1
 549 1148 l 1,18,-1
 549 983 l 1,19,-1
 485 983 l 1,20,21
 476 869 476 869 431 787.5 c 128,-1,22
 386 706 386 706 329 669 c 1,23,-1
 503 0 l 1,24,-1
 329 0 l 1,25,-1
 172 632 l 1,26,-1
 69 632 l 1,27,-1
 69 845 l 1,0,-1
EndSplineSet
EndChar

StartChar: sterling
Encoding: 163 163 613
Width: 512
VWidth: 2441
GlyphClass: 1
Flags: HW
LayerCount: 2
Fore
SplineSet
86 -19 m 1,0,-1
 33 159 l 1,1,2
 78 208 78 208 97.5 252 c 128,-1,3
 117 296 117 296 122 361.5 c 128,-1,4
 127 427 127 427 127 542 c 0,5,6
 127 588 127 588 124 643.5 c 128,-1,7
 121 699 121 699 115 759 c 1,8,-1
 52 759 l 1,9,-1
 52 950 l 1,10,-1
 95 950 l 1,11,12
 93 985 93 985 90.5 1021 c 128,-1,13
 88 1057 88 1057 88 1094 c 0,14,15
 88 1326 88 1326 155 1423.5 c 128,-1,16
 222 1521 222 1521 311 1521 c 0,17,18
 350 1521 350 1521 396 1492 c 128,-1,19
 442 1463 442 1463 467 1407 c 1,20,-1
 403 1242 l 1,21,22
 386 1281 386 1281 371 1304.5 c 128,-1,23
 356 1328 356 1328 321 1328 c 0,24,25
 282 1328 282 1328 262.5 1267 c 128,-1,26
 243 1206 243 1206 241 1097 c 0,27,28
 241 1065 241 1065 243 1028 c 128,-1,29
 245 991 245 991 248 950 c 1,30,-1
 352 950 l 1,31,-1
 352 759 l 1,32,-1
 269 759 l 1,33,34
 273 701 273 701 276.5 648.5 c 128,-1,35
 280 596 280 596 280 547 c 0,36,37
 280 454 280 454 277 383 c 128,-1,38
 274 312 274 312 257 244 c 1,39,40
 288 249 288 249 310 228 c 128,-1,41
 332 207 332 207 353.5 185 c 128,-1,42
 375 163 375 163 403 163 c 0,43,44
 455 163 455 163 487 210 c 1,45,-1
 513 27 l 1,46,47
 470 -36 470 -36 401 -37 c 0,48,49
 362 -37 362 -37 326.5 -9 c 128,-1,50
 291 19 291 19 257.5 46 c 128,-1,51
 224 73 224 73 194 73 c 0,52,53
 170 73 170 73 145.5 49 c 128,-1,54
 121 25 121 25 86 -19 c 1,0,-1
EndSplineSet
EndChar

StartChar: uni20A9
Encoding: 8361 8361 614
Width: 512
VWidth: 2441
GlyphClass: 2
Flags: HW
AnchorPoint: "Anchor-2" 247 0 basechar 0
AnchorPoint: "Anchor-0" 251 1521 basechar 0
LayerCount: 2
Fore
SplineSet
337 674 m 1,0,-1
 337 708 l 1,1,-1
 334 708 l 1,2,-1
 337 674 l 1,0,-1
166 676 m 1,3,-1
 168 708 l 1,4,-1
 164 708 l 1,5,-1
 166 676 l 1,3,-1
108 0 m 1,6,-1
 70 708 l 1,7,-1
 7 708 l 1,8,-1
 7 832 l 1,9,-1
 64 832 l 1,10,-1
 26 1521 l 1,11,-1
 134 1521 l 1,12,-1
 160 832 l 1,13,-1
 178 832 l 1,14,-1
 220 1321 l 1,15,-1
 281 1321 l 1,16,-1
 324 832 l 1,17,-1
 341 832 l 1,18,-1
 360 1521 l 1,19,-1
 462 1521 l 1,20,-1
 426 832 l 1,21,-1
 487 832 l 1,22,-1
 487 708 l 1,23,-1
 418 708 l 1,24,-1
 380 0 l 1,25,-1
 314 0 l 1,26,-1
 253 708 l 1,27,-1
 241 708 l 1,28,-1
 180 0 l 1,29,-1
 108 0 l 1,6,-1
EndSplineSet
EndChar

StartChar: yen
Encoding: 165 165 615
Width: 512
VWidth: 2441
GlyphClass: 1
Flags: HW
LayerCount: 2
Fore
SplineSet
339 0 m 1,0,-1
 191 0 l 1,1,-1
 191 273 l 1,2,-1
 76 273 l 1,3,-1
 76 440 l 1,4,-1
 191 440 l 1,5,-1
 191 557 l 1,6,-1
 76 557 l 1,7,-1
 76 725 l 1,8,-1
 185 725 l 1,9,-1
 16 1521 l 1,10,-1
 167 1521 l 1,11,-1
 263 969 l 1,12,-1
 355 1521 l 1,13,-1
 496 1521 l 1,14,-1
 343 725 l 1,15,-1
 448 725 l 1,16,-1
 448 557 l 1,17,-1
 339 557 l 1,18,-1
 339 440 l 1,19,-1
 448 440 l 1,20,-1
 448 273 l 1,21,-1
 339 273 l 1,22,-1
 339 0 l 1,0,-1
EndSplineSet
EndChar

StartChar: asteriskmath
Encoding: 8727 8727 616
Width: 512
VWidth: 2441
GlyphClass: 1
Flags: HW
LayerCount: 2
Fore
SplineSet
171 303 m 1,0,-1
 47 442 l 1,1,-1
 185 796 l 1,2,-1
 33 879 l 1,3,-1
 82 1111 l 1,4,-1
 214 969 l 1,5,-1
 192 1355 l 1,6,-1
 354 1355 l 1,7,-1
 329 969 l 1,8,-1
 469 1101 l 1,9,-1
 513 879 l 1,10,-1
 345 796 l 1,11,-1
 485 447 l 1,12,-1
 364 303 l 1,13,-1
 269 645 l 1,14,-1
 171 303 l 1,0,-1
EndSplineSet
EndChar

StartChar: uni2215
Encoding: 8725 8725 618
Width: 512
VWidth: 2408
GlyphClass: 1
Flags: HW
LayerCount: 2
Fore
SplineSet
155 -246 m 1,0,-1
 29 -216 l 1,1,-1
 383 1922 l 1,2,-1
 509 1889 l 1,3,-1
 155 -246 l 1,0,-1
EndSplineSet
EndChar

StartChar: element
Encoding: 8712 8712 619
Width: 512
VWidth: 2441
GlyphClass: 1
Flags: HW
LayerCount: 2
Fore
SplineSet
373 -19 m 2,0,1
 209 -19 209 -19 122.5 124.5 c 128,-1,2
 36 268 36 268 36 550 c 0,3,4
 36 831 36 831 125.5 983 c 128,-1,5
 215 1135 215 1135 371 1135 c 2,6,-1
 516 1135 l 1,7,-1
 516 979 l 1,8,-1
 388 979 l 2,9,10
 275 979 275 979 226 895 c 128,-1,11
 177 811 177 811 170 629 c 1,12,-1
 516 629 l 1,13,-1
 516 473 l 1,14,-1
 170 473 l 1,15,16
 174 292 174 292 222.5 214.5 c 128,-1,17
 271 137 271 137 388 137 c 2,18,-1
 516 137 l 1,19,-1
 516 -19 l 1,20,-1
 373 -19 l 2,0,1
EndSplineSet
EndChar

StartChar: plus
Encoding: 43 43 621
Width: 512
VWidth: 2441
GlyphClass: 1
Flags: HW
LayerCount: 2
Fore
SplineSet
212 254 m 1,0,-1
 212 683 l 1,1,-1
 43 683 l 1,2,-1
 43 886 l 1,3,-1
 212 886 l 1,4,-1
 212 1277 l 1,5,-1
 362 1277 l 1,6,-1
 362 886 l 1,7,-1
 523 886 l 1,8,-1
 523 683 l 1,9,-1
 362 683 l 1,10,-1
 362 254 l 1,11,-1
 212 254 l 1,0,-1
EndSplineSet
EndChar

StartChar: minus
Encoding: 8722 8722 622
Width: 512
VWidth: 2441
GlyphClass: 1
Flags: HW
LayerCount: 2
Fore
SplineSet
43 683 m 1,0,-1
 43 886 l 1,1,-1
 523 886 l 1,2,-1
 523 683 l 1,3,-1
 43 683 l 1,0,-1
EndSplineSet
Substitution2: "'sups' Superscript in Latin lookup 20 subtable" uni207B
Substitution2: "'aalt' Access All Alternates in Latin lookup 0 subtable" uni207B
EndChar

StartChar: multiply
Encoding: 215 215 623
Width: 512
VWidth: 2441
GlyphClass: 1
Flags: HW
LayerCount: 2
Fore
SplineSet
435 335 m 1,0,-1
 310 640 l 1,1,-1
 188 347 l 1,2,-1
 81 489 l 1,3,-1
 222 820 l 1,4,-1
 81 1160 l 1,5,-1
 193 1304 l 1,6,-1
 312 1006 l 1,7,-1
 435 1302 l 1,8,-1
 550 1165 l 1,9,-1
 401 823 l 1,10,-1
 545 484 l 1,11,-1
 435 335 l 1,0,-1
EndSplineSet
EndChar

StartChar: divide
Encoding: 247 247 624
Width: 512
VWidth: 2441
GlyphClass: 1
Flags: HW
LayerCount: 2
Fore
SplineSet
310 259 m 0,0,1
 273 259 273 259 246 288 c 128,-1,2
 219 317 219 317 219 356 c 0,3,4
 219 398 219 398 246 428.5 c 128,-1,5
 273 459 273 459 310 459 c 0,6,7
 349 459 349 459 376 428.5 c 128,-1,8
 403 398 403 398 403 356 c 0,9,10
 403 317 403 317 376 288 c 128,-1,11
 349 259 349 259 310 259 c 0,0,1
73 666 m 1,12,-1
 73 869 l 1,13,-1
 542 869 l 1,14,-1
 542 666 l 1,15,-1
 73 666 l 1,12,-1
310 1065 m 0,16,17
 273 1065 273 1065 246 1093 c 128,-1,18
 219 1121 219 1121 219 1162 c 0,19,20
 219 1204 219 1204 246 1234.5 c 128,-1,21
 273 1265 273 1265 310 1265 c 0,22,23
 349 1265 349 1265 376 1233.5 c 128,-1,24
 403 1202 403 1202 403 1162 c 0,25,26
 403 1120 403 1120 376 1092.5 c 128,-1,27
 349 1065 349 1065 310 1065 c 0,16,17
EndSplineSet
EndChar

StartChar: equal
Encoding: 61 61 625
Width: 512
VWidth: 2441
GlyphClass: 1
Flags: HW
LayerCount: 2
Fore
SplineSet
51 422 m 1,0,-1
 51 617 l 1,1,-1
 531 617 l 1,2,-1
 531 422 l 1,3,-1
 51 422 l 1,0,-1
51 927 m 1,4,-1
 51 1123 l 1,5,-1
 531 1123 l 1,6,-1
 531 927 l 1,7,-1
 51 927 l 1,4,-1
EndSplineSet
EndChar

StartChar: notequal
Encoding: 8800 8800 626
Width: 512
VWidth: 2441
GlyphClass: 1
Flags: HW
LayerCount: 2
Fore
SplineSet
51 422 m 1,0,-1
 51 617 l 1,1,-1
 185 617 l 1,2,-1
 256 927 l 1,3,-1
 51 927 l 1,4,-1
 51 1123 l 1,5,-1
 302 1123 l 1,6,-1
 381 1458 l 1,7,-1
 503 1396 l 1,8,-1
 438 1123 l 1,9,-1
 531 1123 l 1,10,-1
 531 927 l 1,11,-1
 394 927 l 1,12,-1
 321 617 l 1,13,-1
 531 617 l 1,14,-1
 531 422 l 1,15,-1
 277 422 l 1,16,-1
 198 88 l 1,17,-1
 74 147 l 1,18,-1
 139 422 l 1,19,-1
 51 422 l 1,0,-1
EndSplineSet
EndChar

StartChar: greater
Encoding: 62 62 627
Width: 512
VWidth: 2441
GlyphClass: 1
Flags: HW
LayerCount: 2
Fore
SplineSet
45 114 m 1,0,-1
 45 373 l 1,1,-1
 372 778 l 1,2,-1
 47 1137 l 1,3,-1
 47 1384 l 1,4,-1
 525 848 l 1,5,-1
 525 715 l 1,6,-1
 45 114 l 1,0,-1
EndSplineSet
EndChar

StartChar: less
Encoding: 60 60 628
Width: 512
VWidth: 2441
GlyphClass: 1
Flags: HW
LayerCount: 2
Fore
SplineSet
519 114 m 1,0,-1
 39 715 l 1,1,-1
 39 848 l 1,2,-1
 516 1384 l 1,3,-1
 516 1137 l 1,4,-1
 192 778 l 1,5,-1
 519 373 l 1,6,-1
 519 114 l 1,0,-1
EndSplineSet
EndChar

StartChar: lessequal
Encoding: 8804 8804 630
Width: 512
VWidth: 2441
GlyphClass: 1
Flags: HW
LayerCount: 2
Fore
SplineSet
48 56 m 1,0,-1
 48 249 l 1,1,-1
 513 249 l 1,2,-1
 513 56 l 1,3,-1
 48 56 l 1,0,-1
513 324 m 1,4,-1
 33 789 l 1,5,-1
 33 930 l 1,6,-1
 513 1402 l 1,7,-1
 513 1174 l 1,8,-1
 169 859 l 1,9,-1
 513 557 l 1,10,-1
 513 324 l 1,4,-1
EndSplineSet
EndChar

StartChar: plusminus
Encoding: 177 177 631
Width: 512
VWidth: 2441
GlyphClass: 1
Flags: HW
LayerCount: 2
Fore
SplineSet
43 12 m 1,0,-1
 43 224 l 1,1,-1
 523 224 l 1,2,-1
 523 12 l 1,3,-1
 43 12 l 1,0,-1
209 376 m 1,4,-1
 209 803 l 1,5,-1
 45 803 l 1,6,-1
 45 1013 l 1,7,-1
 209 1013 l 1,8,-1
 209 1402 l 1,9,-1
 366 1402 l 1,10,-1
 366 1013 l 1,11,-1
 521 1013 l 1,12,-1
 521 803 l 1,13,-1
 366 803 l 1,14,-1
 366 376 l 1,15,-1
 209 376 l 1,4,-1
EndSplineSet
EndChar

StartChar: asciitilde
Encoding: 126 126 633
Width: 512
VWidth: 2441
GlyphClass: 1
Flags: HW
LayerCount: 2
Fore
SplineSet
440 620 m 0,0,1
 394 620 394 620 364.5 654.5 c 128,-1,2
 335 689 335 689 313 722 c 128,-1,3
 291 755 291 755 270 755 c 0,4,5
 246 755 246 755 225.5 722 c 128,-1,6
 205 689 205 689 188 643 c 1,7,-1
 93 759 l 1,8,9
 112 827 112 827 152.5 893.5 c 128,-1,10
 193 960 193 960 247 960 c 128,-1,11
 301 960 301 960 330 927 c 128,-1,12
 359 894 359 894 377 860.5 c 128,-1,13
 395 827 395 827 417 827 c 0,14,15
 438 827 438 827 453 857.5 c 128,-1,16
 468 888 468 888 488 932 c 1,17,-1
 573 799 l 1,18,19
 549 724 549 724 516.5 672 c 128,-1,20
 484 620 484 620 440 620 c 0,0,1
EndSplineSet
Substitution2: "'ss01' Style Set 1 in Latin lookup 35 subtable" asciitilde.ss01
Substitution2: "'salt' Stylistic Alternatives in Latin lookup 34 subtable" asciitilde.ss01
Substitution2: "'aalt' Access All Alternates in Latin lookup 0 subtable" asciitilde.ss01
EndChar

StartChar: logicalnot
Encoding: 172 172 634
Width: 512
VWidth: 2441
GlyphClass: 1
Flags: HW
LayerCount: 2
Fore
SplineSet
324 376 m 1,0,-1
 324 662 l 1,1,-1
 98 662 l 1,2,-1
 98 894 l 1,3,-1
 517 894 l 1,4,-1
 517 376 l 1,5,-1
 324 376 l 1,0,-1
EndSplineSet
EndChar

StartChar: asciicircum
Encoding: 94 94 635
Width: 512
VWidth: 2441
GlyphClass: 1
Flags: HW
LayerCount: 2
Fore
SplineSet
222 837 m 1,0,-1
 88 876 l 1,1,-1
 271 1521 l 1,2,-1
 361 1521 l 1,3,-1
 520 879 l 1,4,-1
 384 837 l 1,5,-1
 310 1153 l 1,6,-1
 222 837 l 1,0,-1
EndSplineSet
Substitution2: "'ss01' Style Set 1 in Latin lookup 35 subtable" asciicircum.ss01
Substitution2: "'salt' Stylistic Alternatives in Latin lookup 34 subtable" asciicircum.ss01
Substitution2: "'aalt' Access All Alternates in Latin lookup 0 subtable" asciicircum.ss01
EndChar

StartChar: infinity
Encoding: 8734 8734 636
Width: 512
VWidth: 2441
GlyphClass: 1
Flags: HW
LayerCount: 2
Fore
SplineSet
377 734 m 0,0,1
 377 783 377 783 367 816.5 c 128,-1,2
 357 850 357 850 338 850 c 0,3,4
 310 850 310 850 286 734 c 1,5,6
 309.804878049 612.991869919 309.804878049 612.991869919 337.54497984 612.991869919 c 0,0,0
 356.99757311 612.991869919 356.99757311 612.991869919 367 646.5 c 128,-1,9
 377 680 377 680 377 734 c 0,0,1
182 734 m 1,10,11
 165 853 165 853 133 855 c 0,12,13
 114 855 114 855 104 820.5 c 128,-1,14
 94 786 94 786 94 734 c 0,15,16
 94 688 94 688 103.5 652.5 c 128,-1,17
 113 617 113 617 135 617 c 0,18,19
 163 617 163 617 182 734 c 1,10,11
475 730 m 0,20,21
 475 600 475 600 439.5 506 c 128,-1,22
 404 412 404 412 351 412 c 0,23,24
 317 412 317 412 287 450.5 c 128,-1,25
 257 489 257 489 235 566 c 1,26,27
 211 498 211 498 181 456.5 c 128,-1,28
 151 415 151 415 121 415 c 0,29,30
 68 415 68 415 31.5 504.5 c 128,-1,31
 -5 594 -5 594 -5 734 c 0,32,33
 -5 869 -5 869 30.5 962 c 128,-1,34
 66 1055 66 1055 121 1055 c 0,35,36
 153 1055 153 1055 183.5 1019 c 128,-1,37
 214 983 214 983 237 901 c 1,38,39
 280 1052 280 1052 351 1053 c 0,40,41
 404 1053 404 1053 439.5 965 c 128,-1,42
 475 877 475 877 475 730 c 0,20,21
EndSplineSet
EndChar

StartChar: emptyset
Encoding: 8709 8709 637
Width: 512
VWidth: 2441
GlyphClass: 1
Flags: HW
LayerCount: 2
Fore
SplineSet
245 410 m 0,0,1
 297 410 297 410 328.5 519.5 c 128,-1,2
 360 629 360 629 360 796 c 0,3,4
 360 869 360 869 354 932 c 1,5,-1
 176 484 l 1,6,7
 205 410 205 410 245 410 c 0,0,1
132 796 m 0,8,9
 132 723 132 723 138 659 c 1,10,-1
 316 1106 l 1,11,12
 286 1176 286 1176 245 1177 c 0,13,14
 195 1177 195 1177 163.5 1069.5 c 128,-1,15
 132 962 132 962 132 796 c 0,8,9
86 254 m 1,16,-1
 7 327 l 1,17,-1
 64 471 l 1,18,19
 26 608 26 608 26 796 c 0,20,21
 26 945 26 945 51 1065.5 c 128,-1,22
 76 1186 76 1186 125 1258 c 128,-1,23
 174 1330 174 1330 245 1330 c 0,24,25
 318 1330 318 1330 372 1250 c 1,26,-1
 408 1342 l 1,27,-1
 487 1270 l 1,28,-1
 428 1121 l 1,29,30
 468 984 468 984 468 796 c 0,31,32
 468 649 468 649 442 527 c 128,-1,33
 416 405 416 405 366 332 c 128,-1,34
 316 259 316 259 245 259 c 0,35,36
 172 259 172 259 120 340 c 1,37,-1
 86 254 l 1,16,-1
EndSplineSet
EndChar

StartChar: integral
Encoding: 8747 8747 638
Width: 512
VWidth: 2358
GlyphClass: 1
Flags: HW
LayerCount: 2
Fore
SplineSet
141 -246 m 0,0,1
 95 -246 95 -246 52 -208 c 1,2,-1
 52 -12 l 1,3,4
 68 -24 68 -24 85.5 -36 c 128,-1,5
 103 -48 103 -48 120 -48 c 0,6,7
 150 -48 150 -48 163 1 c 128,-1,8
 176 50 176 50 176 158 c 2,9,-1
 176 1463 l 2,10,11
 176 1669 176 1669 233 1762 c 128,-1,12
 290 1855 290 1855 376 1855 c 0,13,14
 422 1855 422 1855 463 1820 c 1,15,-1
 463 1624 l 1,16,17
 447 1636 447 1636 428 1647 c 128,-1,18
 409 1658 409 1658 395 1658 c 0,19,20
 363 1658 363 1658 349.5 1611 c 128,-1,21
 336 1564 336 1564 336 1437 c 2,22,-1
 336 137 l 2,23,24
 336 -61 336 -61 278.5 -153.5 c 128,-1,25
 221 -246 221 -246 141 -246 c 0,0,1
EndSplineSet
EndChar

StartChar: uni2126
Encoding: 8486 8486 639
Width: 512
VWidth: 2441
GlyphClass: 1
Flags: HW
LayerCount: 2
Fore
SplineSet
254 1367 m 128,-1,1
 199 1367 199 1367 174.5 1253.5 c 128,-1,2
 150 1140 150 1140 150 916 c 0,3,4
 150 701 150 701 166 553 c 128,-1,5
 182 405 182 405 223 329 c 1,6,-1
 223 0 l 1,7,-1
 13 0 l 1,8,-1
 13 278 l 1,9,-1
 104 278 l 1,10,11
 61 366 61 366 38.5 542 c 128,-1,12
 16 718 16 718 16 964 c 0,13,14
 16 1313 16 1313 79 1480 c 128,-1,15
 142 1647 142 1647 252 1647 c 0,16,17
 358 1647 358 1647 423.5 1482.5 c 128,-1,18
 489 1318 489 1318 489 964 c 0,19,20
 489 720 489 720 467.5 545.5 c 128,-1,21
 446 371 446 371 401 278 c 1,22,-1
 493 278 l 1,23,-1
 493 0 l 1,24,-1
 281 0 l 1,25,-1
 281 329 l 1,26,27
 328 410 328 410 342.5 559 c 128,-1,28
 357 708 357 708 357 918 c 0,29,30
 355 1142 355 1142 332 1254.5 c 128,-1,0
 309 1367 309 1367 254 1367 c 128,-1,1
EndSplineSet
EndChar

StartChar: uni2206
Encoding: 8710 8710 640
Width: 512
VWidth: 2441
GlyphClass: 1
Flags: HW
LayerCount: 2
Fore
SplineSet
354 222 m 1,0,-1
 268 1284 l 1,1,-1
 264 1284 l 1,2,-1
 173 222 l 1,3,-1
 354 222 l 1,0,-1
344 1647 m 1,4,-1
 504 156 l 1,5,-1
 504 0 l 1,6,-1
 24 0 l 1,7,-1
 24 159 l 1,8,-1
 185 1647 l 1,9,-1
 344 1647 l 1,4,-1
EndSplineSet
EndChar

StartChar: product
Encoding: 8719 8719 641
Width: 512
VWidth: 2339
GlyphClass: 1
Flags: HW
LayerCount: 2
Fore
SplineSet
46 -246 m 1,0,-1
 46 1521 l 1,1,-1
 508 1521 l 1,2,3
 508 1502 508 1502 503 1492 c 128,-1,4
 498 1482 498 1482 496 1445 c 2,5,-1
 496 -246 l 1,6,-1
 346 -246 l 1,7,-1
 346 1351 l 1,8,-1
 197 1351 l 1,9,-1
 197 -246 l 1,10,-1
 46 -246 l 1,0,-1
EndSplineSet
EndChar

StartChar: summation
Encoding: 8721 8721 642
Width: 512
VWidth: 2372
GlyphClass: 1
Flags: HW
LayerCount: 2
Fore
SplineSet
20 -246 m 1,0,-1
 20 -74 l 1,1,-1
 228 693 l 1,2,-1
 27 1458 l 1,3,-1
 27 1631 l 1,4,-1
 483 1631 l 1,5,-1
 483 1434 l 1,6,-1
 214 1434 l 1,7,-1
 402 698 l 1,8,-1
 199 -49 l 1,9,-1
 500 -49 l 1,10,-1
 500 -246 l 1,11,-1
 20 -246 l 1,0,-1
EndSplineSet
EndChar

StartChar: radical
Encoding: 8730 8730 643
Width: 512
VWidth: 2441
GlyphClass: 1
Flags: HW
LayerCount: 2
Fore
SplineSet
148 -17 m 1,0,-1
 62 643 l 1,1,-1
 -7 643 l 1,2,-1
 -7 845 l 1,3,-1
 148 845 l 1,4,-1
 195 473 l 1,5,-1
 336 1647 l 1,6,-1
 473 1647 l 1,7,-1
 267 -17 l 1,8,-1
 148 -17 l 1,0,-1
EndSplineSet
EndChar

StartChar: uni00B5
Encoding: 181 181 644
Width: 512
VWidth: 2328
GlyphClass: 1
Flags: HW
LayerCount: 2
Fore
SplineSet
4 -246 m 1,0,1
 4 -161 4 -161 12.5 47 c 128,-1,2
 21 255 21 255 21 553 c 2,3,-1
 21 1135 l 1,4,-1
 149 1135 l 1,5,-1
 149 506 l 2,6,7
 149 368 149 368 159 317.5 c 128,-1,8
 169 267 169 267 195 267 c 0,9,10
 225 267 225 267 237 327 c 128,-1,11
 249 387 249 387 249 502 c 2,12,-1
 249 1135 l 1,13,-1
 377 1135 l 1,14,-1
 377 376 l 2,15,16
 377 282.989473684 377 282.989473684 399.51833795 282.989473684 c 0,0,0
 407.994210526 282.989473684 407.994210526 282.989473684 419 303 c 128,-1,19
 430 323 430 323 436 347 c 2,20,-1
 442 381 l 1,21,-1
 484 204 l 1,22,23
 442 72 442 72 388 72 c 0,24,25
 362 72 362 72 343.5 102.5 c 128,-1,26
 325 133 325 133 316 182 c 1,27,28
 300 129 300 129 269.5 103.5 c 128,-1,29
 239 78 239 78 207 78 c 0,30,31
 181 78 181 78 155.5 106.5 c 128,-1,32
 130 135 130 135 121 191 c 1,33,34
 121 131 121 131 120 50.5 c 128,-1,35
 119 -30 119 -30 119 -109 c 128,-1,36
 119 -188 119 -188 119 -246 c 1,37,-1
 4 -246 l 1,0,1
EndSplineSet
EndChar

StartChar: partialdiff
Encoding: 8706 8706 645
Width: 512
VWidth: 2441
GlyphClass: 1
Flags: HW
LayerCount: 2
Fore
SplineSet
243 170 m 0,0,1
 287 170 287 170 311 249.5 c 128,-1,2
 335 329 335 329 346 458 c 128,-1,3
 357 587 357 587 361 732 c 1,4,5
 321 916 321 916 260 916 c 0,6,7
 229 916 229 916 208 870.5 c 128,-1,8
 187 825 187 825 176.5 750.5 c 128,-1,9
 166 676 166 676 163 589.5 c 128,-1,10
 161.2 537.6 161.2 537.6 161.2 485.88 c 0,0,0
 161.2 451.4 161.2 451.4 162 417 c 0,11,12
 168 291 168 291 186.5 230.5 c 128,-1,13
 205 170 205 170 243 170 c 0,0,1
230 -27 m 0,14,15
 135 -27 135 -27 84 102.5 c 128,-1,16
 33 232 33 232 23 427 c 0,17,18
 20.8181818182 471.363636364 20.8181818182 471.363636364 20.8181818182 515.462809917 c 0,0,0
 20.8181818182 592.636363636 20.8181818182 592.636363636 27.5 669 c 128,-1,19
 38 789 38 789 63.5 887.5 c 128,-1,20
 89 986 89 986 132.5 1046 c 128,-1,21
 176 1106 176 1106 236 1106 c 0,22,23
 280 1106 280 1106 309.5 1079.5 c 128,-1,24
 339 1053 339 1053 359 1006 c 1,25,26
 359 1027 359 1027 358 1047 c 128,-1,27
 357 1067 357 1067 355 1091 c 0,28,29
 349 1182 349 1182 338.5 1255 c 128,-1,30
 328 1328 328 1328 304 1372 c 128,-1,31
 280 1416 280 1416 234 1416 c 0,32,33
 207 1416 207 1416 172 1399 c 128,-1,34
 137 1382 137 1382 107 1342 c 1,35,-1
 97 1550 l 1,36,37
 128 1582 128 1582 165 1598 c 128,-1,38
 202 1614 202 1614 236 1614 c 0,39,40
 329 1614 329 1614 382.5 1546.5 c 128,-1,41
 436 1479 436 1479 460 1342.5 c 128,-1,42
 484 1206 484 1206 494 1001 c 0,43,44
 501.2 875 501.2 875 501.2 757.28 c 0,0,0
 501.2 678.8 501.2 678.8 498 604 c 128,-1,45
 490 417 490 417 460 276 c 128,-1,46
 430 135 430 135 372.5 54 c 128,-1,47
 315 -27 315 -27 230 -27 c 0,14,15
EndSplineSet
EndChar

StartChar: percent
Encoding: 37 37 646
Width: 512
VWidth: 2441
GlyphClass: 1
Flags: HW
LayerCount: 2
Fore
SplineSet
373 132 m 0,0,1
 389 132 389 132 396.5 172 c 128,-1,2
 404 212 404 212 404 281 c 0,3,4
 404 351 404 351 396.5 393 c 128,-1,5
 389 435 389 435 371 435 c 0,6,7
 340 435 340 435 340 286 c 0,8,9
 340 132 340 132 373 132 c 0,0,1
373 -24 m 128,-1,11
 320 -24 320 -24 286.5 54 c 128,-1,12
 253 132 253 132 253 284 c 0,13,14
 253 435 253 435 286.5 514.5 c 128,-1,15
 320 594 320 594 373 594 c 128,-1,16
 426 594 426 594 458.5 514.5 c 128,-1,17
 491 435 491 435 491 284 c 128,-1,18
 491 133 491 133 458.5 54.5 c 128,-1,10
 426 -24 426 -24 373 -24 c 128,-1,11
131 1086 m 128,-1,20
 162 1086 162 1086 162 1237 c 128,-1,21
 162 1388 162 1388 129 1389 c 0,22,23
 100 1389 100 1389 100 1237 c 0,24,19
 100 1086 100 1086 131 1086 c 128,-1,20
20 0 m 1,25,-1
 371 1521 l 1,26,-1
 485 1521 l 1,27,-1
 131 0 l 1,28,-1
 20 0 l 1,25,-1
131 925 m 0,29,30
 78 925 78 925 44.5 1003 c 128,-1,31
 11 1081 11 1081 11 1237 c 0,32,33
 11 1388 11 1388 44.5 1467.5 c 128,-1,34
 78 1547 78 1547 131 1547 c 128,-1,35
 184 1547 184 1547 217.5 1466.5 c 128,-1,36
 251 1386 251 1386 251 1235 c 0,37,38
 251 1079 251 1079 218.5 1002 c 128,-1,39
 186 925 186 925 131 925 c 0,29,30
EndSplineSet
EndChar

StartChar: perthousand
Encoding: 8240 8240 647
Width: 512
VWidth: 2441
GlyphClass: 1
Flags: HW
LayerCount: 2
Fore
SplineSet
383 126 m 0,0,1
 399 126 399 126 408 165.5 c 128,-1,2
 417 205 417 205 417 273 c 0,3,4
 417 417 417 417 383 417 c 0,5,6
 351.96969697 417 351.96969697 417 351.96969697 281.595041322 c 0,0,0
 351.96969697 277.363636364 351.96969697 277.363636364 352 273 c 0,7,8
 352 205 352 205 360.5 165.5 c 128,-1,9
 369 126 369 126 383 126 c 0,0,1
133 126 m 0,10,11
 147 126 147 126 156 165.5 c 128,-1,12
 165 205 165 205 165 273 c 0,13,14
 165 417 165 417 131 417 c 0,15,16
 102 417 102 417 102 273 c 0,17,18
 102 205 102 205 109.5 165.5 c 128,-1,19
 117 126 117 126 133 126 c 0,10,11
385 -21 m 0,20,21
 339 -21 339 -21 306 48 c 128,-1,22
 273 117 273 117 271 273 c 0,23,24
 271 417 271 417 305.5 494 c 128,-1,25
 340 571 340 571 385 571 c 0,26,27
 431 571 431 571 464 497.5 c 128,-1,28
 497 424 497 424 497 271 c 0,29,30
 497 117 497 117 463 48 c 128,-1,31
 429 -21 429 -21 385 -21 c 0,20,21
133 -21 m 128,-1,33
 89 -21 89 -21 54.5 48 c 128,-1,34
 20 117 20 117 20 273 c 0,35,36
 20 424 20 424 54.5 497.5 c 128,-1,37
 89 571 89 571 133 571 c 0,38,39
 179 571 179 571 213.5 494 c 128,-1,40
 248 417 248 417 248 271 c 0,41,42
 248 117 248 117 212.5 48 c 128,-1,32
 177 -21 177 -21 133 -21 c 128,-1,33
20 547 m 1,43,-1
 20 720 l 1,44,-1
 500 1299 l 1,45,-1
 500 1128 l 1,46,-1
 20 547 l 1,43,-1
133 1106 m 0,47,48
 147 1106 147 1106 156 1145 c 128,-1,49
 165 1184 165 1184 165 1253 c 0,50,51
 165 1396.00689655 165 1396.00689655 131.467348395 1396.00689655 c 0,0,0
 102 1396.00689655 102 1396.00689655 102 1253 c 0,54,55
 102 1185 102 1185 109.5 1145.5 c 128,-1,56
 117 1106 117 1106 133 1106 c 0,47,48
133 957 m 128,-1,58
 89 957 89 957 54.5 1028 c 128,-1,59
 20 1099 20 1099 20 1253 c 0,60,61
 20 1404 20 1404 54.5 1477 c 128,-1,62
 89 1550 89 1550 133 1550 c 0,63,64
 179 1550 179 1550 213.5 1477 c 128,-1,65
 248 1404 248 1404 248 1250 c 128,-1,66
 248 1096 248 1096 212.5 1026.5 c 128,-1,57
 177 957 177 957 133 957 c 128,-1,58
EndSplineSet
EndChar

StartChar: circleplus
Encoding: 8853 8853 648
Width: 512
VWidth: 2441
GlyphClass: 1
Flags: HW
LayerCount: 2
Fore
SplineSet
217 445 m 1,0,-1
 217 701 l 1,1,-1
 141 701 l 1,2,-1
 141 818 l 1,3,-1
 217 818 l 1,4,-1
 217 1050 l 1,5,-1
 308 1050 l 1,6,-1
 308 818 l 1,7,-1
 379 818 l 1,8,-1
 379 701 l 1,9,-1
 308 701 l 1,10,-1
 308 445 l 1,11,-1
 217 445 l 1,0,-1
260 389 m 128,-1,13
 322 389 322 389 362 489 c 128,-1,14
 402 589 402 589 402 752 c 128,-1,15
 402 915 402 915 362 1014 c 128,-1,16
 322 1113 322 1113 260 1113 c 128,-1,17
 198 1113 198 1113 158.5 1014.5 c 128,-1,18
 119 916 119 916 119 752 c 0,19,20
 119 589 119 589 158.5 489 c 128,-1,12
 198 389 198 389 260 389 c 128,-1,13
260 266 m 0,21,22
 156 266 156 266 88 395.5 c 128,-1,23
 20 525 20 525 20 752 c 0,24,25
 20 978 20 978 88.5 1107.5 c 128,-1,26
 157 1237 157 1237 260 1237 c 0,27,28
 362 1237 362 1237 431 1108 c 128,-1,29
 500 979 500 979 500 752 c 0,30,31
 500 526 500 526 431 396 c 128,-1,32
 362 266 362 266 260 266 c 0,21,22
EndSplineSet
EndChar

StartChar: arrowup
Encoding: 8593 8593 651
Width: 512
VWidth: 2441
GlyphClass: 1
Flags: HW
LayerCount: 2
Fore
SplineSet
192 0 m 1,0,-1
 192 957 l 1,1,-1
 122 762 l 1,2,-1
 28 920 l 1,3,-1
 235 1502 l 1,4,-1
 299 1502 l 1,5,-1
 508 920 l 1,6,-1
 416 762 l 1,7,-1
 344 955 l 1,8,-1
 344 0 l 1,9,-1
 192 0 l 1,0,-1
EndSplineSet
EndChar

StartChar: uni2197
Encoding: 8599 8599 652
Width: 512
VWidth: 2441
GlyphClass: 1
Flags: HW
LayerCount: 2
Fore
SplineSet
19 373 m 1,0,-1
 275 1116 l 1,1,-1
 107 1057 l 1,2,-1
 99 1250 l 1,3,-1
 454 1370 l 1,4,-1
 499 1267 l 1,5,-1
 463 598 l 1,6,-1
 341 610 l 1,7,-1
 365 967 l 1,8,-1
 131 278 l 1,9,-1
 19 373 l 1,0,-1
EndSplineSet
EndChar

StartChar: arrowright
Encoding: 8594 8594 653
Width: 512
VWidth: 2441
GlyphClass: 1
Flags: HW
LayerCount: 2
Fore
SplineSet
16 823 m 1,0,-1
 305 823 l 1,1,-1
 144 1177 l 1,2,-1
 251 1272 l 1,3,-1
 496 767 l 1,4,-1
 496 681 l 1,5,-1
 251 175 l 1,6,-1
 144 273 l 1,7,-1
 305 622 l 1,8,-1
 16 622 l 1,9,-1
 16 823 l 1,0,-1
EndSplineSet
EndChar

StartChar: arrowboth
Encoding: 8596 8596 659
Width: 512
VWidth: 2441
GlyphClass: 1
Flags: HW
LayerCount: 2
Fore
SplineSet
371 1197 m 1,0,-1
 483 774 l 1,1,-1
 483 662 l 1,2,-1
 371 249 l 1,3,-1
 267 345 l 1,4,-1
 335 622 l 1,5,-1
 151 622 l 1,6,-1
 219 345 l 1,7,-1
 115 249 l 1,8,-1
 3 662 l 1,9,-1
 3 774 l 1,10,-1
 117 1197 l 1,11,-1
 219 1109 l 1,12,-1
 151 820 l 1,13,-1
 337 820 l 1,14,-1
 267 1109 l 1,15,-1
 371 1197 l 1,0,-1
EndSplineSet
EndChar

StartChar: arrowupdn
Encoding: 8597 8597 660
Width: 512
VWidth: 2441
GlyphClass: 1
Flags: HW
LayerCount: 2
Fore
SplineSet
519 398 m 1,0,-1
 305 88 l 1,1,-1
 253 88 l 1,2,-1
 39 403 l 1,3,-1
 100 589 l 1,4,-1
 197 447 l 1,5,-1
 197 1057 l 1,6,-1
 100 913 l 1,7,-1
 45 1109 l 1,8,-1
 253 1416 l 1,9,-1
 305 1416 l 1,10,-1
 519 1106 l 1,11,-1
 467 908 l 1,12,-1
 367 1057 l 1,13,-1
 367 442 l 1,14,-1
 467 589 l 1,15,-1
 519 398 l 1,0,-1
EndSplineSet
EndChar

StartChar: uni21E7
Encoding: 8679 8679 661
Width: 512
VWidth: 2441
GlyphClass: 1
Flags: HW
LayerCount: 2
Fore
SplineSet
243 126 m 1,0,-1
 315 126 l 1,1,-1
 315 1020 l 1,2,-1
 397 1020 l 1,3,-1
 279 1326 l 1,4,-1
 169 1020 l 1,5,-1
 243 1020 l 1,6,-1
 243 126 l 1,0,-1
142 0 m 1,7,-1
 142 892 l 1,8,-1
 38 892 l 1,9,-1
 38 999 l 1,10,-1
 264 1553 l 1,11,-1
 294 1553 l 1,12,-1
 518 999 l 1,13,-1
 518 892 l 1,14,-1
 416 892 l 1,15,-1
 416 0 l 1,16,-1
 142 0 l 1,7,-1
EndSplineSet
EndChar

StartChar: uni21E8
Encoding: 8680 8680 662
Width: 512
VWidth: 2441
GlyphClass: 1
Flags: HW
LayerCount: 2
Fore
SplineSet
95 837 m 1,0,-1
 95 547 l 1,1,-1
 304 547 l 1,2,-1
 304 496 l 1,3,-1
 386 694 l 1,4,-1
 304 886 l 1,5,-1
 304 837 l 1,6,-1
 95 837 l 1,0,-1
3 964 m 1,7,-1
 213 964 l 1,8,-1
 213 1223 l 1,9,-1
 257 1223 l 1,10,-1
 483 725 l 1,11,-1
 483 659 l 1,12,-1
 257 163 l 1,13,-1
 213 163 l 1,14,-1
 213 420 l 1,15,-1
 3 420 l 1,16,-1
 3 964 l 1,7,-1
EndSplineSet
EndChar

StartChar: uni2B06
Encoding: 11014 11014 665
Width: 512
VWidth: 2441
GlyphClass: 1
Flags: HW
LayerCount: 2
Fore
SplineSet
518 999 m 1,0,-1
 518 892 l 1,1,-1
 403 892 l 1,2,-1
 403 0 l 1,3,-1
 155 0 l 1,4,-1
 155 892 l 1,5,-1
 38 892 l 1,6,-1
 38 999 l 1,7,-1
 264 1553 l 1,8,-1
 294 1553 l 1,9,-1
 518 999 l 1,0,-1
EndSplineSet
EndChar

StartChar: uni2B05
Encoding: 11013 11013 668
Width: 512
VWidth: 2441
GlyphClass: 1
Flags: HW
LayerCount: 2
Fore
SplineSet
483 420 m 1,0,-1
 275 420 l 1,1,-1
 275 163 l 1,2,-1
 231 163 l 1,3,-1
 3 659 l 1,4,-1
 3 725 l 1,5,-1
 231 1223 l 1,6,-1
 275 1223 l 1,7,-1
 275 964 l 1,8,-1
 483 964 l 1,9,-1
 483 420 l 1,0,-1
EndSplineSet
EndChar

StartChar: dneighthblock
Encoding: 9601 9601 669
Width: 512
VWidth: 2440
GlyphClass: 1
Flags: HW
LayerCount: 2
Fore
SplineSet
450 -246 m 1,0,-1
 450 -550 l 1,1,-1
 16 -550 l 1,2,-1
 16 -246 l 1,3,-1
 450 -246 l 1,0,-1
EndSplineSet
EndChar

StartChar: dnquarterblock
Encoding: 9602 9602 670
Width: 512
VWidth: 250
GlyphClass: 1
Flags: HW
LayerCount: 2
Fore
SplineSet
-17 -246 m 1,0,-1
 -17 -122 l 1,1,-1
 72 -122 l 1,2,-1
 72 -246 l 1,3,-1
 -17 -246 l 1,0,-1
EndSplineSet
EndChar

StartChar: dnthreeeighthsblock
Encoding: 9603 9603 671
Width: 512
VWidth: 1223
GlyphClass: 1
Flags: HW
LayerCount: 2
Fore
SplineSet
-17 -246 m 1,0,-1
 -17 305 l 1,1,-1
 246 305 l 1,2,-1
 246 -246 l 1,3,-1
 -17 -246 l 1,0,-1
EndSplineSet
EndChar

StartChar: dnhalfblock
Encoding: 9604 9604 672
Width: 512
VWidth: 1709
GlyphClass: 1
Flags: HW
LayerCount: 2
Fore
SplineSet
-16 -246 m 1,0,-1
 -16 732 l 1,1,-1
 333 732 l 1,2,-1
 333 -246 l 1,3,-1
 -16 -246 l 1,0,-1
EndSplineSet
EndChar

StartChar: dnfiveeighthsblock
Encoding: 9605 9605 673
Width: 512
VWidth: 2002
GlyphClass: 1
Flags: HW
LayerCount: 2
Fore
SplineSet
-17 -246 m 1,0,-1
 -17 1160 l 1,1,-1
 385 1160 l 1,2,-1
 385 -246 l 1,3,-1
 -17 -246 l 1,0,-1
EndSplineSet
EndChar

StartChar: dnthreequartersblock
Encoding: 9606 9606 674
Width: 512
VWidth: 2196
GlyphClass: 1
Flags: HW
LayerCount: 2
Fore
SplineSet
-16 -246 m 1,0,-1
 -16 1587 l 1,1,-1
 420 1587 l 1,2,-1
 420 -246 l 1,3,-1
 -16 -246 l 1,0,-1
EndSplineSet
EndChar

StartChar: dnseveneighthsblock
Encoding: 9607 9607 675
Width: 512
VWidth: 2335
GlyphClass: 1
Flags: HW
LayerCount: 2
Fore
SplineSet
-16 -246 m 1,0,-1
 -16 2015 l 1,1,-1
 445 2015 l 1,2,-1
 445 -246 l 1,3,-1
 -16 -246 l 1,0,-1
EndSplineSet
EndChar

StartChar: fullblock
Encoding: 9608 9608 676
Width: 512
VWidth: 2441
GlyphClass: 1
Flags: HW
LayerCount: 2
Fore
SplineSet
-17 -246 m 1,0,-1
 -17 2441 l 1,1,-1
 463 2441 l 1,2,-1
 463 -246 l 1,3,-1
 -17 -246 l 1,0,-1
EndSplineSet
EndChar

StartChar: uphalfblock
Encoding: 9600 9600 677
Width: 512
VWidth: 2441
GlyphClass: 1
Flags: HW
LayerCount: 2
Fore
SplineSet
-17 732 m 1,0,-1
 -17 2441 l 1,1,-1
 463 2441 l 1,2,-1
 463 732 l 1,3,-1
 -17 732 l 1,0,-1
EndSplineSet
EndChar

StartChar: upeighthblock
Encoding: 9620 9620 678
Width: 512
VWidth: 2441
GlyphClass: 1
Flags: HW
LayerCount: 2
Fore
SplineSet
-17 2015 m 1,0,-1
 -17 2441 l 1,1,-1
 463 2441 l 1,2,-1
 463 2015 l 1,3,-1
 -17 2015 l 1,0,-1
EndSplineSet
EndChar

StartChar: lefteighthblock
Encoding: 9615 9615 679
Width: 512
VWidth: 2441
GlyphClass: 1
Flags: HW
LayerCount: 2
Fore
SplineSet
16 -246 m 1,0,-1
 16 2441 l 1,1,-1
 75 2441 l 1,2,-1
 75 -246 l 1,3,-1
 16 -246 l 1,0,-1
EndSplineSet
EndChar

StartChar: leftquarterblock
Encoding: 9614 9614 680
Width: 512
VWidth: 2441
GlyphClass: 1
Flags: HW
LayerCount: 2
Fore
SplineSet
16 -246 m 1,0,-1
 16 2441 l 1,1,-1
 137 2441 l 1,2,-1
 137 -246 l 1,3,-1
 16 -246 l 1,0,-1
EndSplineSet
EndChar

StartChar: leftthreeeighthsblock
Encoding: 9613 9613 681
Width: 512
VWidth: 2441
GlyphClass: 1
Flags: HW
LayerCount: 2
Fore
SplineSet
16 -246 m 1,0,-1
 16 2441 l 1,1,-1
 197 2441 l 1,2,-1
 197 -246 l 1,3,-1
 16 -246 l 1,0,-1
EndSplineSet
EndChar

StartChar: lefthalfblock
Encoding: 9612 9612 682
Width: 512
VWidth: 2441
GlyphClass: 1
Flags: HW
LayerCount: 2
Fore
SplineSet
16 -246 m 1,0,-1
 16 2441 l 1,1,-1
 256 2441 l 1,2,-1
 256 -246 l 1,3,-1
 16 -246 l 1,0,-1
EndSplineSet
EndChar

StartChar: leftfiveeighthsblock
Encoding: 9611 9611 683
Width: 512
VWidth: 2441
GlyphClass: 1
Flags: HW
LayerCount: 2
Fore
SplineSet
16 -246 m 1,0,-1
 16 2441 l 1,1,-1
 315 2441 l 1,2,-1
 315 -246 l 1,3,-1
 16 -246 l 1,0,-1
EndSplineSet
EndChar

StartChar: leftthreequartersblock
Encoding: 9610 9610 684
Width: 512
VWidth: 2441
GlyphClass: 1
Flags: HW
LayerCount: 2
Fore
SplineSet
16 -246 m 1,0,-1
 16 2441 l 1,1,-1
 377 2441 l 1,2,-1
 377 -246 l 1,3,-1
 16 -246 l 1,0,-1
EndSplineSet
EndChar

StartChar: leftseveneighthsblock
Encoding: 9609 9609 685
Width: 512
VWidth: 2441
GlyphClass: 1
Flags: HW
LayerCount: 2
Fore
SplineSet
16 -246 m 1,0,-1
 16 2441 l 1,1,-1
 437 2441 l 1,2,-1
 437 -246 l 1,3,-1
 16 -246 l 1,0,-1
EndSplineSet
EndChar

StartChar: righthalfblock
Encoding: 9616 9616 686
Width: 512
VWidth: 2441
GlyphClass: 1
Flags: HW
LayerCount: 2
Fore
SplineSet
223 -246 m 1,0,-1
 223 2441 l 1,1,-1
 463 2441 l 1,2,-1
 463 -246 l 1,3,-1
 223 -246 l 1,0,-1
EndSplineSet
EndChar

StartChar: righteighthblock
Encoding: 9621 9621 687
Width: 512
VWidth: 2441
GlyphClass: 1
Flags: HW
LayerCount: 2
Fore
SplineSet
404 -246 m 1,0,-1
 404 2441 l 1,1,-1
 463 2441 l 1,2,-1
 463 -246 l 1,3,-1
 404 -246 l 1,0,-1
EndSplineSet
EndChar

StartChar: dnleftquadrant
Encoding: 9622 9622 688
Width: 512
VWidth: 1709
GlyphClass: 1
Flags: HW
LayerCount: 2
Fore
SplineSet
16 -246 m 1,0,-1
 16 732 l 1,1,-1
 191 732 l 1,2,-1
 191 -246 l 1,3,-1
 16 -246 l 1,0,-1
EndSplineSet
EndChar

StartChar: dnrightquadrant
Encoding: 9623 9623 689
Width: 512
VWidth: 1709
GlyphClass: 1
Flags: HW
LayerCount: 2
Fore
SplineSet
158 -246 m 1,0,-1
 158 732 l 1,1,-1
 333 732 l 1,2,-1
 333 -246 l 1,3,-1
 158 -246 l 1,0,-1
EndSplineSet
EndChar

StartChar: upleftquadrant
Encoding: 9624 9624 690
Width: 512
VWidth: 2441
GlyphClass: 1
Flags: HW
LayerCount: 2
Fore
SplineSet
16 732 m 1,0,-1
 16 2441 l 1,1,-1
 321 2441 l 1,2,-1
 321 732 l 1,3,-1
 16 732 l 1,0,-1
EndSplineSet
EndChar

StartChar: upleftdnleftdnrightquadrant
Encoding: 9625 9625 691
Width: 512
VWidth: 2441
GlyphClass: 1
Flags: HW
LayerCount: 2
Fore
SplineSet
-17 -246 m 1,0,-1
 -17 2441 l 1,1,-1
 223 2441 l 1,2,-1
 223 1097 l 1,3,-1
 463 1097 l 1,4,-1
 463 -246 l 1,5,-1
 -17 -246 l 1,0,-1
EndSplineSet
EndChar

StartChar: upleftdnrightquadrant
Encoding: 9626 9626 692
Width: 512
VWidth: 2441
GlyphClass: 1
Flags: HW
LayerCount: 2
Fore
SplineSet
223 1097 m 1,0,-1
 463 1097 l 1,1,-1
 463 -246 l 1,2,-1
 223 -246 l 1,3,-1
 223 1097 l 1,0,-1
223 1097 m 1,4,-1
 -17 1097 l 1,5,-1
 -17 2441 l 1,6,-1
 223 2441 l 1,7,-1
 223 1097 l 1,4,-1
EndSplineSet
EndChar

StartChar: upleftuprightdnleftquadrant
Encoding: 9627 9627 693
Width: 512
VWidth: 2441
GlyphClass: 1
Flags: HW
LayerCount: 2
Fore
SplineSet
-17 -246 m 1,0,-1
 -17 2441 l 1,1,-1
 463 2441 l 1,2,-1
 463 1097 l 1,3,-1
 223 1097 l 1,4,-1
 223 -246 l 1,5,-1
 -17 -246 l 1,0,-1
EndSplineSet
EndChar

StartChar: upleftuprightdnrightquadrant
Encoding: 9628 9628 694
Width: 512
VWidth: 2441
GlyphClass: 1
Flags: HW
LayerCount: 2
Fore
SplineSet
223 -246 m 1,0,-1
 223 1097 l 1,1,-1
 -17 1097 l 1,2,-1
 -17 2441 l 1,3,-1
 463 2441 l 1,4,-1
 463 -246 l 1,5,-1
 223 -246 l 1,0,-1
EndSplineSet
EndChar

StartChar: uprightquadrant
Encoding: 9629 9629 695
Width: 512
VWidth: 2441
GlyphClass: 1
Flags: HW
LayerCount: 2
Fore
SplineSet
289 732 m 1,0,-1
 289 2441 l 1,1,-1
 594 2441 l 1,2,-1
 594 732 l 1,3,-1
 289 732 l 1,0,-1
EndSplineSet
EndChar

StartChar: uprightdnleftquadrant
Encoding: 9630 9630 696
Width: 512
VWidth: 2441
GlyphClass: 1
Flags: HW
LayerCount: 2
Fore
SplineSet
-17 -246 m 1,0,-1
 -17 1097 l 1,1,-1
 223 1097 l 1,2,-1
 223 -246 l 1,3,-1
 -17 -246 l 1,0,-1
223 1097 m 1,4,-1
 223 2441 l 1,5,-1
 463 2441 l 1,6,-1
 463 1097 l 1,7,-1
 223 1097 l 1,4,-1
EndSplineSet
EndChar

StartChar: uprightdnleftdnrightquadrant
Encoding: 9631 9631 697
Width: 512
VWidth: 2441
GlyphClass: 1
Flags: HW
LayerCount: 2
Fore
SplineSet
-17 -246 m 1,0,-1
 -17 1097 l 1,1,-1
 223 1097 l 1,2,-1
 223 2441 l 1,3,-1
 463 2441 l 1,4,-1
 463 -246 l 1,5,-1
 -17 -246 l 1,0,-1
EndSplineSet
EndChar

StartChar: lightshade
Encoding: 9617 9617 698
Width: 512
VWidth: 2430
GlyphClass: 1
Flags: HW
LayerCount: 2
Fore
SplineSet
2 -246 m 1
 2 -126 l 1
 63 -126 l 1
 63 -246 l 1
 2 -246 l 1
165 -246 m 1
 165 -126 l 1
 226 -126 l 1
 226 -246 l 1
 165 -246 l 1
326 -246 m 1
 326 -126 l 1
 387 -126 l 1
 387 -246 l 1
 326 -246 l 1
84 -52 m 1
 84 67 l 1
 144 67 l 1
 144 -52 l 1
 84 -52 l 1
245 -52 m 1
 245 67 l 1
 305 67 l 1
 305 -52 l 1
 245 -52 l 1
407 -52 m 1
 407 67 l 1
 468 67 l 1
 468 -52 l 1
 407 -52 l 1
2 141 m 1
 2 262 l 1
 63 262 l 1
 63 141 l 1
 2 141 l 1
165 141 m 1
 165 262 l 1
 226 262 l 1
 226 141 l 1
 165 141 l 1
326 141 m 1
 326 262 l 1
 387 262 l 1
 387 141 l 1
 326 141 l 1
407 335 m 1
 407 456 l 1
 468 456 l 1
 468 335 l 1
 407 335 l 1
245 335 m 1
 245 456 l 1
 305 456 l 1
 305 335 l 1
 245 335 l 1
84 335 m 1
 84 456 l 1
 144 456 l 1
 144 335 l 1
 84 335 l 1
2 530 m 1
 2 650 l 1
 63 650 l 1
 63 530 l 1
 2 530 l 1
165 530 m 1
 165 650 l 1
 226 650 l 1
 226 530 l 1
 165 530 l 1
326 530 m 1
 326 650 l 1
 387 650 l 1
 387 530 l 1
 326 530 l 1
84 724 m 1
 84 844 l 1
 144 844 l 1
 144 724 l 1
 84 724 l 1
245 724 m 1
 245 844 l 1
 305 844 l 1
 305 724 l 1
 245 724 l 1
407 724 m 1
 407 844 l 1
 468 844 l 1
 468 724 l 1
 407 724 l 1
2 918 m 1
 2 1037 l 1
 63 1037 l 1
 63 918 l 1
 2 918 l 1
165 918 m 1
 165 1037 l 1
 226 1037 l 1
 226 918 l 1
 165 918 l 1
326 918 m 1
 326 1037 l 1
 387 1037 l 1
 387 918 l 1
 326 918 l 1
84 1111 m 1
 84 1231 l 1
 144 1231 l 1
 144 1111 l 1
 84 1111 l 1
245 1111 m 1
 245 1231 l 1
 305 1231 l 1
 305 1111 l 1
 245 1111 l 1
407 1111 m 1
 407 1231 l 1
 468 1231 l 1
 468 1111 l 1
 407 1111 l 1
2 1305 m 1
 2 1425 l 1
 63 1425 l 1
 63 1305 l 1
 2 1305 l 1
165 1305 m 1
 165 1425 l 1
 226 1425 l 1
 226 1305 l 1
 165 1305 l 1
326 1305 m 1
 326 1425 l 1
 387 1425 l 1
 387 1305 l 1
 326 1305 l 1
84 1499 m 1
 84 1619 l 1
 144 1619 l 1
 144 1499 l 1
 84 1499 l 1
245 1499 m 1
 245 1619 l 1
 305 1619 l 1
 305 1499 l 1
 245 1499 l 1
407 1499 m 1
 407 1619 l 1
 468 1619 l 1
 468 1499 l 1
 407 1499 l 1
326 1693 m 1
 326 1814 l 1
 387 1814 l 1
 387 1693 l 1
 326 1693 l 1
165 1693 m 1
 165 1814 l 1
 226 1814 l 1
 226 1693 l 1
 165 1693 l 1
2 1693 m 1
 2 1814 l 1
 63 1814 l 1
 63 1693 l 1
 2 1693 l 1
84 1887 m 1
 84 2007 l 1
 144 2007 l 1
 144 1887 l 1
 84 1887 l 1
245 1887 m 1
 245 2007 l 1
 305 2007 l 1
 305 1887 l 1
 245 1887 l 1
407 1887 m 1
 407 2007 l 1
 468 2007 l 1
 468 1887 l 1
 407 1887 l 1
2 2081 m 1
 2 2201 l 1
 63 2201 l 1
 63 2081 l 1
 2 2081 l 1
165 2081 m 1
 165 2201 l 1
 226 2201 l 1
 226 2081 l 1
 165 2081 l 1
326 2081 m 1
 326 2201 l 1
 387 2201 l 1
 387 2081 l 1
 326 2081 l 1
84 2275 m 1
 84 2395 l 1
 144 2395 l 1
 144 2275 l 1
 84 2275 l 1
245 2275 m 1
 245 2395 l 1
 305 2395 l 1
 305 2275 l 1
 245 2275 l 1
407 2275 m 1
 407 2395 l 1
 468 2395 l 1
 468 2275 l 1
 407 2275 l 1
EndSplineSet
EndChar

StartChar: mediumshade
Encoding: 9618 9618 699
Width: 512
VWidth: 2436
GlyphClass: 1
Flags: HW
LayerCount: 2
Fore
SplineSet
-17 -246 m 1
 -17 -80 l 1
 64 -80 l 1
 64 -246 l 1
 -17 -246 l 1
142 -246 m 1
 142 -80 l 1
 225 -80 l 1
 225 -246 l 1
 142 -246 l 1
302 -246 m 1
 302 -80 l 1
 384 -80 l 1
 384 -246 l 1
 302 -246 l 1
62 -53 m 1
 62 112 l 1
 144 112 l 1
 144 -53 l 1
 62 -53 l 1
221 -53 m 1
 221 112 l 1
 304 112 l 1
 304 -53 l 1
 221 -53 l 1
382 -53 m 1
 382 112 l 1
 463 112 l 1
 463 -53 l 1
 382 -53 l 1
-17 140 m 1
 -17 305 l 1
 64 305 l 1
 64 140 l 1
 -17 140 l 1
142 140 m 1
 142 305 l 1
 225 305 l 1
 225 140 l 1
 142 140 l 1
302 140 m 1
 302 305 l 1
 384 305 l 1
 384 140 l 1
 302 140 l 1
382 333 m 1
 382 498 l 1
 463 498 l 1
 463 333 l 1
 382 333 l 1
221 333 m 1
 221 498 l 1
 304 498 l 1
 304 333 l 1
 221 333 l 1
62 333 m 1
 62 498 l 1
 144 498 l 1
 144 333 l 1
 62 333 l 1
-17 524 m 1
 -17 690 l 1
 64 690 l 1
 64 524 l 1
 -17 524 l 1
142 524 m 1
 142 690 l 1
 225 690 l 1
 225 524 l 1
 142 524 l 1
302 524 m 1
 302 690 l 1
 384 690 l 1
 384 524 l 1
 302 524 l 1
62 717 m 1
 62 883 l 1
 144 883 l 1
 144 717 l 1
 62 717 l 1
221 717 m 1
 221 883 l 1
 304 883 l 1
 304 717 l 1
 221 717 l 1
382 717 m 1
 382 883 l 1
 463 883 l 1
 463 717 l 1
 382 717 l 1
-17 910 m 1
 -17 1076 l 1
 64 1076 l 1
 64 910 l 1
 -17 910 l 1
142 910 m 1
 142 1076 l 1
 225 1076 l 1
 225 910 l 1
 142 910 l 1
302 910 m 1
 302 1076 l 1
 384 1076 l 1
 384 910 l 1
 302 910 l 1
62 1103 m 1
 62 1269 l 1
 144 1269 l 1
 144 1103 l 1
 62 1103 l 1
221 1103 m 1
 221 1269 l 1
 304 1269 l 1
 304 1103 l 1
 221 1103 l 1
382 1103 m 1
 382 1269 l 1
 463 1269 l 1
 463 1103 l 1
 382 1103 l 1
-17 1296 m 1
 -17 1461 l 1
 64 1461 l 1
 64 1296 l 1
 -17 1296 l 1
142 1296 m 1
 142 1461 l 1
 225 1461 l 1
 225 1296 l 1
 142 1296 l 1
302 1296 m 1
 302 1461 l 1
 384 1461 l 1
 384 1296 l 1
 302 1296 l 1
62 1488 m 1
 62 1653 l 1
 144 1653 l 1
 144 1488 l 1
 62 1488 l 1
221 1488 m 1
 221 1653 l 1
 304 1653 l 1
 304 1488 l 1
 221 1488 l 1
382 1488 m 1
 382 1653 l 1
 463 1653 l 1
 463 1488 l 1
 382 1488 l 1
302 1681 m 1
 302 1846 l 1
 384 1846 l 1
 384 1681 l 1
 302 1681 l 1
142 1681 m 1
 142 1846 l 1
 225 1846 l 1
 225 1681 l 1
 142 1681 l 1
-17 1681 m 1
 -17 1846 l 1
 64 1846 l 1
 64 1681 l 1
 -17 1681 l 1
62 1873 m 1
 62 2039 l 1
 144 2039 l 1
 144 1873 l 1
 62 1873 l 1
221 1873 m 1
 221 2039 l 1
 304 2039 l 1
 304 1873 l 1
 221 1873 l 1
382 1873 m 1
 382 2039 l 1
 463 2039 l 1
 463 1873 l 1
 382 1873 l 1
-17 2066 m 1
 -17 2232 l 1
 64 2232 l 1
 64 2066 l 1
 -17 2066 l 1
142 2066 m 1
 142 2232 l 1
 225 2232 l 1
 225 2066 l 1
 142 2066 l 1
302 2066 m 1
 302 2232 l 1
 384 2232 l 1
 384 2066 l 1
 302 2066 l 1
62 2259 m 1
 62 2425 l 1
 144 2425 l 1
 144 2259 l 1
 62 2259 l 1
221 2259 m 1
 221 2425 l 1
 304 2425 l 1
 304 2259 l 1
 221 2259 l 1
382 2259 m 1
 382 2425 l 1
 463 2425 l 1
 463 2259 l 1
 382 2259 l 1
EndSplineSet
EndChar

